G75*
%MOIN*%
%OFA0B0*%
%FSLAX25Y25*%
%IPPOS*%
%LPD*%
%AMOC8*
5,1,8,0,0,1.08239X$1,22.5*
%
%ADD10C,0.00000*%
%ADD11R,0.03543X0.01575*%
%ADD12R,0.02362X0.06299*%
%ADD13R,0.02400X0.06000*%
%ADD14R,0.03543X0.02756*%
%ADD15R,0.04331X0.03937*%
%ADD16R,0.20000X0.10000*%
%ADD17R,0.03937X0.04331*%
D10*
X0001000Y0001000D02*
X0001000Y0059780D01*
X0075685Y0059780D01*
X0075685Y0001000D01*
X0001000Y0001000D01*
D11*
X0038559Y0042260D03*
X0038559Y0044819D03*
X0038559Y0047378D03*
X0047220Y0047378D03*
X0047220Y0042260D03*
D12*
X0020744Y0039953D03*
X0015783Y0039953D03*
X0010783Y0039953D03*
X0005783Y0039953D03*
X0005744Y0019055D03*
X0010744Y0019055D03*
X0015744Y0019055D03*
X0020744Y0019055D03*
D13*
X0032240Y0027469D03*
X0037240Y0027469D03*
X0042240Y0027469D03*
X0047240Y0027469D03*
X0047240Y0005869D03*
X0042240Y0005869D03*
X0037240Y0005869D03*
X0032240Y0005869D03*
D14*
X0032929Y0034976D03*
X0032929Y0040094D03*
X0025843Y0040016D03*
X0025843Y0034898D03*
D15*
X0013244Y0047575D03*
X0006551Y0047575D03*
X0039189Y0054150D03*
X0045882Y0054150D03*
D16*
X0063992Y0052969D03*
X0063992Y0043126D03*
X0063992Y0022654D03*
X0063992Y0007693D03*
D17*
X0052181Y0029543D03*
X0052181Y0036236D03*
M02*
