G75*
G70*
%OFA0B0*%
%FSLAX24Y24*%
%IPPOS*%
%LPD*%
%AMOC8*
5,1,8,0,0,1.08239X$1,22.5*
%
%ADD10C,0.0000*%
%ADD11OC8,0.1500*%
%ADD12R,0.0515X0.0515*%
%ADD13C,0.0515*%
%ADD14C,0.0660*%
%ADD15R,0.2000X0.1000*%
%ADD16R,0.1000X0.2000*%
%ADD17C,0.0787*%
%ADD18C,0.0157*%
%ADD19C,0.0400*%
%ADD20C,0.1575*%
D10*
X009193Y008145D02*
X009587Y008145D01*
X012490Y011885D02*
X012492Y011935D01*
X012498Y011985D01*
X012508Y012034D01*
X012521Y012083D01*
X012539Y012130D01*
X012560Y012176D01*
X012584Y012219D01*
X012612Y012261D01*
X012643Y012301D01*
X012677Y012338D01*
X012714Y012372D01*
X012754Y012403D01*
X012796Y012431D01*
X012839Y012455D01*
X012885Y012476D01*
X012932Y012494D01*
X012981Y012507D01*
X013030Y012517D01*
X013080Y012523D01*
X013130Y012525D01*
X013180Y012523D01*
X013230Y012517D01*
X013279Y012507D01*
X013328Y012494D01*
X013375Y012476D01*
X013421Y012455D01*
X013464Y012431D01*
X013506Y012403D01*
X013546Y012372D01*
X013583Y012338D01*
X013617Y012301D01*
X013648Y012261D01*
X013676Y012219D01*
X013700Y012176D01*
X013721Y012130D01*
X013739Y012083D01*
X013752Y012034D01*
X013762Y011985D01*
X013768Y011935D01*
X013770Y011885D01*
X013768Y011835D01*
X013762Y011785D01*
X013752Y011736D01*
X013739Y011687D01*
X013721Y011640D01*
X013700Y011594D01*
X013676Y011551D01*
X013648Y011509D01*
X013617Y011469D01*
X013583Y011432D01*
X013546Y011398D01*
X013506Y011367D01*
X013464Y011339D01*
X013421Y011315D01*
X013375Y011294D01*
X013328Y011276D01*
X013279Y011263D01*
X013230Y011253D01*
X013180Y011247D01*
X013130Y011245D01*
X013080Y011247D01*
X013030Y011253D01*
X012981Y011263D01*
X012932Y011276D01*
X012885Y011294D01*
X012839Y011315D01*
X012796Y011339D01*
X012754Y011367D01*
X012714Y011398D01*
X012677Y011432D01*
X012643Y011469D01*
X012612Y011509D01*
X012584Y011551D01*
X012560Y011594D01*
X012539Y011640D01*
X012521Y011687D01*
X012508Y011736D01*
X012498Y011785D01*
X012492Y011835D01*
X012490Y011885D01*
X015493Y014050D02*
X015486Y013769D01*
X015466Y013489D01*
X015433Y013209D01*
X015386Y012932D01*
X015327Y012658D01*
X015254Y012386D01*
X015168Y012118D01*
X015070Y011855D01*
X014959Y011597D01*
X014836Y011344D01*
X014702Y011097D01*
X014555Y010857D01*
X014398Y010624D01*
X014229Y010399D01*
X014050Y010182D01*
X013861Y009974D01*
X013663Y009776D01*
X013455Y009587D01*
X013238Y009408D01*
X013013Y009239D01*
X012780Y009082D01*
X012540Y008935D01*
X012293Y008801D01*
X012040Y008678D01*
X011782Y008567D01*
X011519Y008469D01*
X011251Y008383D01*
X010979Y008310D01*
X010705Y008251D01*
X010428Y008204D01*
X010148Y008171D01*
X009868Y008151D01*
X009587Y008144D01*
X009193Y008145D02*
X008762Y008155D01*
X008332Y008186D01*
X007904Y008237D01*
X007479Y008309D01*
X007058Y008400D01*
X006642Y008512D01*
X006231Y008643D01*
X005828Y008794D01*
X005431Y008963D01*
X005044Y009152D01*
X004665Y009358D01*
X004297Y009582D01*
X003941Y009824D01*
X003596Y010082D01*
X003263Y010357D01*
X002944Y010647D01*
X002640Y010951D01*
X002350Y011270D01*
X002075Y011603D01*
X001817Y011948D01*
X001575Y012304D01*
X001351Y012673D01*
X001145Y013051D01*
X000956Y013438D01*
X000787Y013835D01*
X000636Y014238D01*
X000505Y014649D01*
X000393Y015065D01*
X000302Y015486D01*
X000230Y015911D01*
X000179Y016339D01*
X000148Y016769D01*
X000138Y017200D01*
X003996Y024601D02*
X004036Y024601D01*
X009311Y024601D01*
X014508Y024601D01*
X014508Y020153D01*
X012471Y022515D02*
X012473Y022565D01*
X012479Y022615D01*
X012489Y022665D01*
X012502Y022713D01*
X012519Y022761D01*
X012540Y022807D01*
X012564Y022851D01*
X012592Y022893D01*
X012623Y022933D01*
X012657Y022970D01*
X012694Y023005D01*
X012733Y023036D01*
X012774Y023065D01*
X012818Y023090D01*
X012864Y023112D01*
X012911Y023130D01*
X012959Y023144D01*
X013008Y023155D01*
X013058Y023162D01*
X013108Y023165D01*
X013159Y023164D01*
X013209Y023159D01*
X013259Y023150D01*
X013307Y023138D01*
X013355Y023121D01*
X013401Y023101D01*
X013446Y023078D01*
X013489Y023051D01*
X013529Y023021D01*
X013567Y022988D01*
X013602Y022952D01*
X013635Y022913D01*
X013664Y022872D01*
X013690Y022829D01*
X013713Y022784D01*
X013732Y022737D01*
X013747Y022689D01*
X013759Y022640D01*
X013767Y022590D01*
X013771Y022540D01*
X013771Y022490D01*
X013767Y022440D01*
X013759Y022390D01*
X013747Y022341D01*
X013732Y022293D01*
X013713Y022246D01*
X013690Y022201D01*
X013664Y022158D01*
X013635Y022117D01*
X013602Y022078D01*
X013567Y022042D01*
X013529Y022009D01*
X013489Y021979D01*
X013446Y021952D01*
X013401Y021929D01*
X013355Y021909D01*
X013307Y021892D01*
X013259Y021880D01*
X013209Y021871D01*
X013159Y021866D01*
X013108Y021865D01*
X013058Y021868D01*
X013008Y021875D01*
X012959Y021886D01*
X012911Y021900D01*
X012864Y021918D01*
X012818Y021940D01*
X012774Y021965D01*
X012733Y021994D01*
X012694Y022025D01*
X012657Y022060D01*
X012623Y022097D01*
X012592Y022137D01*
X012564Y022179D01*
X012540Y022223D01*
X012519Y022269D01*
X012502Y022317D01*
X012489Y022365D01*
X012479Y022415D01*
X012473Y022465D01*
X012471Y022515D01*
X012343Y017239D02*
X012343Y017200D01*
X012342Y017239D02*
X012345Y017383D01*
X012356Y017527D01*
X012373Y017670D01*
X012396Y017812D01*
X012427Y017953D01*
X012464Y018092D01*
X012508Y018229D01*
X012558Y018364D01*
X012614Y018497D01*
X012677Y018626D01*
X012745Y018753D01*
X012820Y018876D01*
X012900Y018996D01*
X012986Y019112D01*
X013078Y019223D01*
X013174Y019330D01*
X013276Y019432D01*
X013382Y019530D01*
X013492Y019622D01*
X013607Y019709D01*
X013726Y019790D01*
X013849Y019866D01*
X013975Y019936D01*
X014104Y019999D01*
X014236Y020057D01*
X014371Y020108D01*
X014508Y020153D01*
X012342Y017200D02*
X012346Y017050D01*
X012356Y016901D01*
X012374Y016752D01*
X012399Y016604D01*
X012431Y016457D01*
X012470Y016313D01*
X012515Y016170D01*
X012568Y016029D01*
X012627Y015891D01*
X012692Y015757D01*
X012764Y015625D01*
X012842Y015497D01*
X012926Y015373D01*
X013016Y015253D01*
X013111Y015137D01*
X013212Y015026D01*
X013318Y014920D01*
X013429Y014819D01*
X013545Y014724D01*
X013665Y014634D01*
X013789Y014550D01*
X013917Y014472D01*
X014049Y014400D01*
X014183Y014335D01*
X014321Y014276D01*
X014462Y014223D01*
X014605Y014178D01*
X014749Y014139D01*
X014896Y014107D01*
X015044Y014082D01*
X015193Y014064D01*
X015342Y014054D01*
X015492Y014050D01*
X003996Y024602D02*
X003647Y024345D01*
X003310Y024072D01*
X002987Y023782D01*
X002678Y023478D01*
X002384Y023159D01*
X002105Y022826D01*
X001843Y022481D01*
X001598Y022123D01*
X001370Y021753D01*
X001161Y021374D01*
X000969Y020984D01*
X000797Y020586D01*
X000644Y020180D01*
X000511Y019767D01*
X000397Y019349D01*
X000304Y018925D01*
X000232Y018497D01*
X000180Y018066D01*
X000148Y017634D01*
X000138Y017200D01*
D11*
X003248Y011806D03*
X005610Y009956D03*
X003642Y016176D03*
X003642Y018184D03*
D12*
X010984Y010507D03*
D13*
X010984Y011097D03*
X010984Y011688D03*
X010984Y012279D03*
X010984Y012869D03*
X010980Y013460D03*
D14*
X006551Y021515D02*
X005891Y021515D01*
X005891Y022515D02*
X006551Y022515D01*
X006551Y023515D02*
X005891Y023515D01*
D15*
X003248Y014405D03*
X003248Y013420D03*
D16*
X001910Y013912D03*
X007894Y022515D03*
X008878Y022515D03*
X009862Y022515D03*
D17*
X008878Y022515D02*
X007894Y022515D01*
X006221Y022515D01*
X006221Y023515D02*
X005134Y023515D01*
X004921Y023302D01*
X004921Y019503D01*
X005728Y018696D01*
X005728Y016216D01*
X005728Y010074D01*
X005610Y009956D01*
D18*
X005249Y009264D02*
X004882Y009456D01*
X004882Y018637D01*
X002642Y020869D01*
X002640Y023156D01*
X002880Y023429D01*
X003672Y024138D01*
X004055Y024423D01*
X006025Y024423D01*
X006732Y023716D01*
X006732Y023282D01*
X006634Y023204D01*
X005532Y023204D01*
X005315Y022987D01*
X005315Y021082D01*
X005497Y020901D01*
X007407Y020900D01*
X010232Y018076D01*
X010232Y009765D01*
X009682Y009226D01*
X005249Y009264D01*
X005003Y009393D02*
X009851Y009393D01*
X010011Y009548D02*
X004882Y009548D01*
X004882Y009704D02*
X010170Y009704D01*
X010232Y009860D02*
X004882Y009860D01*
X004882Y010016D02*
X010232Y010016D01*
X010232Y010172D02*
X004882Y010172D01*
X004882Y010328D02*
X010232Y010328D01*
X010232Y010484D02*
X004882Y010484D01*
X004882Y010640D02*
X010232Y010640D01*
X010232Y010796D02*
X004882Y010796D01*
X004882Y010952D02*
X010232Y010952D01*
X010232Y011108D02*
X004882Y011108D01*
X004882Y011264D02*
X010232Y011264D01*
X010232Y011420D02*
X004882Y011420D01*
X004882Y011576D02*
X010232Y011576D01*
X010232Y011732D02*
X004882Y011732D01*
X004882Y011888D02*
X010232Y011888D01*
X010232Y012044D02*
X004882Y012044D01*
X004882Y012200D02*
X010232Y012200D01*
X010232Y012356D02*
X004882Y012356D01*
X004882Y012512D02*
X010232Y012512D01*
X010232Y012668D02*
X004882Y012668D01*
X004882Y012824D02*
X010232Y012824D01*
X010232Y012980D02*
X004882Y012980D01*
X004882Y013136D02*
X010232Y013136D01*
X010232Y013292D02*
X004882Y013292D01*
X004882Y013448D02*
X010232Y013448D01*
X010232Y013604D02*
X004882Y013604D01*
X004882Y013760D02*
X010232Y013760D01*
X010232Y013916D02*
X004882Y013916D01*
X004882Y014072D02*
X010232Y014072D01*
X010232Y014228D02*
X004882Y014228D01*
X004882Y014384D02*
X010232Y014384D01*
X010232Y014540D02*
X004882Y014540D01*
X004882Y014696D02*
X010232Y014696D01*
X010232Y014852D02*
X004882Y014852D01*
X004882Y015008D02*
X010232Y015008D01*
X010232Y015164D02*
X004882Y015164D01*
X004882Y015320D02*
X010232Y015320D01*
X010232Y015476D02*
X004882Y015476D01*
X004882Y015632D02*
X010232Y015632D01*
X010232Y015788D02*
X004882Y015788D01*
X004882Y015944D02*
X010232Y015944D01*
X010232Y016100D02*
X004882Y016100D01*
X004882Y016256D02*
X010232Y016256D01*
X010232Y016412D02*
X004882Y016412D01*
X004882Y016568D02*
X010232Y016568D01*
X010232Y016724D02*
X004882Y016724D01*
X004882Y016880D02*
X010232Y016880D01*
X010232Y017036D02*
X004882Y017036D01*
X004882Y017192D02*
X010232Y017192D01*
X010232Y017348D02*
X004882Y017348D01*
X004882Y017504D02*
X010232Y017504D01*
X010232Y017659D02*
X004882Y017659D01*
X004882Y017815D02*
X010232Y017815D01*
X010232Y017971D02*
X004882Y017971D01*
X004882Y018127D02*
X010180Y018127D01*
X010024Y018283D02*
X004882Y018283D01*
X004882Y018439D02*
X009868Y018439D01*
X009712Y018595D02*
X004882Y018595D01*
X004767Y018751D02*
X009556Y018751D01*
X009400Y018907D02*
X004610Y018907D01*
X004454Y019063D02*
X009244Y019063D01*
X009088Y019219D02*
X004297Y019219D01*
X004141Y019375D02*
X008932Y019375D01*
X008776Y019531D02*
X003984Y019531D01*
X003828Y019687D02*
X008620Y019687D01*
X008464Y019843D02*
X003671Y019843D01*
X003514Y019999D02*
X008308Y019999D01*
X008152Y020155D02*
X003358Y020155D01*
X003201Y020311D02*
X007996Y020311D01*
X007840Y020467D02*
X003045Y020467D01*
X002888Y020623D02*
X007684Y020623D01*
X007528Y020779D02*
X002731Y020779D01*
X002642Y020935D02*
X005462Y020935D01*
X005315Y021091D02*
X002642Y021091D01*
X002642Y021247D02*
X005315Y021247D01*
X005315Y021403D02*
X002641Y021403D01*
X002641Y021559D02*
X005315Y021559D01*
X005315Y021715D02*
X002641Y021715D01*
X002641Y021871D02*
X005315Y021871D01*
X005315Y022027D02*
X002641Y022027D01*
X002641Y022183D02*
X005315Y022183D01*
X005315Y022339D02*
X002641Y022339D01*
X002641Y022495D02*
X005315Y022495D01*
X005315Y022651D02*
X002641Y022651D01*
X002641Y022807D02*
X005315Y022807D01*
X005315Y022963D02*
X002641Y022963D01*
X002640Y023119D02*
X005447Y023119D01*
X006081Y024367D02*
X003980Y024367D01*
X003770Y024211D02*
X006237Y024211D01*
X006393Y024055D02*
X003580Y024055D01*
X003405Y023899D02*
X006549Y023899D01*
X006705Y023743D02*
X003231Y023743D01*
X003057Y023587D02*
X006732Y023587D01*
X006732Y023431D02*
X002882Y023431D01*
X002745Y023275D02*
X006723Y023275D01*
X007894Y022515D02*
X009862Y022515D01*
X003248Y014405D02*
X003248Y013420D01*
X003248Y014405D01*
X002402Y014405D01*
X001910Y013912D01*
X008473Y009237D02*
X009692Y009237D01*
D19*
X005689Y016176D02*
X005728Y016216D01*
D20*
X003248Y013420D02*
X003248Y011806D01*
M02*
