G75*
G70*
%OFA0B0*%
%FSLAX24Y24*%
%IPPOS*%
%LPD*%
%AMOC8*
5,1,8,0,0,1.08239X$1,22.5*
%
%ADD10C,0.0000*%
%ADD11OC8,0.1500*%
%ADD12R,0.0236X0.0630*%
%ADD13R,0.0515X0.0515*%
%ADD14C,0.0515*%
%ADD15C,0.0660*%
%ADD16R,0.0787X0.0630*%
%ADD17R,0.0710X0.0630*%
%ADD18R,0.0630X0.0709*%
%ADD19R,0.0480X0.0880*%
%ADD20R,0.1417X0.0866*%
%ADD21R,0.0709X0.0630*%
%ADD22R,0.1063X0.0630*%
%ADD23C,0.0157*%
%ADD24C,0.0320*%
%ADD25C,0.0400*%
D10*
X009193Y008145D02*
X009587Y008145D01*
X012490Y011885D02*
X012492Y011935D01*
X012498Y011985D01*
X012508Y012034D01*
X012521Y012083D01*
X012539Y012130D01*
X012560Y012176D01*
X012584Y012219D01*
X012612Y012261D01*
X012643Y012301D01*
X012677Y012338D01*
X012714Y012372D01*
X012754Y012403D01*
X012796Y012431D01*
X012839Y012455D01*
X012885Y012476D01*
X012932Y012494D01*
X012981Y012507D01*
X013030Y012517D01*
X013080Y012523D01*
X013130Y012525D01*
X013180Y012523D01*
X013230Y012517D01*
X013279Y012507D01*
X013328Y012494D01*
X013375Y012476D01*
X013421Y012455D01*
X013464Y012431D01*
X013506Y012403D01*
X013546Y012372D01*
X013583Y012338D01*
X013617Y012301D01*
X013648Y012261D01*
X013676Y012219D01*
X013700Y012176D01*
X013721Y012130D01*
X013739Y012083D01*
X013752Y012034D01*
X013762Y011985D01*
X013768Y011935D01*
X013770Y011885D01*
X013768Y011835D01*
X013762Y011785D01*
X013752Y011736D01*
X013739Y011687D01*
X013721Y011640D01*
X013700Y011594D01*
X013676Y011551D01*
X013648Y011509D01*
X013617Y011469D01*
X013583Y011432D01*
X013546Y011398D01*
X013506Y011367D01*
X013464Y011339D01*
X013421Y011315D01*
X013375Y011294D01*
X013328Y011276D01*
X013279Y011263D01*
X013230Y011253D01*
X013180Y011247D01*
X013130Y011245D01*
X013080Y011247D01*
X013030Y011253D01*
X012981Y011263D01*
X012932Y011276D01*
X012885Y011294D01*
X012839Y011315D01*
X012796Y011339D01*
X012754Y011367D01*
X012714Y011398D01*
X012677Y011432D01*
X012643Y011469D01*
X012612Y011509D01*
X012584Y011551D01*
X012560Y011594D01*
X012539Y011640D01*
X012521Y011687D01*
X012508Y011736D01*
X012498Y011785D01*
X012492Y011835D01*
X012490Y011885D01*
X015493Y014050D02*
X015486Y013769D01*
X015466Y013489D01*
X015433Y013209D01*
X015386Y012932D01*
X015327Y012658D01*
X015254Y012386D01*
X015168Y012118D01*
X015070Y011855D01*
X014959Y011597D01*
X014836Y011344D01*
X014702Y011097D01*
X014555Y010857D01*
X014398Y010624D01*
X014229Y010399D01*
X014050Y010182D01*
X013861Y009974D01*
X013663Y009776D01*
X013455Y009587D01*
X013238Y009408D01*
X013013Y009239D01*
X012780Y009082D01*
X012540Y008935D01*
X012293Y008801D01*
X012040Y008678D01*
X011782Y008567D01*
X011519Y008469D01*
X011251Y008383D01*
X010979Y008310D01*
X010705Y008251D01*
X010428Y008204D01*
X010148Y008171D01*
X009868Y008151D01*
X009587Y008144D01*
X009193Y008145D02*
X008762Y008155D01*
X008332Y008186D01*
X007904Y008237D01*
X007479Y008309D01*
X007058Y008400D01*
X006642Y008512D01*
X006231Y008643D01*
X005828Y008794D01*
X005431Y008963D01*
X005044Y009152D01*
X004665Y009358D01*
X004297Y009582D01*
X003941Y009824D01*
X003596Y010082D01*
X003263Y010357D01*
X002944Y010647D01*
X002640Y010951D01*
X002350Y011270D01*
X002075Y011603D01*
X001817Y011948D01*
X001575Y012304D01*
X001351Y012673D01*
X001145Y013051D01*
X000956Y013438D01*
X000787Y013835D01*
X000636Y014238D01*
X000505Y014649D01*
X000393Y015065D01*
X000302Y015486D01*
X000230Y015911D01*
X000179Y016339D01*
X000148Y016769D01*
X000138Y017200D01*
X003996Y024601D02*
X004036Y024601D01*
X009311Y024601D01*
X014508Y024601D01*
X014508Y020153D01*
X012471Y022515D02*
X012473Y022565D01*
X012479Y022615D01*
X012489Y022665D01*
X012502Y022713D01*
X012519Y022761D01*
X012540Y022807D01*
X012564Y022851D01*
X012592Y022893D01*
X012623Y022933D01*
X012657Y022970D01*
X012694Y023005D01*
X012733Y023036D01*
X012774Y023065D01*
X012818Y023090D01*
X012864Y023112D01*
X012911Y023130D01*
X012959Y023144D01*
X013008Y023155D01*
X013058Y023162D01*
X013108Y023165D01*
X013159Y023164D01*
X013209Y023159D01*
X013259Y023150D01*
X013307Y023138D01*
X013355Y023121D01*
X013401Y023101D01*
X013446Y023078D01*
X013489Y023051D01*
X013529Y023021D01*
X013567Y022988D01*
X013602Y022952D01*
X013635Y022913D01*
X013664Y022872D01*
X013690Y022829D01*
X013713Y022784D01*
X013732Y022737D01*
X013747Y022689D01*
X013759Y022640D01*
X013767Y022590D01*
X013771Y022540D01*
X013771Y022490D01*
X013767Y022440D01*
X013759Y022390D01*
X013747Y022341D01*
X013732Y022293D01*
X013713Y022246D01*
X013690Y022201D01*
X013664Y022158D01*
X013635Y022117D01*
X013602Y022078D01*
X013567Y022042D01*
X013529Y022009D01*
X013489Y021979D01*
X013446Y021952D01*
X013401Y021929D01*
X013355Y021909D01*
X013307Y021892D01*
X013259Y021880D01*
X013209Y021871D01*
X013159Y021866D01*
X013108Y021865D01*
X013058Y021868D01*
X013008Y021875D01*
X012959Y021886D01*
X012911Y021900D01*
X012864Y021918D01*
X012818Y021940D01*
X012774Y021965D01*
X012733Y021994D01*
X012694Y022025D01*
X012657Y022060D01*
X012623Y022097D01*
X012592Y022137D01*
X012564Y022179D01*
X012540Y022223D01*
X012519Y022269D01*
X012502Y022317D01*
X012489Y022365D01*
X012479Y022415D01*
X012473Y022465D01*
X012471Y022515D01*
X012343Y017239D02*
X012343Y017200D01*
X012342Y017239D02*
X012345Y017383D01*
X012356Y017527D01*
X012373Y017670D01*
X012396Y017812D01*
X012427Y017953D01*
X012464Y018092D01*
X012508Y018229D01*
X012558Y018364D01*
X012614Y018497D01*
X012677Y018626D01*
X012745Y018753D01*
X012820Y018876D01*
X012900Y018996D01*
X012986Y019112D01*
X013078Y019223D01*
X013174Y019330D01*
X013276Y019432D01*
X013382Y019530D01*
X013492Y019622D01*
X013607Y019709D01*
X013726Y019790D01*
X013849Y019866D01*
X013975Y019936D01*
X014104Y019999D01*
X014236Y020057D01*
X014371Y020108D01*
X014508Y020153D01*
X012342Y017200D02*
X012346Y017050D01*
X012356Y016901D01*
X012374Y016752D01*
X012399Y016604D01*
X012431Y016457D01*
X012470Y016313D01*
X012515Y016170D01*
X012568Y016029D01*
X012627Y015891D01*
X012692Y015757D01*
X012764Y015625D01*
X012842Y015497D01*
X012926Y015373D01*
X013016Y015253D01*
X013111Y015137D01*
X013212Y015026D01*
X013318Y014920D01*
X013429Y014819D01*
X013545Y014724D01*
X013665Y014634D01*
X013789Y014550D01*
X013917Y014472D01*
X014049Y014400D01*
X014183Y014335D01*
X014321Y014276D01*
X014462Y014223D01*
X014605Y014178D01*
X014749Y014139D01*
X014896Y014107D01*
X015044Y014082D01*
X015193Y014064D01*
X015342Y014054D01*
X015492Y014050D01*
X003996Y024602D02*
X003647Y024345D01*
X003310Y024072D01*
X002987Y023782D01*
X002678Y023478D01*
X002384Y023159D01*
X002105Y022826D01*
X001843Y022481D01*
X001598Y022123D01*
X001370Y021753D01*
X001161Y021374D01*
X000969Y020984D01*
X000797Y020586D01*
X000644Y020180D01*
X000511Y019767D01*
X000397Y019349D01*
X000304Y018925D01*
X000232Y018497D01*
X000180Y018066D01*
X000148Y017634D01*
X000138Y017200D01*
D11*
X003248Y011806D03*
X005610Y009956D03*
X003642Y016176D03*
X003642Y018184D03*
D12*
X009978Y016749D03*
X010475Y016749D03*
X010975Y016749D03*
X011475Y016749D03*
X011478Y014659D03*
X010978Y014659D03*
X010478Y014659D03*
X009978Y014659D03*
D13*
X010984Y010507D03*
D14*
X010984Y011097D03*
X010984Y011688D03*
X010984Y012279D03*
X010984Y012869D03*
X010980Y013460D03*
D15*
X006551Y021515D02*
X005891Y021515D01*
X005891Y022515D02*
X006551Y022515D01*
X006551Y023515D02*
X005891Y023515D01*
D16*
X010847Y019759D03*
X010847Y018656D03*
D17*
X009272Y016264D03*
X009272Y015144D03*
D18*
X009705Y013814D03*
X009705Y012948D03*
X008603Y012948D03*
X008603Y013814D03*
X010335Y017633D03*
X011437Y017633D03*
D19*
X008646Y011884D03*
X007736Y011884D03*
X006826Y011884D03*
D20*
X007736Y009444D03*
D21*
X005610Y011452D03*
X005610Y012554D03*
D22*
X009587Y011924D03*
X009587Y010822D03*
D23*
X006539Y009571D02*
X006005Y009036D01*
X006581Y008818D01*
X007610Y008564D01*
X008663Y008436D01*
X009193Y008420D01*
X009587Y008420D01*
X009988Y008435D01*
X010783Y008549D01*
X011554Y008775D01*
X012285Y009109D01*
X012961Y009543D01*
X013568Y010069D01*
X014094Y010676D01*
X014291Y010984D01*
X014291Y013990D01*
X013870Y014164D01*
X013309Y014539D01*
X013309Y014539D01*
X012832Y015016D01*
X012457Y015577D01*
X012199Y016201D01*
X012199Y016201D01*
X012067Y016862D01*
X012067Y017594D01*
X012129Y017879D01*
X011931Y017879D01*
X011931Y017712D01*
X011516Y017712D01*
X011516Y017554D01*
X011931Y017554D01*
X011931Y017255D01*
X011919Y017210D01*
X011895Y017169D01*
X011862Y017135D01*
X011821Y017112D01*
X011776Y017100D01*
X011768Y017100D01*
X011771Y017087D01*
X011771Y016749D01*
X011475Y016749D01*
X011475Y016749D01*
X011475Y016749D01*
X011475Y017242D01*
X011516Y017242D01*
X011516Y017554D01*
X011358Y017554D01*
X011358Y017242D01*
X011475Y017242D01*
X011475Y016749D01*
X011771Y016749D01*
X011771Y016410D01*
X011759Y016365D01*
X011736Y016324D01*
X011702Y016291D01*
X011662Y016267D01*
X011616Y016255D01*
X011475Y016255D01*
X011475Y016749D01*
X011475Y016749D01*
X011475Y016749D01*
X011368Y016749D01*
X011368Y016749D01*
X011475Y016749D01*
X011475Y016255D01*
X011333Y016255D01*
X011310Y016261D01*
X011249Y016200D01*
X011191Y016176D01*
X011803Y016176D01*
X011933Y016122D01*
X012033Y016023D01*
X012171Y015885D01*
X012225Y015755D01*
X012225Y012444D01*
X012171Y012314D01*
X012071Y012214D01*
X011517Y011661D01*
X011517Y011582D01*
X011436Y011386D01*
X011364Y011314D01*
X011389Y011265D01*
X011410Y011200D01*
X011421Y011132D01*
X011421Y011097D01*
X010984Y011097D01*
X010984Y011097D01*
X011421Y011097D01*
X011421Y011063D01*
X011410Y010995D01*
X011408Y010988D01*
X011476Y010920D01*
X011517Y010819D01*
X011517Y010195D01*
X011476Y010093D01*
X011398Y010016D01*
X011297Y009974D01*
X010672Y009974D01*
X010571Y010016D01*
X010493Y010093D01*
X010451Y010195D01*
X010451Y010206D01*
X010449Y010206D01*
X010292Y010364D01*
X010260Y010396D01*
X010228Y010364D01*
X010187Y010340D01*
X010142Y010328D01*
X009665Y010328D01*
X009665Y010743D01*
X009508Y010743D01*
X009508Y010328D01*
X009032Y010328D01*
X008986Y010340D01*
X008946Y010364D01*
X008912Y010397D01*
X008889Y010438D01*
X008877Y010483D01*
X008877Y010743D01*
X009508Y010743D01*
X009508Y010901D01*
X009508Y011316D01*
X009131Y011316D01*
X009139Y011334D01*
X009912Y011334D01*
X009931Y011316D01*
X009665Y011316D01*
X009665Y010901D01*
X009508Y010901D01*
X008877Y010901D01*
X008877Y011160D01*
X008879Y011169D01*
X008352Y011169D01*
X008250Y011211D01*
X008173Y011288D01*
X008139Y011369D01*
X008119Y011335D01*
X008086Y011301D01*
X008045Y011278D01*
X008000Y011266D01*
X007778Y011266D01*
X007778Y011843D01*
X007695Y011843D01*
X007695Y011266D01*
X007473Y011266D01*
X007427Y011278D01*
X007387Y011301D01*
X007353Y011335D01*
X007333Y011369D01*
X007300Y011288D01*
X007222Y011211D01*
X007121Y011169D01*
X006532Y011169D01*
X006430Y011211D01*
X006353Y011288D01*
X006311Y011390D01*
X006311Y011982D01*
X006065Y011982D01*
X006020Y011964D01*
X005256Y011964D01*
X005256Y011945D01*
X005532Y011945D01*
X005532Y011530D01*
X005689Y011530D01*
X006143Y011530D01*
X006143Y011790D01*
X006131Y011836D01*
X006108Y011876D01*
X006074Y011910D01*
X006034Y011933D01*
X005988Y011945D01*
X005689Y011945D01*
X005689Y011530D01*
X005689Y011373D01*
X005689Y010958D01*
X005988Y010958D01*
X006034Y010970D01*
X006074Y010994D01*
X006108Y011027D01*
X006131Y011068D01*
X006143Y011113D01*
X006143Y011373D01*
X005689Y011373D01*
X005532Y011373D01*
X005532Y010958D01*
X005256Y010958D01*
X005256Y010884D01*
X005552Y010884D01*
X005552Y010014D01*
X005669Y010014D01*
X006539Y010014D01*
X006539Y010340D01*
X005995Y010884D01*
X005669Y010884D01*
X005669Y010014D01*
X005669Y009897D01*
X006539Y009897D01*
X006539Y009571D01*
X006517Y009548D02*
X006849Y009548D01*
X006849Y009523D02*
X007658Y009523D01*
X007658Y010056D01*
X007004Y010056D01*
X006959Y010044D01*
X006918Y010020D01*
X006885Y009987D01*
X006861Y009946D01*
X006849Y009901D01*
X006849Y009523D01*
X006849Y009366D02*
X006849Y008988D01*
X006861Y008942D01*
X006885Y008901D01*
X006918Y008868D01*
X006959Y008845D01*
X007004Y008832D01*
X007658Y008832D01*
X007658Y009366D01*
X006849Y009366D01*
X006849Y009237D02*
X006205Y009237D01*
X006361Y009393D02*
X007658Y009393D01*
X007658Y009366D02*
X007658Y009523D01*
X007815Y009523D01*
X007815Y010056D01*
X008469Y010056D01*
X008514Y010044D01*
X008555Y010020D01*
X008588Y009987D01*
X008612Y009946D01*
X008624Y009901D01*
X008624Y009523D01*
X007815Y009523D01*
X007815Y009366D01*
X008624Y009366D01*
X008624Y008988D01*
X008612Y008942D01*
X008588Y008901D01*
X008555Y008868D01*
X008514Y008845D01*
X008469Y008832D01*
X007815Y008832D01*
X007815Y009366D01*
X007658Y009366D01*
X007736Y009444D02*
X007756Y009424D01*
X008012Y009424D01*
X007815Y009393D02*
X012726Y009393D01*
X012483Y009237D02*
X008624Y009237D01*
X008624Y009081D02*
X012223Y009081D01*
X011881Y008925D02*
X008601Y008925D01*
X008495Y008457D02*
X010142Y008457D01*
X011000Y008613D02*
X007414Y008613D01*
X007658Y008925D02*
X007815Y008925D01*
X007815Y009081D02*
X007658Y009081D01*
X007658Y009237D02*
X007815Y009237D01*
X007815Y009548D02*
X007658Y009548D01*
X007658Y009704D02*
X007815Y009704D01*
X007815Y009860D02*
X007658Y009860D01*
X007658Y010016D02*
X007815Y010016D01*
X008559Y010016D02*
X010570Y010016D01*
X010460Y010172D02*
X006539Y010172D01*
X006539Y010016D02*
X006914Y010016D01*
X006849Y009860D02*
X006539Y009860D01*
X006539Y009704D02*
X006849Y009704D01*
X006849Y009081D02*
X006049Y009081D01*
X006300Y008925D02*
X006871Y008925D01*
X006781Y008769D02*
X011532Y008769D01*
X011399Y010016D02*
X013507Y010016D01*
X013657Y010172D02*
X011508Y010172D01*
X011517Y010328D02*
X013792Y010328D01*
X013927Y010484D02*
X011517Y010484D01*
X011517Y010640D02*
X014063Y010640D01*
X014171Y010796D02*
X011517Y010796D01*
X011444Y010952D02*
X014271Y010952D01*
X014291Y011108D02*
X013647Y011108D01*
X013649Y011109D02*
X013906Y011366D01*
X014045Y011703D01*
X014045Y012067D01*
X013906Y012403D01*
X013649Y012661D01*
X013312Y012800D01*
X012948Y012800D01*
X012612Y012661D01*
X012354Y012403D01*
X012215Y012067D01*
X012215Y011703D01*
X012354Y011366D01*
X012612Y011109D01*
X012948Y010969D01*
X013312Y010969D01*
X013649Y011109D01*
X013804Y011264D02*
X014291Y011264D01*
X014291Y011420D02*
X013928Y011420D01*
X013993Y011576D02*
X014291Y011576D01*
X014291Y011732D02*
X014045Y011732D01*
X014045Y011888D02*
X014291Y011888D01*
X014291Y012044D02*
X014045Y012044D01*
X013990Y012200D02*
X014291Y012200D01*
X014291Y012356D02*
X013926Y012356D01*
X013797Y012512D02*
X014291Y012512D01*
X014291Y012668D02*
X013631Y012668D01*
X014291Y012824D02*
X012225Y012824D01*
X012225Y012668D02*
X012629Y012668D01*
X012463Y012512D02*
X012225Y012512D01*
X012188Y012356D02*
X012335Y012356D01*
X012270Y012200D02*
X012057Y012200D01*
X011901Y012044D02*
X012215Y012044D01*
X012215Y011888D02*
X011745Y011888D01*
X011589Y011732D02*
X012215Y011732D01*
X012267Y011576D02*
X011515Y011576D01*
X011450Y011420D02*
X012332Y011420D01*
X012456Y011264D02*
X011389Y011264D01*
X011421Y011108D02*
X012613Y011108D01*
X013327Y009860D02*
X008624Y009860D01*
X008624Y009704D02*
X013147Y009704D01*
X012967Y009548D02*
X008624Y009548D01*
X009031Y010328D02*
X006539Y010328D01*
X006395Y010484D02*
X008877Y010484D01*
X008877Y010640D02*
X006239Y010640D01*
X006083Y010796D02*
X009508Y010796D01*
X009587Y010822D02*
X009410Y010822D01*
X009508Y010952D02*
X009665Y010952D01*
X009665Y011108D02*
X009508Y011108D01*
X009508Y011264D02*
X009665Y011264D01*
X009665Y010640D02*
X009508Y010640D01*
X009508Y010484D02*
X009665Y010484D01*
X009665Y010328D02*
X009508Y010328D01*
X008877Y010952D02*
X005256Y010952D01*
X005532Y011108D02*
X005689Y011108D01*
X005689Y011264D02*
X005532Y011264D01*
X005689Y011420D02*
X006311Y011420D01*
X006311Y011576D02*
X006143Y011576D01*
X006143Y011732D02*
X006311Y011732D01*
X006311Y011888D02*
X006096Y011888D01*
X006143Y011264D02*
X006377Y011264D01*
X006142Y011108D02*
X008877Y011108D01*
X008197Y011264D02*
X007276Y011264D01*
X007695Y011420D02*
X007778Y011420D01*
X007778Y011576D02*
X007695Y011576D01*
X007695Y011732D02*
X007778Y011732D01*
X007778Y011926D02*
X007695Y011926D01*
X007695Y011982D01*
X007776Y011982D01*
X007776Y012633D01*
X007953Y012633D01*
X007953Y012928D01*
X008425Y012928D01*
X008425Y013027D01*
X008524Y013027D01*
X008524Y013735D01*
X008681Y013735D01*
X008681Y013281D01*
X008681Y013027D01*
X008524Y013027D01*
X008524Y012869D01*
X008109Y012869D01*
X008109Y012570D01*
X008121Y012524D01*
X008145Y012484D01*
X008165Y012463D01*
X008139Y012400D01*
X008119Y012434D01*
X008086Y012467D01*
X008045Y012491D01*
X008000Y012503D01*
X007778Y012503D01*
X007778Y011926D01*
X007776Y012044D02*
X007778Y012044D01*
X007776Y012200D02*
X007778Y012200D01*
X007776Y012356D02*
X007778Y012356D01*
X007776Y012512D02*
X008128Y012512D01*
X008109Y012668D02*
X007953Y012668D01*
X007953Y012824D02*
X008109Y012824D01*
X008425Y012980D02*
X008524Y012980D01*
X008524Y013136D02*
X008681Y013136D01*
X008681Y013027D02*
X009096Y013027D01*
X009096Y013326D01*
X009084Y013371D01*
X009078Y013381D01*
X009084Y013391D01*
X009096Y013436D01*
X009096Y013735D01*
X008681Y013735D01*
X008681Y013893D01*
X009096Y013893D01*
X009096Y014109D01*
X009114Y014109D01*
X009114Y013405D01*
X009124Y013381D01*
X009114Y013357D01*
X009114Y012539D01*
X009124Y012515D01*
X009086Y012515D01*
X009081Y012519D01*
X009084Y012524D01*
X009096Y012570D01*
X009096Y012869D01*
X008681Y012869D01*
X008681Y013027D01*
X008681Y012980D02*
X009114Y012980D01*
X009114Y012824D02*
X009096Y012824D01*
X009096Y012668D02*
X009114Y012668D01*
X009096Y013136D02*
X009114Y013136D01*
X009114Y013292D02*
X009096Y013292D01*
X009096Y013448D02*
X009114Y013448D01*
X009114Y013604D02*
X009096Y013604D01*
X009114Y013760D02*
X008681Y013760D01*
X008681Y013604D02*
X008524Y013604D01*
X008524Y013448D02*
X008681Y013448D01*
X008681Y013292D02*
X008524Y013292D01*
X009096Y013916D02*
X009114Y013916D01*
X009114Y014072D02*
X009096Y014072D01*
X009303Y015113D02*
X009272Y015144D01*
X009803Y015684D02*
X009784Y015704D01*
X006122Y015704D01*
X003642Y018184D01*
X006225Y021511D02*
X006221Y021515D01*
X009803Y015684D02*
X009823Y015664D01*
X010118Y015369D01*
X010925Y015369D01*
X010978Y015316D01*
X010978Y014659D01*
X010478Y014659D02*
X010478Y013375D01*
X010984Y012869D01*
X011478Y012773D02*
X010984Y012279D01*
X010984Y011688D02*
X011043Y011688D01*
X011870Y012515D01*
X011870Y015684D01*
X011732Y015822D01*
X010354Y015822D01*
X009980Y016196D01*
X009980Y016275D01*
X009969Y016264D01*
X009980Y016747D02*
X009978Y016749D01*
X009980Y016751D01*
X010335Y017574D02*
X010335Y017633D01*
X010886Y017180D02*
X010886Y018617D01*
X010847Y018656D01*
X010847Y019759D02*
X010768Y019759D01*
X011516Y017659D02*
X012081Y017659D01*
X012067Y017504D02*
X011931Y017504D01*
X011931Y017348D02*
X012067Y017348D01*
X012067Y017192D02*
X011908Y017192D01*
X011771Y017036D02*
X012067Y017036D01*
X012067Y016880D02*
X011771Y016880D01*
X011771Y016724D02*
X012095Y016724D01*
X012126Y016568D02*
X011771Y016568D01*
X011771Y016412D02*
X012157Y016412D01*
X012188Y016256D02*
X011619Y016256D01*
X011475Y016256D02*
X011475Y016256D01*
X011330Y016256D02*
X011304Y016256D01*
X011475Y016412D02*
X011475Y016412D01*
X011475Y016568D02*
X011475Y016568D01*
X011475Y016724D02*
X011475Y016724D01*
X011475Y016880D02*
X011475Y016880D01*
X011475Y017036D02*
X011475Y017036D01*
X011475Y017192D02*
X011475Y017192D01*
X011516Y017348D02*
X011358Y017348D01*
X011358Y017504D02*
X011516Y017504D01*
X011475Y017595D02*
X011437Y017633D01*
X011931Y017815D02*
X012115Y017815D01*
X012241Y016100D02*
X011956Y016100D01*
X012112Y015944D02*
X012305Y015944D01*
X012370Y015788D02*
X012211Y015788D01*
X012225Y015632D02*
X012434Y015632D01*
X012525Y015476D02*
X012225Y015476D01*
X012225Y015320D02*
X012629Y015320D01*
X012733Y015164D02*
X012225Y015164D01*
X012225Y015008D02*
X012840Y015008D01*
X012996Y014852D02*
X012225Y014852D01*
X012225Y014696D02*
X013152Y014696D01*
X013308Y014540D02*
X012225Y014540D01*
X012225Y014384D02*
X013541Y014384D01*
X013775Y014228D02*
X012225Y014228D01*
X012225Y014072D02*
X014093Y014072D01*
X014291Y013916D02*
X012225Y013916D01*
X012225Y013760D02*
X014291Y013760D01*
X014291Y013604D02*
X012225Y013604D01*
X012225Y013448D02*
X014291Y013448D01*
X014291Y013292D02*
X012225Y013292D01*
X012225Y013136D02*
X014291Y013136D01*
X014291Y012980D02*
X012225Y012980D01*
X011478Y012773D02*
X011478Y014659D01*
X010978Y013481D02*
X010980Y013460D01*
X009843Y011905D02*
X009606Y011905D01*
X009587Y011924D01*
X009547Y011884D01*
X009587Y011924D02*
X009705Y012042D01*
X009843Y011905D02*
X010492Y011255D01*
X010492Y010664D01*
X010650Y010507D01*
X010984Y010507D01*
X010327Y010328D02*
X010143Y010328D01*
X006826Y011884D02*
X006811Y011900D01*
X006811Y012298D01*
X005689Y011888D02*
X005532Y011888D01*
X005532Y011732D02*
X005689Y011732D01*
X005689Y011576D02*
X005532Y011576D01*
X005552Y010796D02*
X005669Y010796D01*
X005669Y010640D02*
X005552Y010640D01*
X005552Y010484D02*
X005669Y010484D01*
X005669Y010328D02*
X005552Y010328D01*
X005552Y010172D02*
X005669Y010172D01*
X005669Y010016D02*
X005552Y010016D01*
X003662Y012219D02*
X003662Y012279D01*
X010886Y017180D02*
X010975Y017092D01*
X010975Y016749D01*
D24*
X011475Y016749D02*
X011475Y017595D01*
X011475Y016749D02*
X011475Y016532D01*
X011673Y016334D01*
X011870Y016334D01*
X012343Y015861D01*
X012343Y014759D01*
X014213Y012889D01*
X014213Y011216D01*
X013366Y010369D01*
X012244Y010369D01*
X012185Y010310D01*
X012185Y010802D01*
X011910Y011078D01*
X011004Y011078D01*
X010984Y011097D01*
X012185Y010034D02*
X011398Y009247D01*
X010335Y009247D01*
X009587Y009995D01*
X009587Y010822D01*
X010978Y013481D02*
X010978Y014659D01*
X009980Y016275D02*
X009980Y016747D01*
X009980Y016751D02*
X009980Y017219D01*
X010335Y017574D01*
X009969Y016264D02*
X009272Y016264D01*
X009862Y015113D02*
X009978Y014997D01*
X009978Y014659D01*
X009978Y014088D01*
X009705Y013814D01*
X012185Y010310D02*
X012185Y010034D01*
D25*
X009705Y012042D02*
X009705Y012948D01*
X009705Y013814D01*
X009862Y015113D02*
X009303Y015113D01*
X008603Y013814D02*
X008603Y012948D01*
X008032Y012948D01*
X007835Y012751D01*
X004410Y016176D01*
X003642Y016176D01*
X003937Y012554D02*
X003662Y012279D01*
X003662Y012219D02*
X003248Y011806D01*
X003937Y012554D02*
X005610Y012554D01*
X006555Y012554D01*
X006811Y012298D01*
X007736Y012653D02*
X007736Y011884D01*
X007736Y011038D01*
X007953Y010822D01*
X009410Y010822D01*
X008012Y009424D01*
X007736Y009444D02*
X007225Y009956D01*
X005610Y009956D01*
X005610Y011452D01*
X007736Y012653D02*
X007835Y012751D01*
X008646Y011884D02*
X009547Y011884D01*
X010768Y019759D02*
X010295Y020231D01*
X008268Y020231D01*
X007914Y020586D01*
X006988Y021511D01*
X006225Y021511D01*
M02*
