G75*
G70*
%OFA0B0*%
%FSLAX24Y24*%
%IPPOS*%
%LPD*%
%AMOC8*
5,1,8,0,0,1.08239X$1,22.5*
%
%ADD10C,0.0000*%
%ADD11R,0.1969X0.2047*%
%ADD12OC8,0.0850*%
%ADD13C,0.0120*%
%ADD14C,0.0317*%
%ADD15C,0.0180*%
%ADD16C,0.0150*%
D10*
X000100Y000101D02*
X000100Y007779D01*
X012203Y007779D01*
X012320Y007776D01*
X012437Y007768D01*
X012554Y007754D01*
X012669Y007734D01*
X012784Y007710D01*
X012897Y007679D01*
X013009Y007643D01*
X013119Y007602D01*
X013227Y007556D01*
X013332Y007505D01*
X013435Y007449D01*
X013535Y007388D01*
X013632Y007322D01*
X013726Y007252D01*
X013817Y007177D01*
X013903Y007098D01*
X013986Y007015D01*
X014065Y006929D01*
X014140Y006838D01*
X014210Y006744D01*
X014276Y006647D01*
X014337Y006547D01*
X014393Y006444D01*
X014444Y006339D01*
X014490Y006231D01*
X014531Y006121D01*
X014567Y006009D01*
X014598Y005896D01*
X014622Y005781D01*
X014642Y005666D01*
X014656Y005549D01*
X014664Y005432D01*
X014667Y005315D01*
X014667Y002566D01*
X014664Y002449D01*
X014656Y002332D01*
X014642Y002215D01*
X014622Y002100D01*
X014598Y001985D01*
X014567Y001872D01*
X014531Y001760D01*
X014490Y001650D01*
X014444Y001542D01*
X014393Y001437D01*
X014337Y001334D01*
X014276Y001234D01*
X014210Y001137D01*
X014140Y001043D01*
X014065Y000952D01*
X013986Y000866D01*
X013903Y000783D01*
X013817Y000704D01*
X013726Y000629D01*
X013632Y000559D01*
X013535Y000493D01*
X013435Y000432D01*
X013332Y000376D01*
X013227Y000325D01*
X013119Y000279D01*
X013009Y000238D01*
X012897Y000202D01*
X012784Y000171D01*
X012669Y000147D01*
X012554Y000127D01*
X012437Y000113D01*
X012320Y000105D01*
X012203Y000102D01*
X012203Y000101D02*
X000100Y000101D01*
D11*
X001242Y003960D03*
X005513Y003960D03*
D12*
X000887Y006991D03*
X000887Y000889D03*
X012944Y001873D03*
X012944Y006007D03*
D13*
X006157Y005720D02*
X005073Y005720D01*
X004102Y004749D01*
X004102Y002075D01*
X004102Y002075D01*
D14*
X004102Y002075D03*
X003824Y000505D03*
X004414Y000505D03*
X005005Y000505D03*
X005595Y000505D03*
X006186Y000505D03*
X006776Y000505D03*
X007367Y000505D03*
X009391Y001433D03*
X009785Y001433D03*
X010178Y001433D03*
X010572Y001433D03*
X010966Y001433D03*
X010966Y001827D03*
X010572Y001827D03*
X010178Y001827D03*
X009785Y001827D03*
X009391Y001827D03*
X011162Y002221D03*
X011162Y002614D03*
X012091Y002277D03*
X012091Y001883D03*
X012091Y001489D03*
X011698Y001489D03*
X008753Y003492D03*
X008154Y004048D03*
X007761Y004048D03*
X007367Y004048D03*
X006973Y004048D03*
X006973Y003655D03*
X007367Y003655D03*
X007761Y003655D03*
X007761Y004442D03*
X008154Y004442D03*
X007367Y004442D03*
X006973Y004442D03*
X006157Y005720D03*
X008745Y006411D03*
X009139Y006411D03*
X009532Y006411D03*
X009926Y006411D03*
X010320Y006411D03*
X010713Y006411D03*
X011107Y006411D03*
X006579Y007395D03*
X005989Y007395D03*
X005398Y007395D03*
X004808Y007395D03*
X004217Y007395D03*
X003627Y007395D03*
X003036Y007395D03*
X002446Y007395D03*
X001855Y007395D03*
X003111Y006483D03*
X002717Y006286D03*
X002324Y006286D03*
X001930Y006286D03*
X001930Y005892D03*
X002324Y005892D03*
X002324Y005498D03*
X001930Y005498D03*
X001536Y005498D03*
X001536Y005105D03*
X001930Y005105D03*
X001930Y004711D03*
X001536Y004711D03*
X001536Y005892D03*
X002642Y000505D03*
X003233Y000505D03*
D15*
X001462Y000651D02*
X001126Y000314D01*
X000649Y000314D01*
X000312Y000651D01*
X000312Y001127D01*
X000649Y001464D01*
X001126Y001464D01*
X001462Y001127D01*
X001462Y000651D01*
X001449Y000637D02*
X013406Y000637D01*
X013413Y000640D02*
X012954Y000419D01*
X012457Y000306D01*
X012203Y000291D01*
X000290Y000291D01*
X000290Y002786D01*
X002288Y002786D01*
X002376Y002874D01*
X002376Y004755D01*
X003386Y005764D01*
X003453Y005832D01*
X003490Y005920D01*
X003490Y006881D01*
X003453Y006970D01*
X003433Y006989D01*
X003366Y007057D01*
X003278Y007093D01*
X002769Y007093D01*
X002293Y007093D01*
X002198Y007093D01*
X002110Y007057D01*
X000290Y005237D01*
X000290Y007589D01*
X012203Y007589D01*
X012457Y007574D01*
X012954Y007461D01*
X013413Y007240D01*
X013811Y006923D01*
X014128Y006524D01*
X014349Y006066D01*
X014463Y005569D01*
X014477Y005315D01*
X014477Y002566D01*
X014463Y002311D01*
X014349Y001814D01*
X014128Y001356D01*
X013811Y000958D01*
X013413Y000640D01*
X013633Y000815D02*
X001462Y000815D01*
X001462Y000994D02*
X013840Y000994D01*
X013982Y001172D02*
X011141Y001172D01*
X011140Y001172D02*
X011227Y001259D01*
X011244Y001300D01*
X011555Y001611D01*
X011622Y001678D01*
X011659Y001766D01*
X011659Y002748D01*
X011622Y002836D01*
X011347Y003111D01*
X011279Y003179D01*
X011191Y003215D01*
X006648Y003215D01*
X006648Y005045D01*
X006560Y005133D01*
X004783Y005133D01*
X005160Y005510D01*
X005931Y005510D01*
X005983Y005459D01*
X006096Y005412D01*
X006219Y005412D01*
X006332Y005459D01*
X006419Y005545D01*
X006466Y005659D01*
X006466Y005781D01*
X006419Y005895D01*
X006332Y005982D01*
X006219Y006028D01*
X006096Y006028D01*
X005983Y005982D01*
X005931Y005930D01*
X005160Y005930D01*
X004986Y005930D01*
X004015Y004959D01*
X003892Y004836D01*
X003892Y002301D01*
X003840Y002250D01*
X003793Y002136D01*
X003793Y002014D01*
X003840Y001900D01*
X003927Y001814D01*
X004041Y001767D01*
X004163Y001767D01*
X004277Y001814D01*
X004363Y001900D01*
X004410Y002014D01*
X004410Y002136D01*
X004363Y002250D01*
X004312Y002301D01*
X004312Y004662D01*
X004379Y004729D01*
X004379Y003070D01*
X004368Y003043D01*
X004368Y002396D01*
X004404Y002308D01*
X005408Y001304D01*
X005476Y001237D01*
X005564Y001200D01*
X009188Y001200D01*
X009216Y001172D01*
X009329Y001125D01*
X009452Y001125D01*
X009566Y001172D01*
X009609Y001172D01*
X009610Y001172D02*
X009723Y001125D01*
X009846Y001125D01*
X009959Y001172D01*
X009981Y001194D01*
X010004Y001172D01*
X010117Y001125D01*
X010240Y001125D01*
X010353Y001172D01*
X010375Y001194D01*
X010397Y001172D01*
X010511Y001125D01*
X010633Y001125D01*
X010747Y001172D01*
X010769Y001194D01*
X010791Y001172D01*
X010904Y001125D01*
X011027Y001125D01*
X011140Y001172D01*
X010790Y001172D02*
X010747Y001172D01*
X010397Y001172D02*
X010354Y001172D01*
X010003Y001172D02*
X009960Y001172D01*
X009610Y001172D02*
X009588Y001194D01*
X009566Y001172D01*
X009215Y001172D02*
X001417Y001172D01*
X001238Y001351D02*
X005361Y001351D01*
X005522Y001529D02*
X011134Y001529D01*
X011045Y001440D02*
X005612Y001440D01*
X004608Y002444D01*
X004608Y002995D01*
X004628Y002975D01*
X011143Y002975D01*
X011419Y002700D01*
X011419Y001814D01*
X011045Y001440D01*
X011295Y001351D02*
X014125Y001351D01*
X014212Y001529D02*
X011474Y001529D01*
X011635Y001708D02*
X014298Y001708D01*
X014366Y001886D02*
X011659Y001886D01*
X011419Y001886D02*
X005165Y001886D01*
X005004Y001708D02*
X000290Y001708D01*
X000290Y001886D02*
X003854Y001886D01*
X003793Y002065D02*
X000290Y002065D01*
X000290Y002243D02*
X003838Y002243D01*
X003892Y002422D02*
X000290Y002422D01*
X000290Y002600D02*
X003892Y002600D01*
X003892Y002779D02*
X000290Y002779D01*
X001242Y003960D02*
X001242Y005133D01*
X002324Y006215D01*
X002324Y006286D01*
X001920Y006527D02*
X003250Y006527D01*
X003490Y006527D02*
X012652Y006527D01*
X012706Y006582D02*
X012369Y006245D01*
X012369Y005769D01*
X012706Y005432D01*
X013183Y005432D01*
X013519Y005769D01*
X013519Y006245D01*
X013183Y006582D01*
X012706Y006582D01*
X012473Y006349D02*
X003490Y006349D01*
X003250Y006349D02*
X001741Y006349D01*
X001580Y006527D02*
X000290Y006527D01*
X000290Y006349D02*
X001402Y006349D01*
X001563Y006170D02*
X003250Y006170D01*
X003490Y006170D02*
X012369Y006170D01*
X012369Y005992D02*
X006307Y005992D01*
X006452Y005813D02*
X012369Y005813D01*
X012503Y005635D02*
X006456Y005635D01*
X006327Y005456D02*
X012682Y005456D01*
X013207Y005456D02*
X014469Y005456D01*
X014448Y005635D02*
X013386Y005635D01*
X013519Y005813D02*
X014407Y005813D01*
X014366Y005992D02*
X013519Y005992D01*
X013519Y006170D02*
X014299Y006170D01*
X014213Y006349D02*
X013416Y006349D01*
X013237Y006527D02*
X014126Y006527D01*
X013984Y006706D02*
X003490Y006706D01*
X003250Y006706D02*
X002098Y006706D01*
X002102Y006709D02*
X003250Y006709D01*
X003250Y005968D01*
X001931Y004649D01*
X000533Y004649D01*
X000356Y004826D01*
X000356Y004964D01*
X002102Y006709D01*
X001937Y006884D02*
X000290Y006884D01*
X000290Y007063D02*
X002124Y007063D01*
X001504Y006949D02*
X005690Y006949D01*
X008154Y004485D01*
X008154Y004048D01*
X008196Y004048D01*
X008753Y003492D01*
X011088Y003492D01*
X012448Y002131D01*
X012448Y001928D01*
X012393Y001873D01*
X012944Y001873D01*
X012393Y001873D02*
X012369Y001873D01*
X011659Y002065D02*
X014406Y002065D01*
X014447Y002243D02*
X011659Y002243D01*
X011419Y002243D02*
X004808Y002243D01*
X004647Y002065D02*
X004410Y002065D01*
X004366Y002243D02*
X004469Y002243D01*
X004368Y002422D02*
X004312Y002422D01*
X004312Y002600D02*
X004368Y002600D01*
X004608Y002600D02*
X011419Y002600D01*
X011659Y002600D02*
X014477Y002600D01*
X014469Y002422D02*
X011659Y002422D01*
X011419Y002422D02*
X004630Y002422D01*
X004987Y002065D02*
X011419Y002065D01*
X011313Y001708D02*
X005344Y001708D01*
X005183Y001529D02*
X000290Y001529D01*
X000290Y001351D02*
X000536Y001351D01*
X000358Y001172D02*
X000290Y001172D01*
X000290Y000994D02*
X000312Y000994D01*
X000312Y000815D02*
X000290Y000815D01*
X000290Y000637D02*
X000326Y000637D01*
X000290Y000458D02*
X000505Y000458D01*
X001270Y000458D02*
X013036Y000458D01*
X011646Y002779D02*
X014477Y002779D01*
X014477Y002957D02*
X011501Y002957D01*
X011340Y002779D02*
X004608Y002779D01*
X004608Y002957D02*
X011161Y002957D01*
X011322Y003136D02*
X014477Y003136D01*
X014477Y003314D02*
X006648Y003314D01*
X006648Y003493D02*
X014477Y003493D01*
X014477Y003671D02*
X006648Y003671D01*
X006648Y003850D02*
X014477Y003850D01*
X014477Y004028D02*
X006648Y004028D01*
X006648Y004207D02*
X014477Y004207D01*
X014477Y004385D02*
X006648Y004385D01*
X006648Y004564D02*
X014477Y004564D01*
X014477Y004742D02*
X006648Y004742D01*
X006648Y004921D02*
X014477Y004921D01*
X014477Y005099D02*
X006594Y005099D01*
X005988Y005456D02*
X005106Y005456D01*
X004928Y005278D02*
X014477Y005278D01*
X013841Y006884D02*
X003488Y006884D01*
X003351Y007063D02*
X013635Y007063D01*
X013410Y007241D02*
X000290Y007241D01*
X000290Y007420D02*
X013039Y007420D01*
X006008Y005992D02*
X003490Y005992D01*
X003250Y005992D02*
X001384Y005992D01*
X001206Y005813D02*
X003095Y005813D01*
X003256Y005635D02*
X004691Y005635D01*
X004869Y005813D02*
X003435Y005813D01*
X003078Y005456D02*
X004512Y005456D01*
X004334Y005278D02*
X002899Y005278D01*
X002721Y005099D02*
X004155Y005099D01*
X003977Y004921D02*
X002542Y004921D01*
X002381Y005099D02*
X000492Y005099D01*
X000356Y004921D02*
X002203Y004921D01*
X002376Y004742D02*
X003892Y004742D01*
X003892Y004564D02*
X002376Y004564D01*
X002376Y004385D02*
X003892Y004385D01*
X003892Y004207D02*
X002376Y004207D01*
X002376Y004028D02*
X003892Y004028D01*
X003892Y003850D02*
X002376Y003850D01*
X002376Y003671D02*
X003892Y003671D01*
X003892Y003493D02*
X002376Y003493D01*
X002376Y003314D02*
X003892Y003314D01*
X003892Y003136D02*
X002376Y003136D01*
X002376Y002957D02*
X003892Y002957D01*
X004312Y002957D02*
X004368Y002957D01*
X004368Y002779D02*
X004312Y002779D01*
X004312Y003136D02*
X004379Y003136D01*
X004379Y003314D02*
X004312Y003314D01*
X004312Y003493D02*
X004379Y003493D01*
X004379Y003671D02*
X004312Y003671D01*
X004312Y003850D02*
X004379Y003850D01*
X004379Y004028D02*
X004312Y004028D01*
X004312Y004207D02*
X004379Y004207D01*
X004379Y004385D02*
X004312Y004385D01*
X004312Y004564D02*
X004379Y004564D01*
X002738Y005456D02*
X000849Y005456D01*
X000688Y005635D02*
X000290Y005635D01*
X000290Y005813D02*
X000866Y005813D01*
X001027Y005635D02*
X002917Y005635D01*
X002560Y005278D02*
X000670Y005278D01*
X000331Y005278D02*
X000290Y005278D01*
X000290Y005456D02*
X000509Y005456D01*
X000290Y005992D02*
X001045Y005992D01*
X001223Y006170D02*
X000290Y006170D01*
X000290Y006706D02*
X001759Y006706D01*
X001504Y006949D02*
X001462Y006991D01*
X000887Y006991D01*
X000439Y004742D02*
X002024Y004742D01*
X004350Y001886D02*
X004826Y001886D01*
D16*
X005513Y002801D02*
X005513Y003960D01*
X005513Y002801D02*
X006881Y001433D01*
X010178Y001433D01*
X010178Y001433D01*
M02*
