G75*
G70*
%OFA0B0*%
%FSLAX24Y24*%
%IPPOS*%
%LPD*%
%AMOC8*
5,1,8,0,0,1.08239X$1,22.5*
%
%ADD10C,0.0000*%
%ADD11R,0.0354X0.0276*%
%ADD12R,0.0512X0.0591*%
%ADD13R,0.2165X0.0728*%
%ADD14R,0.0709X0.0630*%
%ADD15R,0.0394X0.0433*%
%ADD16R,0.0276X0.0354*%
%ADD17R,0.0945X0.1102*%
%ADD18R,0.0630X0.0709*%
%ADD19R,0.0236X0.0354*%
%ADD20R,0.0177X0.0413*%
%ADD21R,0.1870X0.1079*%
%ADD22R,0.0138X0.0394*%
%ADD23R,0.0650X0.0157*%
%ADD24R,0.0906X0.0709*%
%ADD25R,0.0394X0.0138*%
%ADD26R,0.0157X0.0650*%
%ADD27R,0.0709X0.0906*%
%ADD28R,0.0610X0.1004*%
%ADD29OC8,0.0850*%
%ADD30C,0.0180*%
%ADD31C,0.0120*%
%ADD32C,0.0317*%
%ADD33C,0.0150*%
%ADD34C,0.0500*%
%ADD35C,0.0860*%
%ADD36C,0.0177*%
D10*
X000100Y000101D02*
X000100Y007779D01*
X012203Y007779D01*
X012320Y007776D01*
X012437Y007768D01*
X012554Y007754D01*
X012669Y007734D01*
X012784Y007710D01*
X012897Y007679D01*
X013009Y007643D01*
X013119Y007602D01*
X013227Y007556D01*
X013332Y007505D01*
X013435Y007449D01*
X013535Y007388D01*
X013632Y007322D01*
X013726Y007252D01*
X013817Y007177D01*
X013903Y007098D01*
X013986Y007015D01*
X014065Y006929D01*
X014140Y006838D01*
X014210Y006744D01*
X014276Y006647D01*
X014337Y006547D01*
X014393Y006444D01*
X014444Y006339D01*
X014490Y006231D01*
X014531Y006121D01*
X014567Y006009D01*
X014598Y005896D01*
X014622Y005781D01*
X014642Y005666D01*
X014656Y005549D01*
X014664Y005432D01*
X014667Y005315D01*
X014667Y002566D01*
X014664Y002449D01*
X014656Y002332D01*
X014642Y002215D01*
X014622Y002100D01*
X014598Y001985D01*
X014567Y001872D01*
X014531Y001760D01*
X014490Y001650D01*
X014444Y001542D01*
X014393Y001437D01*
X014337Y001334D01*
X014276Y001234D01*
X014210Y001137D01*
X014140Y001043D01*
X014065Y000952D01*
X013986Y000866D01*
X013903Y000783D01*
X013817Y000704D01*
X013726Y000629D01*
X013632Y000559D01*
X013535Y000493D01*
X013435Y000432D01*
X013332Y000376D01*
X013227Y000325D01*
X013119Y000279D01*
X013009Y000238D01*
X012897Y000202D01*
X012784Y000171D01*
X012669Y000147D01*
X012554Y000127D01*
X012437Y000113D01*
X012320Y000105D01*
X012203Y000102D01*
X012203Y000101D02*
X000100Y000101D01*
D11*
X004874Y001332D03*
X005385Y001332D03*
X006133Y001312D03*
X006133Y001824D03*
X005385Y001844D03*
X004874Y001844D03*
X004923Y003241D03*
X004431Y003241D03*
X004431Y003753D03*
X004923Y003753D03*
X004923Y004472D03*
X004923Y004983D03*
X004923Y005702D03*
X004431Y005702D03*
X004431Y006214D03*
X004923Y006214D03*
D12*
X005769Y006401D03*
X006439Y006401D03*
D13*
X012944Y004993D03*
X012944Y002985D03*
D14*
X009313Y003485D03*
X009313Y004588D03*
D15*
X009362Y002801D03*
X009362Y002132D03*
D16*
X007354Y001853D03*
X006842Y001853D03*
X006842Y001342D03*
X007354Y001342D03*
X006163Y005761D03*
X005651Y005761D03*
D17*
X003259Y003694D03*
X003259Y002464D03*
X000779Y002464D03*
X000779Y003694D03*
D18*
X007673Y005804D03*
X008775Y005804D03*
D19*
X009903Y003412D03*
X010277Y003412D03*
X010651Y003412D03*
X010651Y002507D03*
X010277Y002507D03*
X009903Y002507D03*
D20*
X008702Y002956D03*
X008446Y002956D03*
X008191Y002956D03*
X007935Y002956D03*
X007679Y002956D03*
X007423Y002956D03*
X007167Y002956D03*
X006911Y002956D03*
X006655Y002956D03*
X006399Y002956D03*
X006143Y002956D03*
X005887Y002956D03*
X005631Y002956D03*
X005376Y002956D03*
X005376Y005141D03*
X005631Y005141D03*
X005887Y005141D03*
X006143Y005141D03*
X006399Y005141D03*
X006655Y005141D03*
X006911Y005141D03*
X007167Y005141D03*
X007423Y005141D03*
X007679Y005141D03*
X007935Y005141D03*
X008191Y005141D03*
X008446Y005141D03*
X008702Y005141D03*
D21*
X007039Y004048D03*
D22*
X007954Y002198D03*
X008210Y002198D03*
X008466Y002198D03*
X008722Y002198D03*
X008722Y000899D03*
X008466Y000899D03*
X008210Y000899D03*
X007954Y000899D03*
D23*
X008466Y002040D03*
D24*
X008338Y001375D03*
D25*
X009500Y005288D03*
X009500Y005544D03*
X009500Y005800D03*
X009500Y006056D03*
X010799Y006056D03*
X010799Y005800D03*
X010799Y005544D03*
X010799Y005288D03*
D26*
X009657Y005800D03*
D27*
X010322Y005672D03*
D28*
X003860Y004905D03*
X003053Y004905D03*
X003053Y006460D03*
X003860Y006460D03*
D29*
X000887Y006991D03*
X000887Y000889D03*
X012944Y001873D03*
X012944Y006007D03*
D30*
X012944Y005432D01*
X012944Y004993D01*
X012944Y004479D01*
X013137Y004479D01*
X014177Y003439D01*
X014177Y002383D01*
X014194Y002422D02*
X014469Y002422D01*
X014463Y002311D02*
X014349Y001814D01*
X014128Y001356D01*
X013811Y000958D01*
X013413Y000640D01*
X012954Y000419D01*
X012457Y000306D01*
X012203Y000291D01*
X007935Y000291D01*
X007935Y001243D01*
X008072Y001105D01*
X012974Y001105D01*
X012974Y001086D01*
X013171Y001279D01*
X013190Y001279D01*
X013538Y001627D01*
X013538Y001641D01*
X014194Y002286D01*
X014194Y002550D01*
X014196Y002551D01*
X014196Y003419D01*
X014194Y003421D01*
X014194Y003428D01*
X014017Y003605D01*
X011931Y003605D01*
X011931Y006224D01*
X011281Y006873D01*
X008387Y006873D01*
X008191Y006676D01*
X008191Y005554D01*
X007423Y005554D01*
X007423Y007582D01*
X012325Y007582D01*
X012457Y007574D01*
X012954Y007461D01*
X013413Y007240D01*
X013811Y006923D01*
X014128Y006524D01*
X014349Y006066D01*
X014463Y005569D01*
X014477Y005315D01*
X014477Y002566D01*
X014463Y002311D01*
X014447Y002243D02*
X014151Y002243D01*
X014106Y002212D02*
X012707Y000812D01*
X008722Y000812D01*
X008722Y000899D01*
X008722Y000812D02*
X008722Y000648D01*
X008626Y000552D01*
X008466Y000552D01*
X008466Y000725D01*
X008466Y000899D01*
X008338Y000871D02*
X008338Y000853D01*
X008466Y000725D01*
X008338Y000871D02*
X008269Y000871D01*
X008210Y000812D01*
X008210Y000899D01*
X008210Y000812D02*
X008210Y000725D01*
X008210Y000639D01*
X008124Y000552D01*
X007954Y000552D01*
X007954Y000899D01*
X007935Y000815D02*
X013633Y000815D01*
X013840Y000994D02*
X007935Y000994D01*
X007935Y001172D02*
X008005Y001172D01*
X007656Y001172D02*
X007168Y001172D01*
X007168Y001086D02*
X007168Y001597D01*
X007168Y001598D01*
X007168Y002109D01*
X007121Y002156D01*
X007121Y002236D01*
X007078Y002338D01*
X006934Y002483D01*
X006934Y002561D01*
X007334Y002561D01*
X007423Y002650D01*
X007512Y002561D01*
X007672Y002561D01*
X007691Y002514D01*
X007691Y002146D01*
X007697Y002131D01*
X007697Y001923D01*
X007755Y001865D01*
X007697Y001807D01*
X007697Y001397D01*
X007656Y001299D01*
X007656Y000291D01*
X001636Y000291D01*
X001813Y000365D01*
X001987Y000539D01*
X002592Y001144D01*
X003258Y001144D01*
X003318Y001083D01*
X003442Y000960D01*
X003603Y000893D01*
X004961Y000893D01*
X005122Y000960D01*
X005245Y001083D01*
X005312Y001245D01*
X005312Y001419D01*
X005271Y001517D01*
X005641Y001517D01*
X005751Y001628D01*
X005751Y002059D01*
X005641Y002170D01*
X005634Y002170D01*
X005634Y002561D01*
X005865Y002561D01*
X005865Y002191D01*
X005855Y002167D01*
X005855Y002127D01*
X005768Y002040D01*
X005768Y001608D01*
X005808Y001568D01*
X005768Y001528D01*
X005768Y001096D01*
X005878Y000986D01*
X006389Y000986D01*
X006466Y001064D01*
X006539Y001064D01*
X006626Y000976D01*
X007058Y000976D01*
X007168Y001086D01*
X007076Y000994D02*
X007656Y000994D01*
X007656Y000815D02*
X002264Y000815D01*
X002085Y000637D02*
X007656Y000637D01*
X007935Y000637D02*
X013406Y000637D01*
X013036Y000458D02*
X007935Y000458D01*
X007656Y000458D02*
X001907Y000458D01*
X002442Y000994D02*
X003408Y000994D01*
X004650Y000308D02*
X005385Y001044D01*
X005385Y001332D01*
X005312Y001351D02*
X005768Y001351D01*
X005769Y001529D02*
X005653Y001529D01*
X005751Y001708D02*
X005768Y001708D01*
X005751Y001886D02*
X005768Y001886D01*
X006133Y001824D02*
X006133Y002112D01*
X006143Y002122D01*
X006143Y002599D01*
X006143Y002956D01*
X005887Y002956D02*
X005887Y003079D01*
X005631Y002956D02*
X005631Y003248D01*
X005567Y003313D01*
X004994Y003313D01*
X004923Y003241D01*
X004758Y003241D01*
X004431Y003241D01*
X004431Y003753D02*
X004431Y004041D01*
X003860Y004612D01*
X003860Y004905D01*
X004709Y004657D02*
X004709Y004551D01*
X005062Y004199D01*
X005159Y004102D01*
X005168Y004079D01*
X005178Y004079D01*
X005226Y004031D01*
X005642Y004031D01*
X005744Y003989D01*
X006044Y003689D01*
X006122Y003611D01*
X006164Y003509D01*
X006164Y003351D01*
X006907Y003351D01*
X006931Y003409D01*
X006992Y003470D01*
X007071Y003549D01*
X007173Y003591D01*
X007929Y003591D01*
X008435Y004096D01*
X008435Y004472D01*
X008353Y004554D01*
X008346Y004558D01*
X008314Y004593D01*
X008281Y004626D01*
X008277Y004634D01*
X008244Y004672D01*
X008210Y004705D01*
X008207Y004713D01*
X008202Y004719D01*
X008192Y004746D01*
X007894Y004746D01*
X007889Y004734D01*
X007759Y004603D01*
X007668Y004566D01*
X006417Y004566D01*
X006325Y004603D01*
X006258Y004670D01*
X006258Y004670D01*
X006189Y004740D01*
X006186Y004746D01*
X005977Y004746D01*
X005887Y004835D01*
X005880Y004828D01*
X005880Y004824D01*
X005842Y004733D01*
X005783Y004673D01*
X005713Y004603D01*
X005621Y004566D01*
X005043Y004566D01*
X004951Y004603D01*
X004898Y004657D01*
X004709Y004657D01*
X004709Y004564D02*
X008340Y004564D01*
X008435Y004385D02*
X004875Y004385D01*
X004923Y004472D02*
X005250Y004472D01*
X005887Y004472D01*
X005887Y004115D01*
X005954Y004048D01*
X007039Y004048D01*
X008124Y004048D01*
X008154Y004048D01*
X008367Y004028D02*
X005649Y004028D01*
X005883Y003850D02*
X008188Y003850D01*
X008010Y003671D02*
X006061Y003671D01*
X006164Y003493D02*
X007015Y003493D01*
X007228Y003313D02*
X008044Y003313D01*
X008713Y003981D01*
X008713Y004588D01*
X008517Y004784D01*
X008446Y004863D01*
X008446Y005141D01*
X008191Y005141D02*
X008191Y005498D01*
X007968Y005498D01*
X007968Y005804D01*
X008138Y005804D01*
X008138Y006985D01*
X008345Y007193D01*
X011720Y007193D01*
X012589Y006323D01*
X012589Y006126D01*
X012814Y005958D01*
X012944Y006007D01*
X012814Y005958D02*
X012714Y005958D01*
X011931Y005992D02*
X014366Y005992D01*
X014407Y005813D02*
X011931Y005813D01*
X011931Y005635D02*
X014448Y005635D01*
X014469Y005456D02*
X011931Y005456D01*
X011652Y005456D02*
X011577Y005456D01*
X011577Y005635D02*
X011652Y005635D01*
X011652Y005813D02*
X011577Y005813D01*
X011577Y005992D02*
X011652Y005992D01*
X011577Y006025D02*
X011535Y006127D01*
X011458Y006204D01*
X011380Y006282D01*
X011277Y006325D01*
X010005Y006325D01*
X009978Y006314D01*
X009890Y006314D01*
X009780Y006203D01*
X009780Y005541D01*
X009775Y005546D01*
X009567Y005546D01*
X009552Y005552D01*
X009115Y005552D01*
X009018Y005512D01*
X008956Y005449D01*
X008869Y005536D01*
X008469Y005536D01*
X008469Y006561D01*
X008503Y006595D01*
X011166Y006595D01*
X011652Y006108D01*
X011652Y003550D01*
X011695Y003448D01*
X011773Y003369D01*
X011875Y003327D01*
X013896Y003327D01*
X013899Y003324D01*
X013899Y002398D01*
X013870Y002370D01*
X013870Y002370D01*
X013171Y001670D01*
X012880Y001384D01*
X011382Y001384D01*
X011456Y001458D01*
X011535Y001536D01*
X011577Y001638D01*
X011577Y006025D01*
X011590Y006170D02*
X011492Y006170D01*
X011411Y006349D02*
X008469Y006349D01*
X008469Y006527D02*
X011233Y006527D01*
X011448Y006706D02*
X013984Y006706D01*
X014126Y006527D02*
X011627Y006527D01*
X011805Y006349D02*
X014213Y006349D01*
X014299Y006170D02*
X011931Y006170D01*
X011299Y005970D02*
X011299Y001694D01*
X011045Y001440D01*
X009057Y001440D01*
X009057Y001853D01*
X008899Y002011D01*
X008230Y002011D01*
X008230Y002149D01*
X010828Y002149D01*
X010986Y002306D01*
X010986Y003763D01*
X010061Y004688D01*
X010061Y006046D01*
X011222Y006046D01*
X011299Y005970D01*
X011276Y005992D02*
X010061Y005992D01*
X010061Y005813D02*
X011299Y005813D01*
X011299Y005635D02*
X010061Y005635D01*
X010061Y005456D02*
X011299Y005456D01*
X011299Y005278D02*
X010061Y005278D01*
X010061Y005099D02*
X011299Y005099D01*
X011299Y004921D02*
X010061Y004921D01*
X010061Y004742D02*
X011299Y004742D01*
X011577Y004742D02*
X011652Y004742D01*
X011652Y004921D02*
X011577Y004921D01*
X011577Y005099D02*
X011652Y005099D01*
X011652Y005278D02*
X011577Y005278D01*
X011931Y005278D02*
X014477Y005278D01*
X014477Y005099D02*
X011931Y005099D01*
X011931Y004921D02*
X014477Y004921D01*
X014477Y004742D02*
X011931Y004742D01*
X011931Y004564D02*
X014477Y004564D01*
X014477Y004385D02*
X011931Y004385D01*
X011931Y004207D02*
X014477Y004207D01*
X014477Y004028D02*
X011931Y004028D01*
X011931Y003850D02*
X014477Y003850D01*
X014477Y003671D02*
X011931Y003671D01*
X011652Y003671D02*
X011577Y003671D01*
X011577Y003493D02*
X011676Y003493D01*
X011577Y003314D02*
X013899Y003314D01*
X013899Y003136D02*
X011577Y003136D01*
X011577Y002957D02*
X013899Y002957D01*
X013899Y002779D02*
X011577Y002779D01*
X011299Y002779D02*
X010986Y002779D01*
X010986Y002957D02*
X011299Y002957D01*
X011299Y003136D02*
X010986Y003136D01*
X010986Y003314D02*
X011299Y003314D01*
X011299Y003493D02*
X010986Y003493D01*
X010986Y003671D02*
X011299Y003671D01*
X011299Y003850D02*
X010899Y003850D01*
X010651Y003740D02*
X010651Y003412D01*
X010651Y002507D01*
X010986Y002422D02*
X011299Y002422D01*
X011299Y002600D02*
X010986Y002600D01*
X010923Y002243D02*
X011299Y002243D01*
X011299Y002065D02*
X008230Y002065D01*
X007734Y001886D02*
X007168Y001886D01*
X007354Y001853D02*
X007354Y002181D01*
X007354Y002530D01*
X007423Y002599D01*
X007423Y002956D01*
X007167Y002956D02*
X007167Y003251D01*
X007228Y003313D01*
X006655Y002956D02*
X006655Y002368D01*
X006842Y002181D01*
X006842Y001853D01*
X007168Y001708D02*
X007697Y001708D01*
X007697Y001529D02*
X007168Y001529D01*
X007168Y001598D02*
X007168Y001598D01*
X007168Y001351D02*
X007678Y001351D01*
X007354Y001342D02*
X007354Y001853D01*
X007168Y002065D02*
X007697Y002065D01*
X007691Y002243D02*
X007117Y002243D01*
X006995Y002422D02*
X007691Y002422D01*
X007472Y002600D02*
X007373Y002600D01*
X008446Y002599D02*
X008863Y002599D01*
X009015Y002751D01*
X009015Y002801D01*
X009362Y002801D01*
X009709Y002801D01*
X009839Y002671D01*
X009903Y002671D01*
X009903Y002589D01*
X009903Y002507D01*
X009903Y002589D02*
X009903Y002647D01*
X010090Y002834D01*
X010090Y003412D01*
X009903Y003412D01*
X010090Y003412D02*
X010277Y003412D01*
X010219Y003778D02*
X010099Y003778D01*
X009707Y003778D01*
X009597Y003668D01*
X009597Y003206D01*
X009087Y003206D01*
X008977Y003096D01*
X008977Y003079D01*
X008960Y003079D01*
X008857Y003037D01*
X008779Y002959D01*
X008745Y002877D01*
X008725Y002877D01*
X008725Y003011D01*
X008723Y003015D01*
X008723Y003241D01*
X008613Y003351D01*
X008477Y003351D01*
X008949Y003823D01*
X008991Y003926D01*
X008991Y004084D01*
X009745Y004084D01*
X009829Y004168D01*
X010219Y003778D01*
X010147Y003850D02*
X008960Y003850D01*
X008991Y004028D02*
X009969Y004028D01*
X009600Y003671D02*
X008797Y003671D01*
X008802Y003492D02*
X008753Y003492D01*
X008802Y003492D02*
X008808Y003485D01*
X008808Y003418D01*
X008702Y003313D01*
X008702Y002956D01*
X008725Y002957D02*
X008778Y002957D01*
X008723Y003136D02*
X009017Y003136D01*
X008650Y003314D02*
X009597Y003314D01*
X009597Y003493D02*
X008619Y003493D01*
X008808Y003485D02*
X009313Y003485D01*
X008446Y002956D02*
X008446Y002599D01*
X009024Y001886D02*
X011299Y001886D01*
X011299Y001708D02*
X009057Y001708D01*
X009057Y001529D02*
X011134Y001529D01*
X011528Y001529D02*
X013028Y001529D01*
X013209Y001708D02*
X011577Y001708D01*
X011577Y001886D02*
X013387Y001886D01*
X013606Y001708D02*
X014298Y001708D01*
X014366Y001886D02*
X013788Y001886D01*
X013969Y002065D02*
X014406Y002065D01*
X014107Y002212D02*
X014125Y002232D01*
X014141Y002254D01*
X014154Y002278D01*
X014164Y002303D01*
X014172Y002329D01*
X014176Y002356D01*
X014178Y002383D01*
X014196Y002600D02*
X014477Y002600D01*
X014477Y002779D02*
X014196Y002779D01*
X014196Y002957D02*
X014477Y002957D01*
X014477Y003136D02*
X014196Y003136D01*
X014196Y003314D02*
X014477Y003314D01*
X014477Y003493D02*
X014130Y003493D01*
X012895Y003155D02*
X012944Y002985D01*
X012944Y001873D01*
X013441Y001529D02*
X014212Y001529D01*
X014125Y001351D02*
X013262Y001351D01*
X013062Y001172D02*
X013982Y001172D01*
X013566Y002065D02*
X011577Y002065D01*
X011577Y002243D02*
X013744Y002243D01*
X013899Y002422D02*
X011577Y002422D01*
X011577Y002600D02*
X013899Y002600D01*
X012895Y003155D02*
X012210Y003007D01*
X011652Y003850D02*
X011577Y003850D01*
X011577Y004028D02*
X011652Y004028D01*
X011299Y004028D02*
X010720Y004028D01*
X010542Y004207D02*
X011299Y004207D01*
X011299Y004385D02*
X010363Y004385D01*
X010185Y004564D02*
X011299Y004564D01*
X011577Y004564D02*
X011652Y004564D01*
X011652Y004385D02*
X011577Y004385D01*
X011577Y004207D02*
X011652Y004207D01*
X010651Y003740D02*
X009817Y004574D01*
X009817Y004588D01*
X009313Y004588D01*
X008808Y004588D01*
X008713Y004588D01*
X008194Y004742D02*
X007893Y004742D01*
X007935Y005141D02*
X007935Y005498D01*
X007968Y005498D01*
X008191Y005635D02*
X007423Y005635D01*
X007423Y005554D02*
X007423Y005141D01*
X007167Y005141D01*
X007144Y005536D02*
X006749Y005536D01*
X006749Y005917D01*
X006773Y005917D01*
X006883Y006027D01*
X006883Y006774D01*
X006773Y006884D01*
X006649Y006884D01*
X006649Y006885D01*
X006579Y006955D01*
X006507Y007027D01*
X006416Y007064D01*
X005398Y007064D01*
X005307Y007027D01*
X004861Y006580D01*
X004844Y006540D01*
X004353Y006540D01*
X004353Y007040D01*
X004243Y007150D01*
X003477Y007150D01*
X003456Y007130D01*
X003436Y007150D01*
X002903Y007150D01*
X002852Y007171D01*
X001659Y007171D01*
X001556Y007129D01*
X001005Y006578D01*
X000927Y006499D01*
X000885Y006397D01*
X000885Y004554D01*
X000927Y004452D01*
X001281Y004097D01*
X001360Y004019D01*
X001462Y003977D01*
X002577Y003977D01*
X002599Y003986D01*
X002599Y002381D01*
X002213Y002381D01*
X001986Y002287D01*
X001812Y002113D01*
X001206Y001507D01*
X000764Y001507D01*
X000752Y001502D01*
X000633Y001502D01*
X000549Y001418D01*
X000537Y001413D01*
X000363Y001239D01*
X000358Y001227D01*
X000290Y001159D01*
X000290Y007589D01*
X007144Y007589D01*
X007144Y005536D01*
X007144Y005635D02*
X006749Y005635D01*
X006749Y005813D02*
X007144Y005813D01*
X007144Y005992D02*
X006848Y005992D01*
X006883Y006170D02*
X007144Y006170D01*
X007144Y006349D02*
X006883Y006349D01*
X006883Y006527D02*
X007144Y006527D01*
X007144Y006706D02*
X006883Y006706D01*
X006649Y006884D02*
X007144Y006884D01*
X007144Y007063D02*
X006419Y007063D01*
X007144Y007241D02*
X000290Y007241D01*
X000290Y007063D02*
X001491Y007063D01*
X001312Y006884D02*
X000290Y006884D01*
X000290Y006706D02*
X001134Y006706D01*
X000955Y006527D02*
X000290Y006527D01*
X000290Y006349D02*
X000885Y006349D01*
X000885Y006170D02*
X000290Y006170D01*
X000290Y005992D02*
X000885Y005992D01*
X000885Y005813D02*
X000290Y005813D01*
X000290Y005635D02*
X000885Y005635D01*
X000885Y005456D02*
X000290Y005456D01*
X000290Y005278D02*
X000885Y005278D01*
X000885Y005099D02*
X000290Y005099D01*
X000290Y004921D02*
X000885Y004921D01*
X000885Y004742D02*
X000290Y004742D01*
X000290Y004564D02*
X000885Y004564D01*
X000993Y004385D02*
X000290Y004385D01*
X000290Y004207D02*
X001172Y004207D01*
X000887Y004149D02*
X000779Y004041D01*
X000779Y003694D01*
X000779Y002464D01*
X000779Y001762D01*
X000299Y001283D01*
X000299Y000578D01*
X000569Y000308D01*
X004650Y000308D01*
X005156Y000994D02*
X005870Y000994D01*
X005768Y001172D02*
X005282Y001172D01*
X005385Y001044D02*
X005415Y001014D01*
X007354Y001014D01*
X007354Y001342D01*
X006608Y000994D02*
X006397Y000994D01*
X008338Y000871D02*
X008338Y001375D01*
X010277Y002507D02*
X010277Y002834D01*
X010090Y002834D01*
X008435Y004207D02*
X005053Y004207D01*
X004826Y004041D02*
X004431Y004436D01*
X004431Y005702D01*
X004431Y006214D02*
X004104Y006214D01*
X004104Y006216D01*
X003860Y006460D01*
X004353Y006706D02*
X004987Y006706D01*
X005165Y006884D02*
X004353Y006884D01*
X004330Y007063D02*
X005395Y007063D01*
X005551Y006568D02*
X005994Y006568D01*
X005994Y006126D01*
X005947Y006126D01*
X005837Y006016D01*
X005837Y005853D01*
X005810Y005789D01*
X005810Y005651D01*
X005837Y005588D01*
X005837Y005506D01*
X005892Y005451D01*
X005887Y005447D01*
X005798Y005536D01*
X005616Y005536D01*
X005586Y005608D01*
X005508Y005687D01*
X005508Y006143D01*
X005470Y006235D01*
X005400Y006305D01*
X005344Y006361D01*
X005551Y006568D01*
X005511Y006527D02*
X005994Y006527D01*
X005769Y006401D02*
X005769Y005955D01*
X005651Y005837D01*
X005651Y005761D01*
X005651Y005734D01*
X005887Y005498D01*
X005887Y005141D01*
X005887Y004472D01*
X005846Y004742D02*
X006188Y004742D01*
X005886Y005456D02*
X005878Y005456D01*
X005817Y005635D02*
X005560Y005635D01*
X005508Y005813D02*
X005821Y005813D01*
X005837Y005992D02*
X005508Y005992D01*
X005497Y006170D02*
X005994Y006170D01*
X005994Y006349D02*
X005356Y006349D01*
X007144Y007420D02*
X000290Y007420D01*
X000887Y006991D02*
X000887Y004149D01*
X001350Y004028D02*
X000290Y004028D01*
X000290Y003850D02*
X002599Y003850D01*
X002599Y003671D02*
X000290Y003671D01*
X000290Y003493D02*
X002599Y003493D01*
X002599Y003314D02*
X000290Y003314D01*
X000290Y003136D02*
X002599Y003136D01*
X002599Y002957D02*
X000290Y002957D01*
X000290Y002779D02*
X002599Y002779D01*
X002599Y002600D02*
X000290Y002600D01*
X000290Y002422D02*
X002599Y002422D01*
X001942Y002243D02*
X000290Y002243D01*
X000290Y002065D02*
X001764Y002065D01*
X001585Y001886D02*
X000290Y001886D01*
X000290Y001708D02*
X001407Y001708D01*
X001228Y001529D02*
X000290Y001529D01*
X000290Y001351D02*
X000475Y001351D01*
X000303Y001172D02*
X000290Y001172D01*
X000290Y000619D02*
X000358Y000551D01*
X000363Y000539D01*
X000537Y000365D01*
X000549Y000360D01*
X000617Y000291D01*
X000290Y000291D01*
X000290Y000619D01*
X000290Y000458D02*
X000443Y000458D01*
X005634Y002243D02*
X005865Y002243D01*
X005865Y002422D02*
X005634Y002422D01*
X005745Y002065D02*
X005793Y002065D01*
X005886Y003280D02*
X005886Y003453D01*
X005586Y003753D01*
X005250Y003753D01*
X004923Y003753D01*
X004923Y003944D01*
X004826Y004041D01*
X003259Y004046D02*
X003259Y003694D01*
X002561Y004294D02*
X002521Y004255D01*
X001517Y004255D01*
X001163Y004609D01*
X001163Y006342D01*
X001714Y006893D01*
X002797Y006893D01*
X002797Y005987D01*
X002561Y005751D01*
X002561Y004294D01*
X002561Y004385D02*
X001387Y004385D01*
X001208Y004564D02*
X002561Y004564D01*
X002561Y004742D02*
X001163Y004742D01*
X001163Y004921D02*
X002561Y004921D01*
X002561Y005099D02*
X001163Y005099D01*
X001163Y005278D02*
X002561Y005278D01*
X002561Y005456D02*
X001163Y005456D01*
X001163Y005635D02*
X002561Y005635D01*
X002623Y005813D02*
X001163Y005813D01*
X001163Y005992D02*
X002797Y005992D01*
X002797Y006170D02*
X001163Y006170D01*
X001170Y006349D02*
X002797Y006349D01*
X002671Y006339D02*
X002324Y006155D01*
X002324Y006286D01*
X002324Y006286D01*
X002671Y006339D02*
X003053Y006339D01*
X003053Y006460D01*
X002797Y006527D02*
X001349Y006527D01*
X001527Y006706D02*
X002797Y006706D01*
X002797Y006884D02*
X001706Y006884D01*
X007423Y006884D02*
X013841Y006884D01*
X013635Y007063D02*
X007423Y007063D01*
X007423Y007241D02*
X013410Y007241D01*
X013039Y007420D02*
X007423Y007420D01*
X007423Y006706D02*
X008220Y006706D01*
X008191Y006527D02*
X007423Y006527D01*
X007423Y006349D02*
X008191Y006349D01*
X008191Y006170D02*
X007423Y006170D01*
X007423Y005992D02*
X008191Y005992D01*
X008191Y005813D02*
X007423Y005813D01*
X007673Y005804D02*
X007423Y005554D01*
X007673Y005804D02*
X007968Y005804D01*
X008469Y005813D02*
X009780Y005813D01*
X009657Y005800D02*
X009500Y005800D01*
X009500Y005804D01*
X009240Y005804D01*
X008775Y005804D01*
X008469Y005635D02*
X009780Y005635D01*
X009500Y005544D02*
X009500Y005800D01*
X009500Y005804D02*
X009500Y006056D01*
X009780Y005992D02*
X008469Y005992D01*
X008469Y006170D02*
X009780Y006170D01*
X008963Y005456D02*
X008948Y005456D01*
D31*
X007679Y005141D02*
X007679Y004874D01*
X007619Y004814D01*
X006466Y004814D01*
X006399Y004881D01*
X006399Y005141D01*
X006399Y005403D01*
X006464Y005468D01*
X006500Y005504D01*
X006500Y005887D01*
X006439Y005949D01*
X006439Y006401D01*
X006439Y006744D01*
X006367Y006816D01*
X005448Y006816D01*
X005071Y006440D01*
X005071Y006214D01*
X004923Y006214D01*
X005071Y006214D02*
X005140Y006214D01*
X005259Y006094D01*
X005259Y005584D01*
X005376Y005468D01*
X005376Y005141D01*
X005631Y005141D02*
X005631Y004874D01*
X005572Y004814D01*
X005092Y004814D01*
X004923Y004983D01*
X004923Y005444D01*
X004923Y005702D01*
X006157Y005720D02*
X006163Y005720D01*
X006163Y005761D01*
X006163Y005720D02*
X006163Y005487D01*
X006143Y005468D01*
X006143Y005141D01*
X005376Y002956D02*
X005376Y002629D01*
X005385Y002619D01*
X005385Y001844D01*
X004874Y001844D02*
X004333Y001844D01*
X004102Y002075D01*
X006133Y001312D02*
X006555Y001312D01*
X006584Y001342D01*
X006842Y001342D01*
D32*
X006776Y000505D03*
X006186Y000505D03*
X005595Y000505D03*
X005005Y000505D03*
X004414Y000505D03*
X003824Y000505D03*
X003233Y000505D03*
X002642Y000505D03*
X004102Y002075D03*
X006973Y003655D03*
X007367Y003655D03*
X007761Y003655D03*
X007761Y004048D03*
X008154Y004048D03*
X008154Y004442D03*
X007761Y004442D03*
X007367Y004442D03*
X006973Y004442D03*
X006973Y004048D03*
X007367Y004048D03*
X008753Y003492D03*
X011162Y002614D03*
X011162Y002221D03*
X010966Y001827D03*
X010572Y001827D03*
X010178Y001827D03*
X009785Y001827D03*
X009391Y001827D03*
X009391Y001433D03*
X009785Y001433D03*
X010178Y001433D03*
X010572Y001433D03*
X010966Y001433D03*
X011698Y001489D03*
X012091Y001489D03*
X012091Y001883D03*
X012091Y002277D03*
X007367Y000505D03*
X001930Y004711D03*
X001536Y004711D03*
X001536Y005105D03*
X001930Y005105D03*
X001930Y005498D03*
X002324Y005498D03*
X002324Y005892D03*
X001930Y005892D03*
X001536Y005892D03*
X001536Y005498D03*
X001930Y006286D03*
X002324Y006286D03*
X002717Y006286D03*
X003111Y006483D03*
X003036Y007395D03*
X002446Y007395D03*
X001855Y007395D03*
X003627Y007395D03*
X004217Y007395D03*
X004808Y007395D03*
X005398Y007395D03*
X005989Y007395D03*
X006579Y007395D03*
X008745Y006411D03*
X009139Y006411D03*
X009532Y006411D03*
X009926Y006411D03*
X010320Y006411D03*
X010713Y006411D03*
X011107Y006411D03*
X006157Y005720D03*
D33*
X008702Y005141D02*
X009020Y005141D01*
X009168Y005288D01*
X009500Y005288D01*
X010322Y005672D02*
X010339Y005672D01*
X010467Y005800D01*
X010799Y005800D01*
X010799Y006056D01*
X010339Y005672D02*
X010467Y005544D01*
X010633Y005544D01*
X010799Y005544D01*
X010633Y005544D02*
X010597Y005544D01*
X010467Y005415D01*
X010467Y005288D01*
X010799Y005288D01*
X011131Y005288D01*
X011131Y002480D01*
X010783Y002132D01*
X010178Y002132D01*
X010178Y001433D01*
X010178Y002132D02*
X009362Y002132D01*
X008722Y002132D01*
X008722Y002198D01*
X008722Y002132D02*
X008722Y002032D01*
X008475Y002032D01*
X008466Y002040D01*
X008466Y002198D01*
X008466Y002040D02*
X008325Y002037D01*
X008210Y002037D01*
X008210Y002198D01*
X008210Y002530D01*
X008191Y002549D01*
X008191Y002956D01*
X007935Y002956D02*
X007935Y002614D01*
X007954Y002594D01*
X007954Y002198D01*
D34*
X004874Y001332D02*
X003690Y001332D01*
X003259Y001762D01*
X003259Y002464D02*
X003259Y003694D01*
X003259Y004046D02*
X003053Y004253D01*
X003053Y004905D01*
D35*
X003259Y002464D02*
X003259Y001762D01*
X002336Y001762D01*
X001462Y000889D01*
X000887Y000889D01*
D36*
X005887Y003079D02*
X005886Y003097D01*
X005886Y003280D01*
M02*
