%
M48
M72
T01C0.0197
T02C0.0400
%
T01
X2642Y505
X3233Y505
X3824Y505
X4414Y505
X5005Y505
X5595Y505
X6186Y505
X6776Y505
X7367Y505
X9391Y1433
X9785Y1433
X10178Y1433
X10572Y1433
X10966Y1433
X10966Y1827
X10572Y1827
X10178Y1827
X9785Y1827
X9391Y1827
X11162Y2221
X11162Y2614
X12091Y2277
X12091Y1883
X12091Y1489
X11698Y1489
X8753Y3492
X8154Y4048
X7761Y4048
X7367Y4048
X6973Y4048
X6973Y3655
X7367Y3655
X7761Y3655
X7761Y4442
X8154Y4442
X7367Y4442
X6973Y4442
X6157Y5720
X8745Y6411
X9139Y6411
X9532Y6411
X9926Y6411
X10320Y6411
X10713Y6411
X11107Y6411
X6579Y7395
X5989Y7395
X5398Y7395
X4808Y7395
X4217Y7395
X3627Y7395
X3036Y7395
X2446Y7395
X1855Y7395
X3111Y6483
X2717Y6286
X2324Y6286
X1930Y6286
X1930Y5892
X2324Y5892
X2324Y5498
X1930Y5498
X1536Y5498
X1536Y5105
X1930Y5105
X1930Y4711
X1536Y4711
X1536Y5892
X4102Y2075
T02
X887Y889
X887Y6991
X12944Y6007
X12944Y1873
M30
