G75*
G70*
%OFA0B0*%
%FSLAX24Y24*%
%IPPOS*%
%LPD*%
%AMOC8*
5,1,8,0,0,1.08239X$1,22.5*
%
%ADD10C,0.0000*%
%ADD11C,0.0160*%
%ADD12C,0.0100*%
%ADD13C,0.0030*%
%ADD14C,0.0060*%
%ADD15C,0.0079*%
%ADD16C,0.0040*%
%ADD17C,0.0050*%
%ADD18C,0.0090*%
D10*
X000100Y000101D02*
X000100Y007779D01*
X012203Y007779D01*
X012320Y007776D01*
X012437Y007768D01*
X012554Y007754D01*
X012669Y007734D01*
X012784Y007710D01*
X012897Y007679D01*
X013009Y007643D01*
X013119Y007602D01*
X013227Y007556D01*
X013332Y007505D01*
X013435Y007449D01*
X013535Y007388D01*
X013632Y007322D01*
X013726Y007252D01*
X013817Y007177D01*
X013903Y007098D01*
X013986Y007015D01*
X014065Y006929D01*
X014140Y006838D01*
X014210Y006744D01*
X014276Y006647D01*
X014337Y006547D01*
X014393Y006444D01*
X014444Y006339D01*
X014490Y006231D01*
X014531Y006121D01*
X014567Y006009D01*
X014598Y005896D01*
X014622Y005781D01*
X014642Y005666D01*
X014656Y005549D01*
X014664Y005432D01*
X014667Y005315D01*
X014667Y002566D01*
X014664Y002449D01*
X014656Y002332D01*
X014642Y002215D01*
X014622Y002100D01*
X014598Y001985D01*
X014567Y001872D01*
X014531Y001760D01*
X014490Y001650D01*
X014444Y001542D01*
X014393Y001437D01*
X014337Y001334D01*
X014276Y001234D01*
X014210Y001137D01*
X014140Y001043D01*
X014065Y000952D01*
X013986Y000866D01*
X013903Y000783D01*
X013817Y000704D01*
X013726Y000629D01*
X013632Y000559D01*
X013535Y000493D01*
X013435Y000432D01*
X013332Y000376D01*
X013227Y000325D01*
X013119Y000279D01*
X013009Y000238D01*
X012897Y000202D01*
X012784Y000171D01*
X012669Y000147D01*
X012554Y000127D01*
X012437Y000113D01*
X012320Y000105D01*
X012203Y000102D01*
X012203Y000101D02*
X000100Y000101D01*
D11*
X006576Y005731D02*
X006852Y005731D01*
X007029Y005909D01*
X007029Y006440D01*
X007187Y006598D01*
X007738Y006598D01*
X007757Y006617D01*
D12*
X007128Y001066D02*
X006360Y000298D01*
X003506Y000298D01*
D13*
X003588Y000407D02*
X003650Y000407D01*
X003650Y000469D01*
X003588Y000469D01*
X003588Y000407D01*
X003405Y000407D02*
X003405Y000778D01*
X003220Y000593D01*
X003466Y000593D01*
X003238Y000540D02*
X003238Y000417D01*
X003176Y000355D01*
X003053Y000355D02*
X002991Y000479D01*
X002991Y000540D01*
X003053Y000602D01*
X003176Y000602D01*
X003238Y000540D01*
X003053Y000355D02*
X002868Y000355D01*
X002868Y000602D01*
X002678Y000581D02*
X002678Y000334D01*
X002678Y000458D02*
X002308Y000458D01*
X002431Y000334D01*
X002155Y000363D02*
X002155Y000240D01*
X002094Y000178D01*
X001970Y000178D02*
X001909Y000301D01*
X001909Y000363D01*
X001970Y000425D01*
X002094Y000425D01*
X002155Y000363D01*
X001970Y000546D02*
X001970Y000793D01*
X002094Y000915D02*
X002094Y000976D01*
X002155Y000976D01*
X002155Y000915D01*
X002094Y000915D01*
X002308Y000888D02*
X002369Y000950D01*
X002616Y000703D01*
X002678Y000764D01*
X002678Y000888D01*
X002616Y000950D01*
X002369Y000950D01*
X002308Y000888D02*
X002308Y000764D01*
X002369Y000703D01*
X002616Y000703D01*
X002868Y000909D02*
X003053Y000723D01*
X003053Y000970D01*
X003176Y001092D02*
X003176Y001153D01*
X003238Y001153D01*
X003238Y001092D01*
X003176Y001092D01*
X003238Y000909D02*
X002868Y000909D01*
X002678Y001071D02*
X002431Y001071D01*
X002431Y001256D01*
X002493Y001318D01*
X002678Y001318D01*
X002868Y001338D02*
X002930Y001276D01*
X002991Y001276D01*
X003053Y001338D01*
X003053Y001523D01*
X003176Y001523D02*
X003238Y001461D01*
X003238Y001338D01*
X003176Y001276D01*
X003458Y001268D02*
X003519Y001206D01*
X003643Y001206D01*
X003704Y001268D01*
X003704Y001330D01*
X003643Y001391D01*
X003519Y001391D01*
X003458Y001453D01*
X003458Y001515D01*
X003519Y001577D01*
X003643Y001577D01*
X003704Y001515D01*
X003704Y001453D01*
X003643Y001391D01*
X003519Y001391D02*
X003458Y001330D01*
X003458Y001268D01*
X003826Y001206D02*
X004073Y001453D01*
X004073Y001515D01*
X004011Y001577D01*
X003888Y001577D01*
X003826Y001515D01*
X004194Y001577D02*
X004194Y001206D01*
X004073Y001206D02*
X003826Y001206D01*
X004194Y001330D02*
X004379Y001453D01*
X004194Y001330D02*
X004379Y001206D01*
X004019Y000778D02*
X003772Y000778D01*
X004019Y000778D02*
X004019Y000716D01*
X003772Y000469D01*
X003772Y000407D01*
X004140Y000407D02*
X004140Y000654D01*
X004326Y000654D01*
X004387Y000593D01*
X004387Y000407D01*
X002868Y001338D02*
X002868Y001461D01*
X002930Y001523D01*
X003176Y001523D01*
X003115Y001644D02*
X002991Y001829D01*
X003115Y001644D02*
X003238Y001829D01*
X003238Y001644D02*
X002868Y001644D01*
X002155Y001652D02*
X002032Y001467D01*
X001909Y001652D01*
X001785Y001467D02*
X002155Y001467D01*
X002094Y001346D02*
X001847Y001346D01*
X001785Y001284D01*
X001785Y001160D01*
X001847Y001099D01*
X001909Y001099D01*
X001970Y001160D01*
X001970Y001346D01*
X002094Y001346D02*
X002155Y001284D01*
X002155Y001160D01*
X002094Y001099D01*
X002155Y000731D02*
X001785Y000731D01*
X001970Y000546D01*
X001785Y000425D02*
X001785Y000178D01*
X001970Y000178D01*
X004739Y001951D02*
X004800Y001889D01*
X004739Y001951D02*
X004739Y002075D01*
X004800Y002136D01*
X004862Y002136D01*
X004924Y002075D01*
X004986Y002136D01*
X005047Y002136D01*
X005109Y002075D01*
X005109Y001951D01*
X005047Y001889D01*
X004924Y002013D02*
X004924Y002075D01*
X005047Y002258D02*
X005109Y002319D01*
X005109Y002443D01*
X005047Y002505D01*
X004986Y002505D01*
X004924Y002443D01*
X004924Y002381D01*
X004924Y002443D02*
X004862Y002505D01*
X004800Y002505D01*
X004739Y002443D01*
X004739Y002319D01*
X004800Y002258D01*
X004153Y002416D02*
X004153Y002663D01*
X004153Y002539D02*
X003782Y002539D01*
X003906Y002416D01*
X003844Y002784D02*
X003782Y002846D01*
X003782Y002969D01*
X003844Y003031D01*
X004091Y002784D01*
X004153Y002846D01*
X004153Y002969D01*
X004091Y003031D01*
X003844Y003031D01*
X003844Y003152D02*
X004091Y003152D01*
X004153Y003214D01*
X004153Y003337D01*
X004091Y003399D01*
X003844Y003399D01*
X003782Y003337D01*
X003782Y003214D01*
X003844Y003152D01*
X003844Y002784D02*
X004091Y002784D01*
X004862Y002811D02*
X004862Y002626D01*
X005109Y002626D01*
X004862Y002811D02*
X004924Y002873D01*
X005109Y002873D01*
X004153Y003521D02*
X003782Y003521D01*
X003906Y003582D02*
X003906Y003706D01*
X003968Y003767D01*
X004153Y003767D01*
X004153Y003889D02*
X003906Y003889D01*
X003906Y003951D01*
X003968Y004012D01*
X003906Y004074D01*
X003968Y004136D01*
X004153Y004136D01*
X004153Y004012D02*
X003968Y004012D01*
X003906Y003582D02*
X003968Y003521D01*
X002361Y004571D02*
X002361Y004818D01*
X002361Y004695D02*
X001991Y004695D01*
X002115Y004571D01*
X002115Y004939D02*
X001991Y005063D01*
X002361Y005063D01*
X002361Y005186D02*
X002361Y004939D01*
X002300Y005308D02*
X002053Y005308D01*
X001991Y005370D01*
X001991Y005493D01*
X002053Y005555D01*
X002300Y005308D01*
X002361Y005370D01*
X002361Y005493D01*
X002300Y005555D01*
X002053Y005555D01*
X001991Y005676D02*
X002361Y005676D01*
X002238Y005676D02*
X002115Y005861D01*
X002157Y005920D02*
X002095Y006043D01*
X002095Y006105D01*
X002157Y006166D01*
X002280Y006166D01*
X002342Y006105D01*
X002342Y005981D01*
X002280Y005920D01*
X002361Y005861D02*
X002238Y005676D01*
X002157Y005920D02*
X001971Y005920D01*
X001971Y006166D01*
X001791Y006108D02*
X001791Y006231D01*
X001729Y006293D01*
X001482Y006293D01*
X001420Y006231D01*
X001420Y006108D01*
X001482Y006046D01*
X001729Y006046D01*
X001791Y006108D01*
X001971Y006473D02*
X002157Y006288D01*
X002157Y006535D01*
X002342Y006473D02*
X001971Y006473D01*
X001791Y006414D02*
X001420Y006414D01*
X001544Y006476D02*
X001544Y006599D01*
X001605Y006661D01*
X001791Y006661D01*
X001791Y006783D02*
X001544Y006783D01*
X001544Y006844D01*
X001605Y006906D01*
X001544Y006968D01*
X001605Y007030D01*
X001791Y007030D01*
X001791Y006906D02*
X001605Y006906D01*
X001971Y006902D02*
X002033Y006840D01*
X002095Y006840D01*
X002157Y006902D01*
X002157Y007087D01*
X002280Y007087D02*
X002342Y007026D01*
X002342Y006902D01*
X002280Y006840D01*
X002280Y006718D02*
X002342Y006718D01*
X002342Y006656D01*
X002280Y006656D01*
X002280Y006718D01*
X001971Y006902D02*
X001971Y007026D01*
X002033Y007087D01*
X002280Y007087D01*
X002342Y007209D02*
X001971Y007209D01*
X002095Y007394D02*
X002218Y007209D01*
X002342Y007394D01*
X001544Y006476D02*
X001605Y006414D01*
X001482Y005925D02*
X001420Y005863D01*
X001420Y005739D01*
X001482Y005678D01*
X001729Y005678D01*
X001482Y005925D01*
X001729Y005925D01*
X001791Y005863D01*
X001791Y005739D01*
X001729Y005678D01*
X001791Y005556D02*
X001791Y005309D01*
X001791Y005433D02*
X001420Y005433D01*
X001544Y005309D01*
X001646Y003761D02*
X001646Y003514D01*
X002016Y003514D01*
X001831Y003514D02*
X001831Y003637D01*
X001770Y003392D02*
X002016Y003392D01*
X002016Y003207D01*
X001955Y003146D01*
X001770Y003146D01*
X001708Y003024D02*
X001955Y002777D01*
X002016Y002839D01*
X002016Y002962D01*
X001955Y003024D01*
X001708Y003024D01*
X001646Y002962D01*
X001646Y002839D01*
X001708Y002777D01*
X001955Y002777D01*
X002016Y002656D02*
X002016Y002409D01*
X001770Y002656D01*
X001708Y002656D01*
X001646Y002594D01*
X001646Y002471D01*
X001708Y002409D01*
X001708Y002288D02*
X001646Y002226D01*
X001646Y002102D01*
X001708Y002041D01*
X001770Y002288D02*
X002016Y002041D01*
X002016Y002288D01*
X001770Y002288D02*
X001708Y002288D01*
X006830Y000701D02*
X006830Y000331D01*
X007015Y000331D01*
X007076Y000393D01*
X007076Y000454D01*
X007015Y000516D01*
X006830Y000516D01*
X007015Y000516D02*
X007076Y000578D01*
X007076Y000640D01*
X007015Y000701D01*
X006830Y000701D01*
X007198Y000640D02*
X007198Y000578D01*
X007260Y000516D01*
X007383Y000516D01*
X007445Y000454D01*
X007445Y000393D01*
X007383Y000331D01*
X007260Y000331D01*
X007198Y000393D01*
X007566Y000393D02*
X007566Y000331D01*
X007813Y000331D01*
X007935Y000393D02*
X008181Y000640D01*
X008181Y000393D01*
X008120Y000331D01*
X007996Y000331D01*
X007935Y000393D01*
X007935Y000640D01*
X007996Y000701D01*
X008120Y000701D01*
X008181Y000640D01*
X008303Y000640D02*
X008303Y000578D01*
X008365Y000516D01*
X008550Y000516D01*
X008550Y000393D02*
X008550Y000640D01*
X008488Y000701D01*
X008365Y000701D01*
X008303Y000640D01*
X008671Y000640D02*
X008733Y000701D01*
X008856Y000701D01*
X008918Y000640D01*
X008671Y000393D01*
X008733Y000331D01*
X008856Y000331D01*
X008918Y000393D01*
X008918Y000640D01*
X009039Y000578D02*
X009163Y000701D01*
X009163Y000331D01*
X009286Y000331D02*
X009039Y000331D01*
X009408Y000331D02*
X009408Y000701D01*
X009655Y000331D01*
X009655Y000701D01*
X009776Y000640D02*
X009776Y000578D01*
X009838Y000516D01*
X009961Y000516D01*
X010023Y000454D01*
X010023Y000393D01*
X009961Y000331D01*
X009838Y000331D01*
X009776Y000393D01*
X010144Y000331D02*
X010268Y000331D01*
X010206Y000331D02*
X010206Y000701D01*
X010144Y000701D02*
X010268Y000701D01*
X010023Y000640D02*
X009961Y000701D01*
X009838Y000701D01*
X009776Y000640D01*
X008671Y000640D02*
X008671Y000393D01*
X008550Y000393D02*
X008488Y000331D01*
X008365Y000331D01*
X008303Y000393D01*
X007813Y000640D02*
X007566Y000393D01*
X007445Y000640D02*
X007383Y000701D01*
X007260Y000701D01*
X007198Y000640D01*
X007566Y000701D02*
X007813Y000701D01*
X007813Y000640D01*
X009270Y001354D02*
X009517Y001601D01*
X009517Y001662D01*
X009455Y001724D01*
X009332Y001724D01*
X009270Y001662D01*
X009638Y001662D02*
X009700Y001724D01*
X009824Y001724D01*
X009885Y001662D01*
X009885Y001601D01*
X009638Y001354D01*
X009885Y001354D01*
X010007Y001416D02*
X010254Y001662D01*
X010254Y001416D01*
X010192Y001354D01*
X010068Y001354D01*
X010007Y001416D01*
X010007Y001662D01*
X010068Y001724D01*
X010192Y001724D01*
X010254Y001662D01*
X010375Y001601D02*
X010560Y001601D01*
X010622Y001539D01*
X010622Y001354D01*
X010743Y001354D02*
X010743Y001724D01*
X010990Y001724D01*
X010867Y001539D02*
X010743Y001539D01*
X010375Y001601D02*
X010375Y001354D01*
X009517Y001354D02*
X009270Y001354D01*
X012310Y003837D02*
X012557Y003837D01*
X012433Y003837D02*
X012433Y004207D01*
X012310Y004084D01*
X012678Y004146D02*
X012678Y003899D01*
X012925Y004146D01*
X012925Y003899D01*
X012863Y003837D01*
X012740Y003837D01*
X012678Y003899D01*
X012678Y004146D02*
X012740Y004207D01*
X012863Y004207D01*
X012925Y004146D01*
X013047Y004084D02*
X013047Y003899D01*
X013108Y003837D01*
X013293Y003837D01*
X013293Y004084D01*
X013415Y004022D02*
X013538Y004022D01*
X013415Y003837D02*
X013415Y004207D01*
X013662Y004207D01*
X011362Y004954D02*
X011115Y004954D01*
X011115Y004584D01*
X010993Y004584D02*
X010993Y004831D01*
X011115Y004769D02*
X011238Y004769D01*
X010993Y004584D02*
X010808Y004584D01*
X010746Y004645D01*
X010746Y004831D01*
X010625Y004892D02*
X010625Y004954D01*
X010378Y004954D01*
X010625Y004892D02*
X010378Y004645D01*
X010378Y004584D01*
X010256Y004584D02*
X010194Y004584D01*
X010194Y004645D01*
X010256Y004645D01*
X010256Y004584D01*
X010011Y004584D02*
X010011Y004954D01*
X009826Y004769D01*
X010073Y004769D01*
X008653Y006326D02*
X008653Y006696D01*
X008900Y006696D01*
X008776Y006511D02*
X008653Y006511D01*
X008531Y006573D02*
X008531Y006326D01*
X008346Y006326D01*
X008284Y006388D01*
X008284Y006573D01*
X008040Y006696D02*
X008040Y006326D01*
X008163Y006326D02*
X007916Y006326D01*
X007916Y006573D02*
X008040Y006696D01*
X007881Y006766D02*
X007696Y006890D01*
X007881Y007013D01*
X007696Y007137D02*
X007696Y006766D01*
X007574Y006828D02*
X007513Y006766D01*
X007389Y006766D01*
X007328Y006828D01*
X007574Y007075D01*
X007574Y006828D01*
X007328Y006828D02*
X007328Y007075D01*
X007389Y007137D01*
X007513Y007137D01*
X007574Y007075D01*
X007206Y006766D02*
X006959Y006766D01*
X007083Y006766D02*
X007083Y007137D01*
X006959Y007013D01*
X006807Y007020D02*
X006684Y007020D01*
X006563Y007081D02*
X006563Y006835D01*
X006377Y006835D01*
X006316Y006896D01*
X006316Y007081D01*
X006194Y007081D02*
X006194Y007143D01*
X006133Y007205D01*
X006009Y007205D01*
X005947Y007143D01*
X006194Y007081D02*
X005947Y006835D01*
X006194Y006835D01*
X005825Y006835D02*
X005763Y006835D01*
X005763Y006896D01*
X005825Y006896D01*
X005825Y006835D01*
X005642Y006835D02*
X005395Y006835D01*
X005642Y007081D01*
X005642Y007143D01*
X005580Y007205D01*
X005457Y007205D01*
X005395Y007143D01*
X006684Y007205D02*
X006684Y006835D01*
X006684Y007205D02*
X006931Y007205D01*
D14*
X001337Y007241D02*
X001337Y007441D01*
X001137Y007441D01*
X000637Y007441D02*
X000437Y007441D01*
X000437Y007241D01*
X000437Y006741D02*
X000437Y006541D01*
X000637Y006541D01*
X001137Y006541D02*
X001337Y006541D01*
X001337Y006741D01*
X009717Y003267D02*
X009717Y002652D01*
X010837Y002652D02*
X010837Y003267D01*
X012494Y002323D02*
X012494Y002123D01*
X012494Y002323D02*
X012694Y002323D01*
X013194Y002323D02*
X013394Y002323D01*
X013394Y002123D01*
X013394Y001623D02*
X013394Y001423D01*
X013194Y001423D01*
X012694Y001423D02*
X012494Y001423D01*
X012494Y001623D01*
X012494Y005557D02*
X012694Y005557D01*
X012494Y005557D02*
X012494Y005757D01*
X013194Y005557D02*
X013394Y005557D01*
X013394Y005757D01*
X013394Y006257D02*
X013394Y006457D01*
X013194Y006457D01*
X012694Y006457D02*
X012494Y006457D01*
X012494Y006257D01*
X001337Y001339D02*
X001337Y001139D01*
X001337Y001339D02*
X001137Y001339D01*
X000637Y001339D02*
X000437Y001339D01*
X000437Y001139D01*
X000437Y000639D02*
X000437Y000439D01*
X000637Y000439D01*
X001137Y000439D02*
X001337Y000439D01*
X001337Y000639D01*
D15*
X009824Y002763D03*
D16*
X011004Y002823D02*
X011064Y002763D01*
X011124Y002763D01*
X011184Y002823D01*
X011184Y002943D01*
X011244Y003003D01*
X011304Y003003D01*
X011364Y002943D01*
X011364Y002823D01*
X011304Y002763D01*
X011304Y002635D02*
X011364Y002575D01*
X011364Y002455D01*
X011304Y002395D01*
X011064Y002395D01*
X011004Y002455D01*
X011004Y002575D01*
X011064Y002635D01*
X011004Y002823D02*
X011004Y002943D01*
X011064Y003003D01*
X011064Y003131D02*
X011004Y003191D01*
X011004Y003311D01*
X011064Y003372D01*
X011124Y003372D01*
X011364Y003131D01*
X011364Y003372D01*
X011304Y003500D02*
X011064Y003500D01*
X011004Y003560D01*
X011004Y003680D01*
X011064Y003740D01*
X011304Y003500D01*
X011364Y003560D01*
X011364Y003680D01*
X011304Y003740D01*
X011064Y003740D01*
X011064Y003868D02*
X011004Y003928D01*
X011004Y004048D01*
X011064Y004108D01*
X011304Y003868D01*
X011364Y003928D01*
X011364Y004048D01*
X011304Y004108D01*
X011064Y004108D01*
X011064Y004236D02*
X011004Y004296D01*
X011004Y004416D01*
X011064Y004476D01*
X011304Y004236D01*
X011364Y004296D01*
X011364Y004416D01*
X011304Y004476D01*
X011064Y004476D01*
X011064Y004236D02*
X011304Y004236D01*
X011304Y003868D02*
X011064Y003868D01*
X011004Y002267D02*
X011364Y002267D01*
X011184Y002267D02*
X011184Y002026D01*
X011064Y001898D02*
X011304Y001658D01*
X011364Y001658D01*
X011364Y001898D01*
X011364Y002026D02*
X011004Y002026D01*
X011004Y001898D02*
X011064Y001898D01*
X011004Y001898D02*
X011004Y001658D01*
X004753Y005681D02*
X004600Y005527D01*
X004293Y005527D01*
X004600Y005834D02*
X004753Y005681D01*
X004600Y005834D02*
X004293Y005834D01*
D17*
X004539Y005977D02*
X004273Y006479D01*
X004569Y005456D02*
X004283Y004944D01*
X005149Y004914D02*
X008929Y004914D01*
X008929Y003182D01*
X005149Y003182D01*
X005149Y004914D01*
X008632Y004735D02*
X008634Y004753D01*
X008640Y004769D01*
X008649Y004785D01*
X008661Y004797D01*
X008676Y004807D01*
X008692Y004814D01*
X008710Y004817D01*
X008727Y004816D01*
X008744Y004811D01*
X008760Y004803D01*
X008774Y004791D01*
X008784Y004777D01*
X008792Y004761D01*
X008796Y004744D01*
X008796Y004726D01*
X008792Y004709D01*
X008784Y004693D01*
X008774Y004679D01*
X008760Y004667D01*
X008744Y004659D01*
X008727Y004654D01*
X008710Y004653D01*
X008692Y004656D01*
X008676Y004663D01*
X008661Y004673D01*
X008649Y004685D01*
X008640Y004701D01*
X008634Y004717D01*
X008632Y004735D01*
X009500Y005023D02*
X009500Y006322D01*
X010799Y006322D01*
X010799Y005023D01*
X009500Y005023D01*
X009399Y006172D02*
X009649Y006172D01*
X009649Y006422D01*
X009649Y006172D02*
X009399Y006172D01*
X012519Y006858D02*
X012670Y006858D01*
X012595Y006858D02*
X012595Y007308D01*
X012670Y007308D02*
X012519Y007308D01*
X012826Y007308D02*
X013127Y006858D01*
X013127Y007308D01*
X012826Y007308D02*
X012826Y006858D01*
X013287Y007083D02*
X013587Y007083D01*
X013437Y007233D02*
X013437Y006933D01*
X008838Y002298D02*
X008838Y002048D01*
X009088Y002048D01*
X008988Y002198D02*
X007689Y002198D01*
X007689Y000899D01*
X008988Y000899D01*
X008988Y002198D01*
X008838Y002298D02*
X008838Y002048D01*
X012638Y000969D02*
X012788Y000969D01*
X012713Y000969D02*
X012713Y000519D01*
X012638Y000519D02*
X012788Y000519D01*
X012945Y000519D02*
X012945Y000969D01*
X013245Y000519D01*
X013245Y000969D01*
X013405Y000744D02*
X013705Y000744D01*
D18*
X002020Y000905D02*
X001506Y000905D01*
X001763Y001162D02*
X001763Y000648D01*
X001833Y006937D02*
X001319Y006937D01*
M02*
