G75*
G70*
%OFA0B0*%
%FSLAX24Y24*%
%IPPOS*%
%LPD*%
%AMOC8*
5,1,8,0,0,1.08239X$1,22.5*
%
%ADD10C,0.0000*%
%ADD11C,0.0030*%
%ADD12C,0.0050*%
D10*
X000100Y000101D02*
X000100Y007779D01*
X012203Y007779D01*
X012320Y007776D01*
X012437Y007768D01*
X012554Y007754D01*
X012669Y007734D01*
X012784Y007710D01*
X012897Y007679D01*
X013009Y007643D01*
X013119Y007602D01*
X013227Y007556D01*
X013332Y007505D01*
X013435Y007449D01*
X013535Y007388D01*
X013632Y007322D01*
X013726Y007252D01*
X013817Y007177D01*
X013903Y007098D01*
X013986Y007015D01*
X014065Y006929D01*
X014140Y006838D01*
X014210Y006744D01*
X014276Y006647D01*
X014337Y006547D01*
X014393Y006444D01*
X014444Y006339D01*
X014490Y006231D01*
X014531Y006121D01*
X014567Y006009D01*
X014598Y005896D01*
X014622Y005781D01*
X014642Y005666D01*
X014656Y005549D01*
X014664Y005432D01*
X014667Y005315D01*
X014667Y002566D01*
X014664Y002449D01*
X014656Y002332D01*
X014642Y002215D01*
X014622Y002100D01*
X014598Y001985D01*
X014567Y001872D01*
X014531Y001760D01*
X014490Y001650D01*
X014444Y001542D01*
X014393Y001437D01*
X014337Y001334D01*
X014276Y001234D01*
X014210Y001137D01*
X014140Y001043D01*
X014065Y000952D01*
X013986Y000866D01*
X013903Y000783D01*
X013817Y000704D01*
X013726Y000629D01*
X013632Y000559D01*
X013535Y000493D01*
X013435Y000432D01*
X013332Y000376D01*
X013227Y000325D01*
X013119Y000279D01*
X013009Y000238D01*
X012897Y000202D01*
X012784Y000171D01*
X012669Y000147D01*
X012554Y000127D01*
X012437Y000113D01*
X012320Y000105D01*
X012203Y000102D01*
X012203Y000101D02*
X000100Y000101D01*
D11*
X006134Y003227D02*
X006381Y003227D01*
X006134Y003474D01*
X006134Y003535D01*
X006195Y003597D01*
X006319Y003597D01*
X006381Y003535D01*
X006502Y003535D02*
X006564Y003597D01*
X006687Y003597D01*
X006749Y003535D01*
X006749Y003288D01*
X006687Y003227D01*
X006564Y003227D01*
X006502Y003288D01*
X006502Y003412D01*
X006626Y003412D01*
X006870Y003597D02*
X007117Y003597D01*
X007239Y003597D02*
X007239Y003227D01*
X007486Y003227D02*
X007486Y003597D01*
X007362Y003474D01*
X007239Y003597D01*
X006994Y003597D02*
X006994Y003227D01*
X007976Y003474D02*
X008037Y003474D01*
X008161Y003350D01*
X008161Y003227D02*
X008161Y003474D01*
X008282Y003412D02*
X008344Y003474D01*
X008467Y003474D01*
X008529Y003412D01*
X008529Y003288D01*
X008467Y003227D01*
X008344Y003227D01*
X008282Y003288D01*
X008282Y003412D01*
X009019Y003227D02*
X009266Y003227D01*
X009266Y003597D01*
X009387Y003597D02*
X009387Y003227D01*
X009634Y003227D02*
X009634Y003597D01*
X009511Y003474D01*
X009387Y003597D01*
X009756Y003597D02*
X010002Y003227D01*
X009756Y003227D02*
X010002Y003597D01*
X010493Y003474D02*
X010493Y003412D01*
X010555Y003412D01*
X010555Y003474D01*
X010493Y003474D01*
X010493Y003288D02*
X010493Y003227D01*
X010555Y003227D01*
X010555Y003288D01*
X010493Y003288D01*
X010800Y003227D02*
X010800Y003597D01*
X010923Y003597D02*
X010676Y003597D01*
X011045Y003597D02*
X011045Y003288D01*
X011106Y003227D01*
X011230Y003227D01*
X011291Y003288D01*
X011291Y003597D01*
X011413Y003535D02*
X011475Y003597D01*
X011598Y003597D01*
X011660Y003535D01*
X011660Y003288D01*
X011598Y003227D01*
X011475Y003227D01*
X011413Y003288D01*
X011413Y003535D01*
X011375Y004132D02*
X011375Y004503D01*
X011128Y004132D01*
X011128Y004503D01*
X011007Y004379D02*
X011007Y004317D01*
X010945Y004317D01*
X010945Y004379D01*
X011007Y004379D01*
X011007Y004194D02*
X011007Y004132D01*
X010945Y004132D01*
X010945Y004194D01*
X011007Y004194D01*
X011497Y004132D02*
X011620Y004132D01*
X011559Y004132D02*
X011559Y004503D01*
X011620Y004503D02*
X011497Y004503D01*
X011393Y005018D02*
X011640Y005018D01*
X011640Y005388D01*
X011272Y005388D02*
X011272Y005018D01*
X011025Y005018D01*
X010903Y005018D02*
X010718Y005018D01*
X010657Y005080D01*
X010657Y005327D01*
X010718Y005388D01*
X010903Y005388D01*
X010903Y005018D01*
X011148Y005203D02*
X011272Y005203D01*
X011272Y005388D02*
X011025Y005388D01*
X010167Y005388D02*
X010167Y005018D01*
X009982Y005018D01*
X009920Y005080D01*
X009920Y005327D01*
X009982Y005388D01*
X010167Y005388D01*
X009799Y005388D02*
X009613Y005388D01*
X009552Y005327D01*
X009552Y005203D01*
X009613Y005141D01*
X009799Y005141D01*
X009675Y005141D02*
X009552Y005018D01*
X009430Y005018D02*
X009307Y005018D01*
X009369Y005018D02*
X009369Y005388D01*
X009430Y005388D02*
X009307Y005388D01*
X009185Y005388D02*
X009185Y005141D01*
X009061Y005018D01*
X008938Y005141D01*
X008938Y005388D01*
X008816Y005388D02*
X008816Y005018D01*
X008569Y005018D01*
X008448Y005018D02*
X008448Y005388D01*
X008263Y005388D01*
X008201Y005327D01*
X008201Y005203D01*
X008263Y005141D01*
X008448Y005141D01*
X008325Y005141D02*
X008201Y005018D01*
X007711Y005080D02*
X007650Y005018D01*
X007526Y005018D01*
X007465Y005080D01*
X007465Y005141D01*
X007526Y005203D01*
X007588Y005203D01*
X007526Y005203D02*
X007465Y005265D01*
X007465Y005327D01*
X007526Y005388D01*
X007650Y005388D01*
X007711Y005327D01*
X007343Y005265D02*
X007220Y005388D01*
X007096Y005265D01*
X007096Y005018D01*
X007343Y005018D02*
X007343Y005265D01*
X007343Y005203D02*
X007096Y005203D01*
X008569Y005388D02*
X008816Y005388D01*
X008816Y005203D02*
X008693Y005203D01*
X009799Y005018D02*
X009799Y005388D01*
X009656Y004503D02*
X009532Y004503D01*
X009471Y004441D01*
X009471Y004379D01*
X009717Y004132D01*
X009471Y004132D01*
X009349Y004194D02*
X009287Y004132D01*
X009164Y004132D01*
X009102Y004194D01*
X009102Y004317D01*
X009164Y004379D01*
X009226Y004379D01*
X009349Y004317D01*
X009349Y004503D01*
X009102Y004503D01*
X008981Y004503D02*
X008981Y004256D01*
X008857Y004132D01*
X008734Y004256D01*
X008734Y004503D01*
X009656Y004503D02*
X009717Y004441D01*
X009839Y004317D02*
X010086Y004317D01*
X010207Y004256D02*
X010207Y004194D01*
X010269Y004132D01*
X010392Y004132D01*
X010454Y004194D01*
X010454Y004256D01*
X010392Y004317D01*
X010269Y004317D01*
X010207Y004256D01*
X010269Y004317D02*
X010207Y004379D01*
X010207Y004441D01*
X010269Y004503D01*
X010392Y004503D01*
X010454Y004441D01*
X010454Y004379D01*
X010392Y004317D01*
X008229Y007006D02*
X008106Y007130D01*
X008106Y007377D01*
X007984Y007253D02*
X007861Y007377D01*
X007861Y007006D01*
X007984Y007006D02*
X007738Y007006D01*
X007616Y007006D02*
X007616Y007068D01*
X007554Y007068D01*
X007554Y007006D01*
X007616Y007006D01*
X007432Y007006D02*
X007185Y007006D01*
X007308Y007006D02*
X007308Y007377D01*
X007432Y007253D01*
X008229Y007006D02*
X008353Y007130D01*
X008353Y007377D01*
D12*
X006074Y006519D02*
X006074Y001401D01*
X000563Y001401D01*
X000563Y006519D01*
X006074Y006519D01*
M02*
