G75*
G70*
%OFA0B0*%
%FSLAX24Y24*%
%IPPOS*%
%LPD*%
%AMOC8*
5,1,8,0,0,1.08239X$1,22.5*
%
%ADD10C,0.0000*%
%ADD11R,0.0354X0.0276*%
%ADD12R,0.0512X0.0591*%
%ADD13R,0.2165X0.0728*%
%ADD14R,0.0709X0.0630*%
%ADD15R,0.0394X0.0433*%
%ADD16R,0.0276X0.0354*%
%ADD17R,0.0945X0.1102*%
%ADD18R,0.0630X0.0709*%
%ADD19R,0.0236X0.0354*%
%ADD20R,0.0177X0.0413*%
%ADD21R,0.1870X0.1079*%
%ADD22R,0.0138X0.0394*%
%ADD23R,0.0650X0.0157*%
%ADD24R,0.0906X0.0709*%
%ADD25R,0.0394X0.0138*%
%ADD26R,0.0157X0.0650*%
%ADD27R,0.0709X0.0906*%
%ADD28R,0.0610X0.1004*%
D10*
X000100Y000101D02*
X000100Y007779D01*
X012203Y007779D01*
X012320Y007776D01*
X012437Y007768D01*
X012554Y007754D01*
X012669Y007734D01*
X012784Y007710D01*
X012897Y007679D01*
X013009Y007643D01*
X013119Y007602D01*
X013227Y007556D01*
X013332Y007505D01*
X013435Y007449D01*
X013535Y007388D01*
X013632Y007322D01*
X013726Y007252D01*
X013817Y007177D01*
X013903Y007098D01*
X013986Y007015D01*
X014065Y006929D01*
X014140Y006838D01*
X014210Y006744D01*
X014276Y006647D01*
X014337Y006547D01*
X014393Y006444D01*
X014444Y006339D01*
X014490Y006231D01*
X014531Y006121D01*
X014567Y006009D01*
X014598Y005896D01*
X014622Y005781D01*
X014642Y005666D01*
X014656Y005549D01*
X014664Y005432D01*
X014667Y005315D01*
X014667Y002566D01*
X014664Y002449D01*
X014656Y002332D01*
X014642Y002215D01*
X014622Y002100D01*
X014598Y001985D01*
X014567Y001872D01*
X014531Y001760D01*
X014490Y001650D01*
X014444Y001542D01*
X014393Y001437D01*
X014337Y001334D01*
X014276Y001234D01*
X014210Y001137D01*
X014140Y001043D01*
X014065Y000952D01*
X013986Y000866D01*
X013903Y000783D01*
X013817Y000704D01*
X013726Y000629D01*
X013632Y000559D01*
X013535Y000493D01*
X013435Y000432D01*
X013332Y000376D01*
X013227Y000325D01*
X013119Y000279D01*
X013009Y000238D01*
X012897Y000202D01*
X012784Y000171D01*
X012669Y000147D01*
X012554Y000127D01*
X012437Y000113D01*
X012320Y000105D01*
X012203Y000102D01*
X012203Y000101D02*
X000100Y000101D01*
D11*
X004874Y001332D03*
X005385Y001332D03*
X006133Y001312D03*
X006133Y001824D03*
X005385Y001844D03*
X004874Y001844D03*
X004923Y003241D03*
X004431Y003241D03*
X004431Y003753D03*
X004923Y003753D03*
X004923Y004472D03*
X004923Y004983D03*
X004923Y005702D03*
X004431Y005702D03*
X004431Y006214D03*
X004923Y006214D03*
D12*
X005769Y006401D03*
X006439Y006401D03*
D13*
X012944Y004993D03*
X012944Y002985D03*
D14*
X009313Y003485D03*
X009313Y004588D03*
D15*
X009362Y002801D03*
X009362Y002132D03*
D16*
X007354Y001853D03*
X006842Y001853D03*
X006842Y001342D03*
X007354Y001342D03*
X006163Y005761D03*
X005651Y005761D03*
D17*
X003259Y003694D03*
X003259Y002464D03*
X000779Y002464D03*
X000779Y003694D03*
D18*
X007673Y005804D03*
X008775Y005804D03*
D19*
X009903Y003412D03*
X010277Y003412D03*
X010651Y003412D03*
X010651Y002507D03*
X010277Y002507D03*
X009903Y002507D03*
D20*
X008702Y002956D03*
X008446Y002956D03*
X008191Y002956D03*
X007935Y002956D03*
X007679Y002956D03*
X007423Y002956D03*
X007167Y002956D03*
X006911Y002956D03*
X006655Y002956D03*
X006399Y002956D03*
X006143Y002956D03*
X005887Y002956D03*
X005631Y002956D03*
X005376Y002956D03*
X005376Y005141D03*
X005631Y005141D03*
X005887Y005141D03*
X006143Y005141D03*
X006399Y005141D03*
X006655Y005141D03*
X006911Y005141D03*
X007167Y005141D03*
X007423Y005141D03*
X007679Y005141D03*
X007935Y005141D03*
X008191Y005141D03*
X008446Y005141D03*
X008702Y005141D03*
D21*
X007039Y004048D03*
D22*
X007954Y002198D03*
X008210Y002198D03*
X008466Y002198D03*
X008722Y002198D03*
X008722Y000899D03*
X008466Y000899D03*
X008210Y000899D03*
X007954Y000899D03*
D23*
X008466Y002040D03*
D24*
X008338Y001375D03*
D25*
X009500Y005288D03*
X009500Y005544D03*
X009500Y005800D03*
X009500Y006056D03*
X010799Y006056D03*
X010799Y005800D03*
X010799Y005544D03*
X010799Y005288D03*
D26*
X009657Y005800D03*
D27*
X010322Y005672D03*
D28*
X003860Y004905D03*
X003053Y004905D03*
X003053Y006460D03*
X003860Y006460D03*
M02*
