**ABCDEFGHIJKLMNOPQRSTUVWXYZabcdefghijklmnopqrstuvwxyz**************************
**PARASOLID !"#$%&'()*+,-./:;<=>?@[\]^_`{|}~0123456789**************************
**PART1;
MC=x86;
MC_MODEL=AMD_X64;
MC_ID=unknown;
OS=MS_WINDOWS;
OS_RELEASE=unknown;
FRU=Top Systems, Ltd.;
APPL=T-FLEX Parametric CAD v.12.0;
SITE=Moscow, Russia;
USER=unknown;
FORMAT=text;
GUISE=transmit;
KEY=unicode filename;
FILE=O:\Projects\Hardware\Flashlight\drawings\c_1\—глаживание_1.x_t;
DATE=9-mar-2014;
**PART2;
SCH=SCH_2401268_20000;
USFLD_SIZE=7;
**PART3;
**END_OF_HEADER*****************************************************************
T51 : TRANSMIT FILE created by modeller version 240126823 SCH_2401268_20000_1300
6189 7 12 27 CCCCCCCCCCCCCCCCCCCCCCCA16 index_map_offset0 0 1 dA9 index_map82 0
 A17 node_id_index_map82 0 A20 schema_embedding_map82 0 Z1 1793 2 3 0 0 0 0 1e3
 1e-8 0 4 0 1 0 1 1 5 6 7 8 9 10 11 0 0 0 0 335544365 0 0 3276800 469762065 4697
62065 9366496 81 255 2 2 1476 12 1 0 0 0 0 13 0 0 0 0 0 0 0 0 70 11 CI9 list_typ
e0 0 1 uI10 notransmit0 0 1 lCCCDCCDI12 finger_index0 0 1 dI12 finger_block1012
 0 CZ3 0 4 T1 0 0 8 20 1 14 14 0 0 0 0 0 0 0 13 255 5 3 0 1 0 15 0 0 16 0 335544
365 0 0 1179648 469762065 469762065 9366498 51 255 6 1463 0 17 18 0 0 +-.0085 -.
026 .004330127018922185 0 1 0 .003 0 0 1 0 0 0 0 0 0 0 30 255 7 1338 0 10 19 0 0
 +-.0055 -.026 -.0043301270189222 0 1 0 0 0 0 0 0 0 0 29 255 8 1232 0 11 20 0 -.
0145 -.026 -.0112583302491977 0 0 0 0 0 0 0 19 255 9 26 0 1 21 0 22 V0 0 0 0 0 0
 0 16 255 10 1336 0 ?23 0 24 7 0 0 1 -1426063175 0 0 12582912 822083585 82208358
5 9386688 18 255 11 1226 0 25 0 26 8 ?1 -1426063150 0 0 13631488 822083585 82208
3585 9386551 17 255 25 0 27 28 29 11 30 31 0 32 +0 0 0 0 0 0 0 18 26 1219 0 33 1
1 34 20 ?1 -1426063148 0 0 13631488 822083585 822083585 9386542 17 33 0 35 32 36
 26 37 38 0 28 +0 0 0 0 0 0 0 18 34 1212 0 39 26 40 41 ?1 -1426063146 0 0 136314
88 822083585 822083585 9386533 29 20 1225 0 26 41 8 -.007 -.026 -.00692820323027
551 0 0 0 0 0 0 0 29 41 1218 0 34 42 20 -.0175 -.026 .0112583302491977 0 0 0 0 0
 0 0 29 42 1211 0 40 43 41 -.025 -.026 .00692820323027551 0 0 0 0 0 0 0 18 40 12
05 0 44 34 45 42 ?1 -1426063144 0 0 13631488 822083585 822083585 9386524 29 43 1
204 0 45 46 42 -.007 -.026 .0069282032302755 0 0 0 0 0 0 0 18 45 1198 0 47 40 48
 43 ?1 -1426063142 0 0 13631488 822083585 822083585 9386515 29 46 1197 0 48 49 4
3 -.0145 -.026 .0112583302491977 0 0 0 0 0 0 0 18 48 1191 0 50 45 51 46 ?1 -1426
063140 0 0 13631488 822083585 822083585 9386506 29 49 1190 0 51 52 46 -.0055 -.0
26 -.0043301270189222 0 0 0 0 0 0 0 18 51 1184 0 53 48 54 49 ?1 -1426063138 0 0
 13631488 822083585 822083585 9386497 29 52 1183 0 54 55 49 -.0055 -.026 .004330
127018922185 0 0 0 0 0 0 0 18 54 1177 0 56 51 57 52 ?1 -1426063136 0 0 13631488
 822083585 822083585 9386488 29 55 1162 0 57 58 52 -.0265 -.026 .004330127018922
2 0 0 0 0 0 0 0 18 57 1156 0 59 54 60 55 ?1 -1426063134 0 0 13631488 822083585 8
22083585 9386461 29 58 1155 0 60 61 55 -.0265 -.026 -.004330127018922185 0 0 0 0
 0 0 0 18 60 1149 0 62 57 63 58 ?1 -1426063132 0 0 13631488 822083585 822083585
 9386452 29 61 1100 0 63 64 58 -.007 -.0205 .0069282032302755 0 0 0 0 0 0 0 18 6
3 1094 0 65 60 66 61 ?1 -1426063130 0 0 13631488 822083585 822083585 9386383 29
 64 1093 0 66 67 61 -.0145 -.0205 .0112583302491977 0 0 0 0 0 0 0 18 66 1087 0 6
8 63 69 64 ?1 -1426063128 0 0 13631488 822083585 822083585 9386374 29 67 1086 0
 69 70 64 -.0175 -.0205 .0112583302491977 0 0 0 0 0 0 0 18 69 1080 0 71 66 72 67
 ?1 -1426063126 0 0 13631488 822083585 822083585 9386365 29 70 1079 0 72 73 67 -
.025 -.0205 .00692820323027551 0 0 0 0 0 0 0 18 72 1073 0 74 69 75 70 ?1 -142606
3124 0 0 13631488 822083585 822083585 9386356 29 73 1072 0 75 76 70 -.0265 -.020
5 .0043301270189222 0 0 0 0 0 0 0 18 75 1066 0 77 72 78 73 ?1 -1426063122 0 0 13
631488 822083585 822083585 9386347 29 76 1065 0 78 79 73 -.0265 -.0205 -.0043301
27018922185 0 0 0 0 0 0 0 18 78 1059 0 80 75 81 76 ?1 -1426063120 0 0 13631488 8
22083585 822083585 9386338 29 79 1058 0 81 82 76 -.0145 -.0205 -.011258330249197
7 0 0 0 0 0 0 0 18 81 1052 0 83 78 84 79 ?1 -1426063118 0 0 13631488 822083585 8
22083585 9386329 29 82 1051 0 84 85 79 -.007 -.0205 -.00692820323027551 0 0 0 0
 0 0 0 18 84 1045 0 86 81 87 82 ?1 -1426063116 0 0 13631488 822083585 822083585
 9386320 29 85 1044 0 87 88 82 -.0055 -.0205 -.0043301270189222 0 0 0 0 0 0 0 18
 87 1038 0 89 84 90 85 ?1 -1426063114 0 0 13631488 822083585 822083585 9386311 2
9 88 1037 0 90 91 85 -.0055 -.0205 .004330127018922185 0 0 0 0 0 0 0 18 90 1031
 0 92 87 93 88 ?1 -1426063112 0 0 13631488 822083585 822083585 9386302 29 91 101
6 0 93 94 88 -.025 -.026 -.0069282032302755 0 0 0 0 0 0 0 18 93 1010 0 95 90 96
 91 ?1 -1426063110 0 0 13631488 822083585 822083585 9386275 29 94 1009 0 96 97 9
1 -.0175 -.026 -.0112583302491977 0 0 0 0 0 0 0 18 96 1003 0 98 93 99 94 ?1 -142
6063108 0 0 13631488 822083585 822083585 9386266 29 97 1002 0 99 100 94 -.025 -.
0205 -.0069282032302755 0 0 0 0 0 0 0 18 99 996 0 101 96 102 97 ?1 -1426063106 0
 0 13631488 822083585 822083585 9386257 29 100 995 0 102 103 97 -.0175 -.0205 -.
0112583302491977 0 0 0 0 0 0 0 18 102 989 0 104 99 105 100 ?1 -1426063104 0 0 13
631488 822083585 822083585 9386248 29 103 171 0 105 106 100 -.016 -.026 -.0095 0
 0 0 0 0 0 0 18 105 167 0 107 102 108 103 ?1 -1426063183 0 0 13631488 805306373
 805306373 9377333 29 106 19 0 108 109 103 -.016 -.035 -.0075 0 0 0 0 0 0 0 18 1
08 17 110 111 105 112 106 ?1 -1426063188 16 0 13762560 704643081 704643081 93700
88 29 109 7 0 112 113 106 -.016 -.035 -.0095 0 0 0 0 0 0 0 18 112 5 114 115 108
 116 109 ?1 -1426063189 16 0 13762560 704643081 704643081 9370094 29 113 559 0 1
16 117 109 -.016 -.026 -.0075 0 0 0 0 0 0 0 18 116 370 0 118 112 119 113 ?1 -142
6063180 0 0 13631488 805306373 805306373 9377391 29 117 563 0 120 121 113 -.016
 -.0205 -.0069 0 0 0 0 0 0 0 18 120 408 122 123 119 124 117 ?1 -1426063192 0 0 1
3631488 704643079 704643079 9372963 29 121 570 0 119 125 117 -.016 -.026 -.0069
 0 0 0 0 0 0 0 18 119 405 126 127 116 120 121 ?1 -1426063192 16 0 13762560 70464
3079 704643079 9372765 29 125 577 0 128 129 121 -.016 -.0205 -.004775 0 0 0 0 0
 0 0 18 128 226 130 131 132 133 125 ?1 -1426063190 0 0 13631488 704643080 704643
080 9369910 29 129 578 0 133 134 125 -.016 -.0205 -.0069 0 0 0 0 0 0 0 18 133 22
9 135 136 128 0 129 ?1 -1426063191 0 0 13631488 704643080 704643080 9369919 29 1
34 579 0 124 137 129 -.016 -.0075 -.004775 0 0 0 0 0 0 0 18 124 223 138 139 120
 132 134 ?1 -1426063190 16 0 13762560 704643080 704643080 9369836 29 137 580 0 1
32 0 134 -.016 -.0075 -.0069 0 0 0 0 0 0 0 18 132 232 140 141 124 128 137 ?1 -14
26063191 16 0 13762560 704643080 704643080 9369842 81 1 140 1492 142 132 143 0 1
38 0 0 0 0 0 0 0 0 0 17 141 0 144 141 141 132 145 146 0 145 +0 0 0 0 0 0 0 15 25
5 144 255 147 141 148 0 335544361 16 0 3276800 704643080 704643080 9369846 17 14
5 0 149 136 150 132 141 146 0 150 -0 0 0 0 0 0 0 16 146 213 151 ?141 152 153 154
 0 0 1 805307418 16 0 4325376 704643080 704643080 9385517 81 1 151 1661 155 146
 156 0 0 157 158 0 0 0 0 0 0 0 16 152 194 157 ?159 160 146 161 0 0 1 805307530 1
6 0 4325376 704643080 704643080 9385521 16 153 209 162 ?136 146 163 164 0 0 1 -1
426063191 0 0 12648448 704643080 704643080 9385522 31 255 154 558 0 146 0 161 0
 +-.016 -.0075 1959434878635765e-33 0 1 0 -12490009027033e-29 0 -1 .0069 0 0 0 0
 0 0 0 31 161 557 0 152 154 165 0 +-.016 -.0075 1959434878635765e-33 0 1 0 -1249
0009027033e-29 0 -1 .004775 0 0 0 0 0 0 0 31 165 556 0 166 161 167 0 +-.016 -.02
05 1959434878635765e-33 0 1 0 -12490009027033e-29 0 -1 .0069 0 0 0 0 0 0 0 16 16
6 203 168 ?169 170 0 165 0 0 1 805307418 0 0 4325376 704643080 704643080 9385530
 31 167 555 0 170 165 171 0 +-.016 -.0205 1959434878635765e-33 0 1 0 -1249000902
7033e-29 0 -1 .004775 0 0 0 0 0 0 0 16 170 218 172 ?173 163 166 167 0 0 1 805307
530 0 0 4325376 704643080 704643080 9385533 30 171 554 0 163 167 164 0 +-.016 -.
0075 -.004775 0 -1 0 0 0 0 0 0 0 0 16 163 199 174 ?131 153 170 171 0 0 1 -142606
3190 0 0 12648448 704643080 704643080 9385527 30 164 553 0 153 171 175 0 +-.016
 -.0075 -.0069 0 -1 0 0 0 0 0 0 0 0 30 175 552 0 176 164 177 0 +-.0055 -.026 -.0
0606217782649108 -.866025403784439 0 -.5 0 0 0 0 0 0 0 16 176 1220 178 ?32 179 1
80 175 0 0 1 805307450 16 0 4325376 704643079 704643079 9386543 30 177 551 0 179
 175 181 0 +-.016 -.026 -.01212435565298214 -.866025403784438 0 .5 0 0 0 0 0 0 0
 16 179 1004 182 ?183 184 176 177 0 0 1 805307466 16 0 4325376 704643079 7046430
79 9386267 30 181 550 0 184 177 185 0 +-.0265 -.026 -.00606217782649106 69721041
3598772e-30 0 1 0 0 0 0 0 0 0 16 184 1150 186 ?187 188 179 181 0 0 1 805307482 1
6 0 4325376 704643079 704643079 9386453 30 185 549 0 188 181 189 0 +-.0265 -.026
 .00606217782649108 .866025403784439 0 .5 0 0 0 0 0 0 0 16 188 1206 190 ?191 192
 184 185 0 0 1 805307498 16 0 4325376 704643079 704643079 9386525 30 189 548 0 1
92 185 193 0 +-.016 -.026 .01212435565298214 .866025403784438 0 -.5 0 0 0 0 0 0
 0 16 192 1192 194 ?195 196 188 189 0 0 1 805307514 16 0 4325376 704643079 70464
3079 9386507 30 193 547 0 180 189 197 0 +-.0055 -.026 .00606217782649106 -124900
09027033e-29 0 -1 0 0 0 0 0 0 0 16 180 1178 198 ?199 176 200 193 0 0 1 805307434
 16 0 4325376 704643079 704643079 9386489 31 197 546 0 196 193 201 0 +-.016 -.02
6 1959434878635765e-33 0 1 0 -12490009027033e-29 0 -1 .0069 0 0 0 0 0 0 0 16 196
 268 202 ?203 204 192 197 0 0 1 805307418 16 0 4325376 704643079 704643079 93855
53 30 201 545 0 205 197 206 0 +-.0055 -.0205 -.00606217782649108 -.8660254037844
39 0 -.5 0 0 0 0 0 0 0 16 205 1046 207 ?208 209 160 201 0 0 1 805307450 0 0 4325
376 704643079 704643079 9386321 30 206 544 0 209 201 210 0 +-.016 -.0205 -.01212
435565298214 -.866025403784438 0 .5 0 0 0 0 0 0 0 16 209 990 211 ?212 213 205 20
6 0 0 1 805307466 0 0 4325376 704643079 704643079 9386249 30 210 543 0 213 206 2
14 0 +-.0265 -.0205 -.00606217782649106 697210413598772e-30 0 1 0 0 0 0 0 0 0 16
 213 1060 215 ?216 217 209 210 0 0 1 805307482 0 0 4325376 704643079 704643079 9
386339 30 214 542 0 217 210 218 0 +-.0265 -.0205 .00606217782649108 .86602540378
4439 0 .5 0 0 0 0 0 0 0 16 217 1074 219 ?220 221 213 214 0 0 1 805307498 0 0 432
5376 704643079 704643079 9386357 30 218 541 0 221 214 222 0 +-.016 -.0205 .01212
435565298214 .866025403784438 0 -.5 0 0 0 0 0 0 0 16 221 1088 223 ?224 225 217 2
18 0 0 1 805307514 0 0 4325376 704643079 704643079 9386375 30 222 540 0 160 218
 226 0 +-.0055 -.0205 .00606217782649106 -12490009027033e-29 0 -1 0 0 0 0 0 0 0
 16 160 1032 227 ?228 205 152 222 0 0 1 805307434 0 0 4325376 704643079 70464307
9 9386303 31 226 539 0 225 222 229 0 +-.016 -.0205 1959434878635765e-33 0 1 0 -1
2490009027033e-29 0 -1 .0069 0 0 0 0 0 0 0 16 225 321 230 ?231 200 221 226 0 0 1
 805307418 0 0 4325376 704643079 704643079 9385575 30 229 538 0 200 226 232 0 +-
.016 -.026 -.0069 0 1 0 0 0 0 0 0 0 0 16 200 326 233 ?123 180 225 229 0 0 1 -142
6063192 0 0 12648448 704643079 704643079 9385556 31 232 529 0 234 229 235 0 --.0
16 -.026 1959434878635765e-33 0 1 0 0 0 1 .0075 0 0 0 0 0 0 0 16 234 273 236 ?23
7 238 204 232 0 0 1 -1426063187 0 0 12582912 805306373 805306373 9385592 31 235
 10 0 239 232 240 0 +-.016 -.035 1959434878635765e-33 0 1 0 -12490009027033e-29
 0 -1 .0095 0 0 0 0 0 0 0 16 239 2 241 ?242 243 244 235 0 0 1 805307546 16 0 432
5376 704643081 704643081 9385444 31 240 38 0 243 235 245 0 +-.016 -.035 19594348
78635765e-33 0 1 0 -12490009027033e-29 0 -1 .0075 0 0 0 0 0 0 0 16 243 20 246 ?2
47 248 239 240 0 0 1 805307562 16 0 4325376 704643081 704643081 9385432 30 245 9
0 0 238 240 249 0 +-.016 -.035 -.0075 0 1 0 0 0 0 0 0 0 0 16 238 84 250 ?118 244
 234 245 0 0 1 -1426063188 0 0 12648448 704643081 704643081 9385456 30 249 91 0
 244 245 251 0 +-.016 -.035 -.0095 0 1 0 0 0 0 0 0 0 0 16 244 85 252 ?253 239 23
8 249 0 0 1 -1426063189 0 0 12648448 704643081 704643081 9385596 31 251 174 0 20
4 249 254 0 --.016 -.026 1959434878635765e-33 0 1 0 0 0 1 .0095 0 0 0 0 0 0 0 16
 204 274 255 ?256 234 196 251 0 0 1 -1426063186 0 0 12582912 805306373 805306373
 9385438 30 254 1019 0 248 251 257 0 --.0175 -.026 -.0112583302491977 0 1 0 0 0
 0 0 0 0 0 16 248 1017 0 ?98 258 243 254 0 0 1 -1426063152 0 0 12582912 82208358
5 822083585 9386283 30 257 1026 0 258 254 259 0 +-.025 -.026 -.0069282032302755
 0 1 0 0 0 0 0 0 0 0 16 258 1024 0 ?260 261 248 257 0 0 1 -1426063153 0 0 125829
12 822083585 822083585 9386292 31 259 1104 0 261 257 262 0 +-.0085 -.0205 .00433
0127018922185 0 1 0 0 0 1 .003 0 0 0 0 0 0 0 16 261 1101 0 ?92 263 258 259 0 0 1
 -1426063154 0 0 12582912 822083585 822083585 9386391 31 262 1112 0 263 259 264
 0 +-.0085 -.0205 -.0043301270189222 0 1 0 0 0 1 .003 0 0 0 0 0 0 0 16 263 1109
 0 ?86 265 261 262 0 0 1 -1426063155 0 0 12582912 822083585 822083585 9386401 31
 264 1120 0 265 262 266 0 +-.016 -.0205 -.00866025403784438 0 1 0 0 0 1 .003 0 0
 0 0 0 0 0 16 265 1117 0 ?104 267 263 264 0 0 1 -1426063156 0 0 12582912 8220835
85 822083585 9386411 31 266 1128 0 267 264 268 0 +-.016 -.0205 .0086602540378443
9 0 1 0 0 0 1 .003 0 0 0 0 0 0 0 16 267 1125 0 ?68 269 265 266 0 0 1 -1426063157
 0 0 12582912 822083585 822083585 9386421 31 268 1136 0 269 266 270 0 +-.0235 -.
0205 .004330127018922195 0 1 0 0 0 1 .003 0 0 0 0 0 0 0 16 269 1133 0 ?74 271 26
7 268 0 0 1 -1426063158 0 0 12582912 822083585 822083585 9386431 31 270 1144 0 2
71 268 272 0 +-.0235 -.0205 -.004330127018922185 0 1 0 0 0 1 .003 0 0 0 0 0 0 0
 16 271 1141 0 ?80 273 269 270 0 0 1 -1426063159 0 0 12582912 822083585 82208358
5 9386441 30 272 1165 0 273 270 274 0 +-.0265 -.026 .0043301270189222 0 1 0 0 0
 0 0 0 0 0 16 273 1163 0 ?275 276 271 272 0 0 1 -1426063160 0 0 12582912 8220835
85 822083585 9386469 30 274 1172 0 276 272 277 0 --.0265 -.026 -.004330127018922
185 0 1 0 0 0 0 0 0 0 0 16 276 1170 0 ?62 278 273 274 0 0 1 -1426063161 0 0 1258
2912 822083585 822083585 9386478 31 277 1236 0 278 274 279 0 --.0085 -.026 .0043
30127018922185 0 1 0 0 0 1 .003 0 0 0 0 0 0 0 16 278 1233 0 ?47 280 276 277 0 0
 1 -1426063162 0 0 12582912 822083585 822083585 9386559 31 279 1245 0 280 277 28
1 0 --.0085 -.026 -.0043301270189222 0 1 0 0 0 1 .003 0 0 0 0 0 0 0 16 280 1242
 0 ?53 31 278 279 0 0 1 -1426063163 0 0 12582912 822083585 822083585 9386570 31
 281 1254 0 31 279 282 0 --.016 -.026 -.00866025403784438 0 1 0 0 0 1 .003 0 0 0
 0 0 0 0 16 31 1251 0 ?25 283 280 281 0 0 1 -1426063164 0 0 12582912 822083585 8
22083585 9386581 31 282 1263 0 283 281 284 0 --.016 -.026 .00866025403784439 0 1
 0 0 0 1 .003 0 0 0 0 0 0 0 16 283 1260 0 ?39 285 31 282 0 0 1 -1426063165 0 0 1
2582912 822083585 822083585 9386592 31 284 1272 0 285 282 286 0 --.0235 -.026 .0
04330127018922195 0 1 0 0 0 1 .003 0 0 0 0 0 0 0 16 285 1269 0 ?59 287 283 284 0
 0 1 -1426063166 0 0 12582912 822083585 822083585 9386603 31 286 1281 0 287 284
 288 0 --.0235 -.026 -.004330127018922185 0 1 0 0 0 1 .003 0 0 0 0 0 0 0 16 287
 1278 0 ?95 289 285 286 0 0 1 -1426063167 0 0 12582912 822083585 822083585 93866
14 30 288 1289 0 289 286 290 0 +-.0175 -.026 .0112583302491977 0 1 0 0 0 0 0 0 0
 0 16 289 1287 0 ?291 292 287 288 0 0 1 -1426063168 0 0 12582912 822083585 82208
3585 9386625 30 290 1296 0 292 288 293 0 --.025 -.026 .00692820323027551 0 1 0 0
 0 0 0 0 0 0 16 292 1294 0 ?44 294 289 290 0 0 1 -1426063169 0 0 12582912 822083
585 822083585 9386634 30 293 1303 0 294 290 295 0 +-.007 -.026 .0069282032302755
 0 1 0 0 0 0 0 0 0 0 16 294 1301 0 ?296 297 292 293 0 0 1 -1426063170 0 0 125829
12 822083585 822083585 9386643 30 295 1310 0 297 293 298 0 --.0145 -.026 .011258
3302491977 0 1 0 0 0 0 0 0 0 0 16 297 1308 0 ?50 38 294 295 0 0 1 -1426063171 0
 0 12582912 822083585 822083585 9386652 30 298 1317 0 38 295 299 0 --.007 -.026
 -.00692820323027552 0 1 0 0 0 0 0 0 0 0 16 38 1315 0 ?33 300 297 298 0 0 1 -142
6063172 0 0 12582912 822083585 822083585 9386661 30 299 1324 0 300 298 19 0 +-.0
145 -.026 -.0112583302491977 0 1 0 0 0 0 0 0 0 0 16 300 1322 0 ?301 24 38 299 0
 0 1 -1426063173 0 0 12582912 822083585 822083585 9386670 30 19 1331 0 24 299 7
 0 --.0055 -.026 .004330127018922185 0 1 0 0 0 0 0 0 0 0 16 24 1329 0 ?56 10 300
 19 0 0 1 -1426063174 0 0 12582912 822083585 822083585 9386679 17 56 0 302 199 3
03 54 304 24 0 305 +0 0 0 0 0 0 0 15 302 457 0 199 306 0 805307434 0 0 3342336 7
04643079 704643079 9373088 17 199 0 302 23 56 51 305 180 0 307 +0 0 0 0 0 0 0 17
 303 0 302 56 23 90 228 160 0 304 -0 0 0 0 0 0 0 17 304 0 308 65 309 90 56 24 0
 0 -0 0 0 0 0 0 0 17 305 0 27 47 53 54 199 180 0 309 -0 0 0 0 0 0 0 15 27 501 31
0 311 312 0 335544357 16 0 3276800 704643079 704643079 9372791 17 47 0 27 313 30
5 45 309 278 0 195 +0 0 0 0 0 0 0 17 53 0 27 305 28 51 314 280 0 199 +0 0 0 0 0
 0 0 17 309 0 308 304 315 54 47 278 0 0 -0 0 0 0 0 0 0 15 308 1452 0 309 17 0 -1
409286143 0 0 10485763 822083585 822083585 9386223 17 315 0 308 309 65 45 296 29
4 0 0 -0 0 0 0 0 0 0 17 65 0 308 315 304 63 92 261 0 296 -0 0 0 0 0 0 0 17 296 0
 316 317 195 63 315 294 0 224 +0 0 0 0 0 0 0 15 316 493 0 317 318 0 805307514 0
 0 3342336 704643079 704643079 9373068 17 317 0 316 50 296 66 224 221 0 319 -0 0
 0 0 0 0 0 17 195 0 316 296 50 45 313 192 0 315 +0 0 0 0 0 0 0 17 224 0 320 92 6
8 63 317 221 0 0 +0 0 0 0 0 0 0 15 320 510 321 212 322 323 335544357 0 0 3276800
 704643079 704643079 9373001 17 92 0 320 228 224 90 65 261 0 303 +0 0 0 0 0 0 0
 17 68 0 320 224 220 66 71 267 0 317 +0 0 0 0 0 0 0 17 220 0 320 68 74 69 324 21
7 0 0 +0 0 0 0 0 0 0 17 71 0 325 326 319 69 68 267 0 291 -0 0 0 0 0 0 0 15 325 1
389 0 327 328 0 -1409286140 0 0 10485763 822083585 822083585 9386133 17 326 0 32
5 327 71 34 291 289 0 0 -0 0 0 0 0 0 0 17 319 0 325 71 327 66 50 297 0 0 -0 0 0
 0 0 0 0 17 291 0 329 324 191 69 326 289 0 220 +0 0 0 0 0 0 0 15 329 481 0 324 3
30 0 805307498 0 0 3342336 704643079 704643079 9373072 17 324 0 329 44 291 72 22
0 217 0 331 -0 0 0 0 0 0 0 17 191 0 329 291 44 34 332 188 0 326 +0 0 0 0 0 0 0 1
7 44 0 329 191 324 40 331 292 0 332 +0 0 0 0 0 0 0 17 332 0 27 59 39 40 191 188
 0 333 -0 0 0 0 0 0 0 17 59 0 27 311 332 57 333 285 0 187 +0 0 0 0 0 0 0 17 39 0
 27 332 313 34 327 283 0 191 +0 0 0 0 0 0 0 17 333 0 334 331 335 40 59 285 0 0 -
0 0 0 0 0 0 0 15 334 1368 0 333 336 0 -1409286139 0 0 10485763 822083585 8220835
85 9386103 17 331 0 334 77 333 72 44 292 0 0 -0 0 0 0 0 0 0 17 335 0 334 333 77
 57 275 273 0 0 -0 0 0 0 0 0 0 17 77 0 334 335 331 75 74 269 0 275 -0 0 0 0 0 0
 0 17 275 0 337 338 187 75 335 273 0 216 +0 0 0 0 0 0 0 15 337 475 0 338 339 0 8
05307482 0 0 3342336 704643079 704643079 9373076 17 338 0 337 62 275 78 216 213
 0 340 -0 0 0 0 0 0 0 17 187 0 337 275 62 57 311 184 0 335 +0 0 0 0 0 0 0 17 216
 0 320 74 80 75 338 213 0 0 +0 0 0 0 0 0 0 17 74 0 320 220 216 72 77 269 0 324 +
0 0 0 0 0 0 0 17 80 0 320 216 212 78 101 271 0 338 +0 0 0 0 0 0 0 17 212 0 320 8
0 104 99 341 209 0 0 +0 0 0 0 0 0 0 17 101 0 342 343 340 99 80 271 0 260 -0 0 0
 0 0 0 0 15 342 1347 0 344 345 0 -1409286138 0 0 10485763 822083585 822083585 93
86073 17 343 0 342 344 101 93 260 258 0 0 -0 0 0 0 0 0 0 17 340 0 342 101 344 78
 62 276 0 0 -0 0 0 0 0 0 0 17 260 0 346 341 183 99 343 258 0 212 +0 0 0 0 0 0 0
 15 346 469 0 183 347 0 805307466 0 0 3342336 704643079 704643079 9373080 17 341
 0 346 98 260 102 212 209 0 348 -0 0 0 0 0 0 0 17 183 0 346 260 98 93 29 179 0 3
43 +0 0 0 0 0 0 0 17 98 0 346 183 341 96 348 248 0 29 +0 0 0 0 0 0 0 17 29 0 27
 25 95 96 183 179 0 30 -0 0 0 0 0 0 0 17 95 0 27 29 311 93 344 287 0 183 +0 0 0
 0 0 0 0 17 30 0 349 348 350 96 25 31 0 0 -0 0 0 0 0 0 0 15 349 1410 0 30 351 0
 -1409286141 0 0 10485763 822083585 822083585 9386163 17 348 0 349 83 30 102 98
 248 0 0 -0 0 0 0 0 0 0 17 350 0 349 30 83 11 301 300 0 0 -0 0 0 0 0 0 0 17 83 0
 349 350 348 81 104 265 0 301 -0 0 0 0 0 0 0 17 301 0 35 36 32 81 350 300 0 208
 +0 0 0 0 0 0 0 15 35 463 0 32 352 0 805307450 0 0 3342336 704643079 704643079 9
373084 17 36 0 35 33 301 84 208 205 0 37 -0 0 0 0 0 0 0 17 32 0 35 301 33 11 28
 176 0 350 +0 0 0 0 0 0 0 17 208 0 320 104 86 81 36 205 0 0 +0 0 0 0 0 0 0 17 10
4 0 320 212 208 102 83 265 0 341 +0 0 0 0 0 0 0 17 86 0 320 208 228 84 89 263 0
 36 +0 0 0 0 0 0 0 17 228 0 320 86 92 87 303 160 0 0 +0 0 0 0 0 0 0 17 89 0 353
 307 37 87 86 263 0 23 -0 0 0 0 0 0 0 15 353 1431 0 314 354 0 -1409286142 0 0 10
485763 822083585 822083585 9386193 17 307 0 353 314 89 51 23 10 0 0 -0 0 0 0 0 0
 0 17 37 0 353 89 314 84 33 38 0 0 -0 0 0 0 0 0 0 17 23 0 302 303 199 87 307 10
 0 228 +0 0 0 0 0 0 0 17 314 0 353 37 307 26 53 280 0 0 -0 0 0 0 0 0 0 14 255 35
4 1430 355 ?17 351 353 5 18 +0 0 17 351 22 -1409286142 0 0 10485762 822083585 82
2083585 9386192 81 1 355 1792 356 354 357 0 358 359 360 0 0 0 0 0 0 0 14 17 1451
 359 ?0 354 308 5 6 +0 0 0 354 22 -1409286143 0 0 10485762 822083585 822083585 9
386222 14 351 1409 358 ?354 328 349 5 361 +0 0 354 328 22 -1409286141 0 0 104857
62 822083585 822083585 9386162 51 18 1442 0 354 361 6 0 +-.0085 -.026 -.00433012
70189222 0 1 0 .003 0 0 1 0 0 0 0 0 0 0 13 22 94 0 0 362 0 0 0 9 15 0 0 0 0 0 0
 0 13 362 513 0 0 0 0 0 0 9 363 335544361 0 0 1179648 469762064 469762064 936682
3 14 15 187 364 ?365 0 366 5 367 -0 0 365 0 22 805307562 0 0 2293760 704643081 7
04643081 9377415 81 1 364 1775 356 15 368 0 369 370 371 0 0 0 0 0 0 0 14 365 175
 370 ?372 15 373 5 374 +0 0 372 15 22 805307546 0 0 2293760 704643081 704643081
 9377344 15 366 186 0 375 15 0 -1426063176 0 0 13631488 805306373 805306373 9377
414 51 367 92 0 15 376 374 0 +-.016 -.035 1959434878635765e-33 0 1 0 .0075 0 0 1
 0 0 0 0 0 0 0 50 255 376 79 0 322 377 367 0 +-3469446951953615e-33 -.0205 -3469
446951953615e-33 0 1 0 0 0 -1 0 0 0 0 0 0 0 51 374 93 0 365 367 378 0 +-.016 -.0
35 1959434878635765e-33 0 1 0 .0095 0 0 1 0 0 0 0 0 0 0 51 378 1358 0 345 374 37
9 0 +-.0235 -.026 -.004330127018922185 0 1 0 .003 0 0 1 0 0 0 0 0 0 0 14 345 134
6 380 ?336 322 342 5 378 +0 0 336 322 22 -1409286138 0 0 10485762 822083585 8220
83585 9386072 51 379 1379 0 336 378 381 0 +-.0235 -.026 .004330127018922195 0 1
 0 .003 0 0 1 0 0 0 0 0 0 0 14 336 1367 382 ?328 345 334 5 379 +0 0 328 345 22 -
1409286139 0 0 10485762 822083585 822083585 9386102 51 381 1400 0 328 379 361 0
 +-.016 -.026 .00866025403784439 0 1 0 .003 0 0 1 0 0 0 0 0 0 0 14 328 1388 383
 ?351 336 325 5 381 +0 0 351 336 22 -1409286140 0 0 10485762 822083585 822083585
 9386132 51 361 1421 0 351 381 18 0 +-.016 -.026 -.00866025403784438 0 1 0 .003
 0 0 1 0 0 0 0 0 0 0 81 1 383 1790 356 328 384 0 382 358 385 0 0 0 0 0 0 0 80 25
5 1 356 0 386 8001 0 0 0 0 3 5 0 0 0 FFFFTFTFFFFFFF2 0 0 0 0 0 0 0 81 1 384 1767
 387 328 0 383 388 389 390 0 0 0 0 0 0 0 81 1 382 1789 356 336 388 0 380 383 391
 0 0 0 0 0 0 0 81 1 358 1791 356 351 389 0 383 355 392 0 0 0 0 0 0 0 83 255 3 38
5 .682352941176471 .749019607843137 .749019607843137 0 0 0 0 0 0 0 81 1 389 1768
 387 351 0 358 384 357 393 0 0 0 0 0 0 0 83 3 392 .682352941176471 .749019607843
137 .749019607843137 0 0 0 0 0 0 0 80 1 387 394 395 9000 0 0 0 0 3 5 0 0 0 FFFFT
TTTFFFFFF1 0 0 0 0 0 0 0 81 1 357 1769 387 354 0 355 389 396 397 0 0 0 0 0 0 0 8
2 255 1 393 -1 0 0 0 0 0 0 0 81 1 396 1770 387 17 0 359 357 0 398 0 0 0 0 0 0 0
 82 1 397 -1 0 0 0 0 0 0 0 81 1 359 1793 356 17 396 0 355 0 399 0 0 0 0 0 0 0 82
 1 398 -1 0 0 0 0 0 0 0 83 3 399 .682352941176471 .749019607843137 .749019607843
137 0 0 0 0 0 0 0 79 255 11 395 TF_Data_int0 0 0 0 0 0 0 81 1 388 1766 387 336 0
 382 400 384 401 0 0 0 0 0 0 0 81 1 380 1788 356 345 400 0 402 382 403 0 0 0 0 0
 0 0 83 3 391 .682352941176471 .749019607843137 .749019607843137 0 0 0 0 0 0 0 8
1 1 400 1765 387 345 0 380 404 388 405 0 0 0 0 0 0 0 81 1 402 1787 356 322 404 0
 406 380 407 0 0 0 0 0 0 0 83 3 403 .682352941176471 .749019607843137 .749019607
843137 0 0 0 0 0 0 0 14 322 63 402 ?345 408 320 5 376 +0 0 345 408 22 335544365
 0 0 2228224 704643081 704643081 9370163 81 1 404 1764 387 322 409 402 410 400 4
11 0 0 0 0 0 0 0 81 1 406 1786 356 408 410 0 412 402 413 0 0 0 0 0 0 0 83 3 407
 .682352941176471 .749019607843137 .749019607843137 0 0 0 0 0 0 0 14 408 482 406
 ?322 414 415 5 416 -0 0 322 414 22 805307418 0 0 2293760 704643079 704643079 93
73065 81 1 410 1763 387 408 417 406 418 404 419 0 0 0 0 0 0 0 81 1 412 1785 356
 414 418 0 420 406 421 0 0 0 0 0 0 0 83 3 413 .682352941176471 .749019607843137
 .749019607843137 0 0 0 0 0 0 0 14 414 418 412 ?408 306 422 5 423 -312 312 408 3
06 22 335544357 16 0 2228227 704643079 704643079 9377398 81 1 418 1762 387 414 4
24 412 425 410 426 0 0 0 0 0 0 0 81 1 420 1784 356 306 425 0 427 412 428 0 0 0 0
 0 0 0 83 3 421 .682352941176471 .749019607843137 .749019607843137 0 0 0 0 0 0 0
 14 306 452 420 ?414 312 302 5 429 +0 0 414 312 22 805307434 0 0 2293760 7046430
79 704643079 9373087 81 1 425 1761 387 306 430 420 431 418 432 0 0 0 0 0 0 0 81
 1 427 1783 356 312 431 0 433 420 434 0 0 0 0 0 0 0 83 3 428 .682352941176471 .7
49019607843137 .749019607843137 0 0 0 0 0 0 0 14 312 494 427 ?306 352 435 5 423
 -414 414 306 352 22 335544357 16 0 2228226 704643079 704643079 9376918 81 1 431
 1760 387 312 436 427 437 425 438 0 0 0 0 0 0 0 81 1 433 1782 356 352 437 0 439
 427 440 0 0 0 0 0 0 0 83 3 434 .682352941176471 .749019607843137 .7490196078431
37 0 0 0 0 0 0 0 14 352 458 433 ?312 347 35 5 441 +0 0 312 347 22 805307450 0 0
 2293760 704643079 704643079 9373083 81 1 437 1759 387 352 442 433 443 431 444 0
 0 0 0 0 0 0 81 1 439 1781 356 347 443 0 445 433 446 0 0 0 0 0 0 0 83 3 440 .682
352941176471 .749019607843137 .749019607843137 0 0 0 0 0 0 0 14 347 464 439 ?352
 339 346 5 447 +0 0 352 339 22 805307466 0 0 2293760 704643079 704643079 9373079
 81 1 443 1758 387 347 448 439 449 437 450 0 0 0 0 0 0 0 81 1 445 1780 356 339 4
49 0 451 439 452 0 0 0 0 0 0 0 83 3 446 .682352941176471 .749019607843137 .74901
9607843137 0 0 0 0 0 0 0 14 339 470 445 ?347 330 337 5 453 +0 0 347 330 22 80530
7482 0 0 2293760 704643079 704643079 9373075 81 1 449 1757 387 339 454 445 455 4
43 456 0 0 0 0 0 0 0 81 1 451 1779 356 330 455 0 457 445 458 0 0 0 0 0 0 0 83 3
 452 .682352941176471 .749019607843137 .749019607843137 0 0 0 0 0 0 0 14 330 476
 451 ?339 318 329 5 459 +0 0 339 318 22 805307498 0 0 2293760 704643079 70464307
9 9373071 81 1 455 1756 387 330 460 451 461 449 462 0 0 0 0 0 0 0 81 1 457 1778
 356 318 461 0 463 451 464 0 0 0 0 0 0 0 83 3 458 .682352941176471 .749019607843
137 .749019607843137 0 0 0 0 0 0 0 14 318 488 457 ?330 372 316 5 465 +0 0 330 37
2 22 805307514 0 0 2293760 704643079 704643079 9373067 81 1 461 1755 387 318 466
 457 467 455 468 0 0 0 0 0 0 0 81 1 463 1777 356 372 467 0 370 457 469 0 0 0 0 0
 0 0 83 3 464 .682352941176471 .749019607843137 .749019607843137 0 0 0 0 0 0 0 1
4 372 15 463 ?318 365 470 5 377 -0 0 318 365 22 335544365 16 0 2228224 704643081
 704643081 9370089 81 1 467 1754 387 372 471 463 368 461 472 0 0 0 0 0 0 0 81 1
 370 1776 356 365 473 0 364 463 474 0 0 0 0 0 0 0 83 3 469 .682352941176471 .749
019607843137 .749019607843137 0 0 0 0 0 0 0 81 1 473 1749 387 365 475 370 476 47
7 478 0 0 0 0 0 0 0 83 3 474 .682352941176471 .749019607843137 .749019607843137
 0 0 0 0 0 0 0 81 3 475 1748 479 365 480 473 481 0 0 482 483 0 0 0 0 0 0 0 81 1
 476 1747 387 484 481 485 0 473 486 0 0 0 0 0 0 0 81 1 477 1750 387 363 487 488
 473 489 490 0 0 0 0 0 0 0 82 1 478 -1 0 0 0 0 0 0 0 14 363 235 488 ?484 0 491 4
92 493 +0 0 484 0 362 805307530 0 0 2293760 704643080 704643080 9369940 81 1 487
 1741 155 363 494 477 495 496 497 0 0 0 0 0 0 0 81 1 488 1771 356 363 477 0 0 48
5 498 0 0 0 0 0 0 0 81 1 489 1751 387 148 499 500 477 501 502 0 0 0 0 0 0 0 82 1
 490 -1 0 0 0 0 0 0 0 14 148 247 500 ?503 484 504 492 505 +0 0 503 484 362 33554
4361 16 0 2228224 704643080 704643080 9369837 81 1 499 1745 155 148 506 489 496
 0 507 0 0 0 0 0 0 0 81 1 500 1773 356 148 489 0 485 369 508 0 0 0 0 0 0 0 81 1
 501 1752 387 503 496 369 489 368 509 0 0 0 0 0 0 0 82 1 502 -1 0 0 0 0 0 0 0 14
 503 257 369 ?0 148 510 492 511 -0 0 0 148 362 335544361 0 0 2228224 704643080 7
04643080 9369911 81 1 496 1743 155 503 512 501 487 499 513 0 0 0 0 0 0 0 81 1 36
9 1774 356 503 501 0 500 364 514 0 0 0 0 0 0 0 81 1 368 1753 387 15 515 364 501
 467 516 0 0 0 0 0 0 0 82 1 509 -1 0 0 0 0 0 0 0 81 1 515 1713 517 15 518 368 25
5 480 519 0 0 0 0 0 0 0 82 1 516 -1 0 0 0 0 0 0 0 80 1 517 520 521 9000 0 0 0 0
 3 5 0 0 0 FFFFTTTFFFFFFF1 0 0 0 0 0 0 0 81 1 518 1712 155 15 0 515 252 522 523
 0 0 0 0 0 0 0 81 1 255 1711 517 204 0 0 524 515 525 0 0 0 0 0 0 0 81 1 480 1715
 517 365 522 475 515 526 527 0 0 0 0 0 0 0 82 1 519 4 0 0 0 0 0 0 0 81 1 522 171
4 155 365 0 480 518 409 528 0 0 0 0 0 0 0 81 1 526 1716 517 322 0 409 480 529 53
0 0 0 0 0 0 0 0 82 1 527 5 0 0 0 0 0 0 0 81 1 409 1717 155 322 526 404 522 417 5
31 0 0 0 0 0 0 0 81 1 529 1718 517 408 0 417 526 532 533 0 0 0 0 0 0 0 82 1 530
 16 0 0 0 0 0 0 0 81 1 417 1719 155 408 529 410 409 424 534 0 0 0 0 0 0 0 81 1 5
32 1720 517 414 535 424 529 536 537 0 0 0 0 0 0 0 82 1 533 15 0 0 0 0 0 0 0 81 1
 535 1612 538 414 0 532 321 539 540 0 0 0 0 0 0 0 81 1 424 1721 155 414 532 418
 417 466 541 0 0 0 0 0 0 0 81 1 536 1722 517 318 0 466 532 542 543 0 0 0 0 0 0 0
 82 1 537 14 0 0 0 0 0 0 0 81 1 466 1723 155 318 536 461 424 460 544 0 0 0 0 0 0
 0 81 1 542 1724 517 330 0 460 536 545 546 0 0 0 0 0 0 0 82 1 543 7 0 0 0 0 0 0
 0 81 1 460 1725 155 330 542 455 466 454 547 0 0 0 0 0 0 0 81 1 545 1726 517 339
 0 454 542 548 549 0 0 0 0 0 0 0 82 1 546 8 0 0 0 0 0 0 0 81 1 454 1727 155 339
 545 449 460 448 550 0 0 0 0 0 0 0 81 1 548 1728 517 347 0 448 545 551 552 0 0 0
 0 0 0 0 82 1 549 9 0 0 0 0 0 0 0 81 1 448 1729 155 347 548 443 454 442 553 0 0
 0 0 0 0 0 81 1 551 1730 517 352 0 442 548 554 555 0 0 0 0 0 0 0 82 1 552 10 0 0
 0 0 0 0 0 81 1 442 1731 155 352 551 437 448 430 556 0 0 0 0 0 0 0 81 1 554 1732
 517 306 0 430 551 557 558 0 0 0 0 0 0 0 82 1 555 11 0 0 0 0 0 0 0 81 1 430 1733
 155 306 554 425 442 471 559 0 0 0 0 0 0 0 81 1 557 1734 517 372 539 471 554 560
 561 0 0 0 0 0 0 0 82 1 558 13 0 0 0 0 0 0 0 81 1 539 1634 538 372 0 557 535 562
 563 0 0 0 0 0 0 0 81 1 471 1735 155 372 557 467 430 436 564 0 0 0 0 0 0 0 81 1
 560 1736 517 312 565 436 557 566 567 0 0 0 0 0 0 0 82 1 561 6 0 0 0 0 0 0 0 81
 1 565 1640 538 312 0 560 568 569 570 0 0 0 0 0 0 0 81 1 436 1737 155 312 560 43
1 471 495 571 0 0 0 0 0 0 0 81 1 566 1738 517 484 0 495 560 494 572 0 0 0 0 0 0
 0 82 1 567 12 0 0 0 0 0 0 0 14 484 241 485 ?148 363 149 492 573 -0 0 148 363 36
2 805307418 0 0 2293760 704643080 704643080 9369942 81 1 495 1739 155 484 566 48
1 436 487 574 0 0 0 0 0 0 0 81 1 494 1740 517 363 0 487 566 512 575 0 0 0 0 0 0
 0 82 1 572 1 0 0 0 0 0 0 0 81 1 512 1742 517 503 576 496 494 506 577 0 0 0 0 0
 0 0 82 1 575 0 0 0 0 0 0 0 0 81 1 576 1652 538 503 0 512 578 579 580 0 0 0 0 0
 0 0 81 1 506 1744 517 148 579 499 512 0 581 0 0 0 0 0 0 0 82 1 577 3 0 0 0 0 0
 0 0 81 1 579 1656 538 148 0 506 576 582 583 0 0 0 0 0 0 0 82 1 581 2 0 0 0 0 0
 0 0 80 1 538 142 584 9000 0 0 0 0 3 5 0 0 0 FFFFTTTTFFFFFF1 0 0 0 0 0 0 0 81 1
 582 1657 538 504 0 0 579 585 586 0 0 0 0 0 0 0 82 1 583 9369837 0 0 0 0 0 0 0 1
5 504 253 582 587 148 144 335544363 16 0 3276800 704643080 704643080 9369847 81
 1 585 1658 538 510 0 0 582 588 589 0 0 0 0 0 0 0 82 1 586 9369847 0 0 0 0 0 0 0
 15 510 263 585 173 503 590 335544363 0 0 3276800 704643080 704643080 9369932 81
 1 588 1659 538 590 0 0 585 0 591 0 0 0 0 0 0 0 82 1 589 9369847 0 0 0 0 0 0 0 1
5 590 265 588 592 503 0 335544361 0 0 3276800 704643080 704643080 9369925 82 1 5
91 9369846 0 0 0 0 0 0 0 17 592 0 590 592 592 133 169 166 0 0 -0 0 0 0 0 0 0 17
 169 0 149 150 136 133 592 166 0 592 +0 0 0 0 0 0 0 15 149 246 0 169 484 0 80530
7418 0 0 3342336 704643080 704643080 9369943 17 150 0 149 145 169 132 136 153 0
 0 -0 0 0 0 0 0 0 17 136 0 149 169 145 133 150 153 0 169 +0 0 0 0 0 0 0 17 173 0
 510 173 173 128 593 170 0 593 +0 0 0 0 0 0 0 17 593 0 491 139 131 128 173 170 0
 0 -0 0 0 0 0 0 0 15 491 240 0 593 363 0 805307530 0 0 3342336 704643080 7046430
80 9369941 17 139 0 491 159 593 124 131 163 0 159 -0 0 0 0 0 0 0 17 131 0 491 59
3 159 128 139 163 0 173 +0 0 0 0 0 0 0 17 159 0 491 131 139 124 587 152 0 587 +0
 0 0 0 0 0 0 17 587 0 504 587 587 124 159 152 0 0 -0 0 0 0 0 0 0 79 18 584 TF_To
pol_reference0 0 0 0 0 0 0 81 1 578 1642 538 422 0 0 569 576 594 0 0 0 0 0 0 0 8
2 1 580 9369837 0 0 0 0 0 0 0 15 422 424 578 203 414 595 335544359 16 0 3276800
 704643079 704643079 9372806 81 1 569 1641 538 323 0 0 565 578 596 0 0 0 0 0 0 0
 82 1 594 9372806 0 0 0 0 0 0 0 15 323 441 569 597 322 0 335544359 0 0 3276800 7
04643079 704643079 9373034 82 1 596 9372806 0 0 0 0 0 0 0 17 597 0 323 597 597 1
20 231 225 0 0 -0 0 0 0 0 0 0 17 231 0 415 127 123 120 597 225 0 597 +0 0 0 0 0
 0 0 15 415 487 0 231 408 0 805307418 0 0 3342336 704643079 704643079 9373066 17
 127 0 415 598 231 119 123 200 0 203 -0 0 0 0 0 0 0 17 123 0 415 231 598 120 127
 200 0 231 +0 0 0 0 0 0 0 17 598 0 415 123 127 119 203 196 0 0 -0 0 0 0 0 0 0 17
 203 0 422 203 203 119 598 196 0 598 +0 0 0 0 0 0 0 15 595 426 0 237 414 0 -1426
063182 0 0 13631488 805306373 805306373 9377390 17 237 0 595 237 237 116 375 234
 0 0 +0 0 0 0 0 0 0 17 375 0 366 111 118 116 237 234 0 237 -0 0 0 0 0 0 0 17 111
 0 366 599 375 108 118 238 0 247 -0 0 0 0 0 0 0 17 118 0 366 375 599 116 111 238
 0 375 +0 0 0 0 0 0 0 17 599 0 366 118 111 108 247 243 0 0 -0 0 0 0 0 0 0 17 247
 0 470 247 247 108 599 243 0 599 +0 0 0 0 0 0 0 15 470 21 562 247 372 600 335544
367 16 0 3276800 704643081 704643081 9370099 81 1 562 1635 538 470 0 0 539 568 6
01 0 0 0 0 0 0 0 15 600 14 568 602 372 0 335544365 16 0 3276800 704643081 704643
081 9370098 81 1 568 1636 538 600 0 0 562 565 603 0 0 0 0 0 0 0 17 602 0 600 602
 602 112 242 239 0 0 -0 0 0 0 0 0 0 17 242 0 373 253 115 112 602 239 0 602 +0 0
 0 0 0 0 0 15 373 88 0 253 365 0 805307546 0 0 3342336 704643081 704643081 93701
95 17 253 0 373 256 242 105 115 244 0 0 +0 0 0 0 0 0 0 17 115 0 373 242 256 112
 253 244 0 242 -0 0 0 0 0 0 0 17 256 0 373 115 253 105 107 204 0 253 +0 0 0 0 0
 0 0 17 107 0 435 107 107 105 256 204 0 256 -0 0 0 0 0 0 0 15 435 500 0 107 312
 27 -1426063185 0 0 13631488 805306373 805306373 9377383 82 1 603 9370098 0 0 0
 0 0 0 0 82 1 601 9370099 0 0 0 0 0 0 0 80 1 155 604 605 9000 0 0 0 0 3 5 0 0 0
 FFFFTFTFFFFFFF1 0 0 0 0 0 0 0 81 3 481 1746 479 484 495 476 0 475 0 606 607 0 0
 0 0 0 0 0 82 1 574 704643080 0 0 0 0 0 0 0 80 3 479 608 609 9000 0 0 0 0 3 6 0
 0 0 FFFFTFFFFFFFFF9 7 1 0 0 0 0 0 0 0 87 255 2 606 -.016 -.0075 195943487863576
5e-33 0 -1 0 0 0 0 0 0 0 0 82 1 607 1 0 0 0 0 0 0 0 79 17 609 TF_Thread_MPS_ptr0
 0 0 0 0 0 0 79 15 605 TF_Boolean_diff0 0 0 0 0 0 0 81 1 485 1772 356 484 476 0
 488 500 610 0 0 0 0 0 0 0 13 492 193 0 1 0 363 0 0 21 0 0 0 0 0 0 0 0 51 573 52
5 0 484 493 423 0 --.016 -.0075 1959434878635765e-33 0 -1 0 .0069 0 0 -1 0 0 0 0
 0 0 0 51 493 526 0 363 511 573 0 --.016 -.0075 1959434878635765e-33 0 -1 0 .004
775 0 0 -1 0 0 0 0 0 0 0 50 423 524 0 312 573 416 0 +-3469446951953615e-33 -.026
 -3469446951953615e-33 0 1 0 0 0 -1 0 0 0 0 0 0 0 51 416 522 0 408 423 465 0 +-.
016 -.026 1959434878635765e-33 0 1 0 .0069 0 0 1 0 0 0 0 0 0 0 50 465 521 0 318
 416 459 0 +-.016 -.026 .01212435565298214 .5 0 .866025403784438 .86602540378443
8 0 -.5 0 0 0 0 0 0 0 50 459 520 0 330 465 453 0 +-.0265 -.026 .0060621778264910
8 -.5 0 .866025403784439 .866025403784439 0 .5 0 0 0 0 0 0 0 50 453 519 0 339 45
9 447 0 +-.0265 -.026 -.00606217782649106 -1 0 697210413598772e-30 6972104135987
72e-30 0 1 0 0 0 0 0 0 0 50 447 518 0 347 453 441 0 +-.016 -.026 -.0121243556529
8214 -.5 0 -.866025403784439 -.866025403784439 0 .5 0 0 0 0 0 0 0 50 441 517 0 3
52 447 429 0 +-.0055 -.026 -.00606217782649108 .5 0 -.866025403784439 -.86602540
3784439 0 -.5 0 0 0 0 0 0 0 50 429 516 0 306 441 377 0 +-.0055 -.026 .0060621778
2649106 1 0 -12490009027033e-29 -12490009027033e-29 0 -1 0 0 0 0 0 0 0 50 377 16
 0 372 429 376 0 +-3469446951953615e-33 -.035 -3469446951953615e-33 0 1 0 0 0 -1
 0 0 0 0 0 0 0 50 511 527 0 503 505 493 0 +-3469446951953615e-33 -.0205 -3469446
951953615e-33 0 1 0 0 0 -1 0 0 0 0 0 0 0 50 505 528 0 148 0 511 0 +-346944695195
3615e-33 -.0075 -3469446951953615e-33 0 1 0 0 0 -1 0 0 0 0 0 0 0 19 21 601 0 1 1
6 9 492 S0 0 0 0 0 0 0 19 16 95 0 1 0 21 5 S0 0 0 0 0 0 0 83 3 610 .682352941176
471 .749019607843137 .749019607843137 0 0 0 0 0 0 0 82 1 571 704643079 0 0 0 0 0
 0 0 82 1 570 9372766 0 0 0 0 0 0 0 82 1 564 704643081 0 0 0 0 0 0 0 82 1 563 93
70089 0 0 0 0 0 0 0 82 1 559 704643079 0 0 0 0 0 0 0 82 1 556 704643079 0 0 0 0
 0 0 0 82 1 553 704643079 0 0 0 0 0 0 0 82 1 550 704643079 0 0 0 0 0 0 0 82 1 54
7 704643079 0 0 0 0 0 0 0 82 1 544 704643079 0 0 0 0 0 0 0 82 1 541 704643079 0
 0 0 0 0 0 0 81 1 321 1590 538 320 0 0 310 535 611 0 0 0 0 0 0 0 82 1 540 937276
6 0 0 0 0 0 0 0 81 1 310 1589 538 27 0 0 612 321 613 0 0 0 0 0 0 0 82 1 611 9372
791 0 0 0 0 0 0 0 81 1 612 1583 538 243 0 614 615 310 616 0 0 0 0 0 0 0 82 1 613
 9372791 0 0 0 0 0 0 0 81 1 614 1705 517 243 612 246 617 618 619 0 0 0 0 0 0 0 8
1 1 615 1579 538 239 0 617 620 612 621 0 0 0 0 0 0 0 82 1 616 9370087 0 0 0 0 0
 0 0 81 1 617 1703 517 239 615 241 236 614 622 0 0 0 0 0 0 0 81 1 620 1571 538 2
25 0 623 624 615 625 0 0 0 0 0 0 0 82 1 621 9370093 0 0 0 0 0 0 0 81 1 623 1698
 517 225 620 230 227 626 627 0 0 0 0 0 0 0 81 1 624 1564 538 160 0 628 629 620 6
30 0 0 0 0 0 0 0 82 1 625 9372764 0 0 0 0 0 0 0 81 1 628 1696 155 160 624 227 63
1 230 632 0 0 0 0 0 0 0 81 1 629 1560 538 221 0 631 633 624 634 0 0 0 0 0 0 0 82
 1 630 9372776 0 0 0 0 0 0 0 81 1 631 1694 155 221 629 223 635 628 636 0 0 0 0 0
 0 0 81 1 633 1556 538 217 0 635 637 629 638 0 0 0 0 0 0 0 82 1 634 9372770 0 0
 0 0 0 0 0 81 1 635 1692 155 217 633 219 639 631 640 0 0 0 0 0 0 0 81 1 637 1552
 538 213 0 639 641 633 642 0 0 0 0 0 0 0 82 1 638 9372804 0 0 0 0 0 0 0 81 1 639
 1690 155 213 637 215 643 635 644 0 0 0 0 0 0 0 81 1 641 1548 538 209 0 643 645
 637 646 0 0 0 0 0 0 0 82 1 642 9372799 0 0 0 0 0 0 0 81 1 643 1688 155 209 641
 211 647 639 648 0 0 0 0 0 0 0 81 1 645 1544 538 205 0 647 649 641 650 0 0 0 0 0
 0 0 82 1 646 9372797 0 0 0 0 0 0 0 81 1 647 1686 155 205 645 207 202 643 651 0
 0 0 0 0 0 0 81 1 649 1543 538 196 0 652 653 645 654 0 0 0 0 0 0 0 82 1 650 9372
795 0 0 0 0 0 0 0 81 1 652 1684 517 196 649 202 198 207 655 0 0 0 0 0 0 0 81 1 6
53 1536 538 180 0 656 657 649 658 0 0 0 0 0 0 0 82 1 654 9372764 0 0 0 0 0 0 0 8
1 1 656 1682 155 180 653 198 659 202 660 0 0 0 0 0 0 0 81 1 657 1532 538 192 0 6
59 661 653 662 0 0 0 0 0 0 0 82 1 658 9372776 0 0 0 0 0 0 0 81 1 659 1680 155 19
2 657 194 663 656 664 0 0 0 0 0 0 0 81 1 661 1528 538 188 0 663 665 657 666 0 0
 0 0 0 0 0 82 1 662 9372770 0 0 0 0 0 0 0 81 1 663 1678 155 188 661 190 667 659
 668 0 0 0 0 0 0 0 81 1 665 1524 538 184 0 667 669 661 670 0 0 0 0 0 0 0 82 1 66
6 9372804 0 0 0 0 0 0 0 81 1 667 1676 155 184 665 186 671 663 672 0 0 0 0 0 0 0
 81 1 669 1520 538 179 0 671 673 665 674 0 0 0 0 0 0 0 82 1 670 9372799 0 0 0 0
 0 0 0 81 1 671 1674 155 179 669 182 675 667 676 0 0 0 0 0 0 0 81 1 673 1516 538
 176 0 675 677 669 678 0 0 0 0 0 0 0 82 1 674 9372797 0 0 0 0 0 0 0 81 1 675 167
2 155 176 673 178 174 671 679 0 0 0 0 0 0 0 81 1 677 1512 538 170 0 680 681 673
 682 0 0 0 0 0 0 0 82 1 678 9372795 0 0 0 0 0 0 0 81 1 680 1668 517 170 677 172
 683 684 685 0 0 0 0 0 0 0 81 1 681 1508 538 166 0 683 686 677 687 0 0 0 0 0 0 0
 82 1 682 9369835 0 0 0 0 0 0 0 81 1 683 1666 517 166 681 168 688 680 689 0 0 0
 0 0 0 0 81 1 686 1501 538 152 0 690 691 681 692 0 0 0 0 0 0 0 82 1 687 9369841
 0 0 0 0 0 0 0 81 1 690 1662 517 152 686 157 156 688 693 0 0 0 0 0 0 0 81 1 691
 1497 538 146 0 156 147 686 694 0 0 0 0 0 0 0 82 1 692 9369835 0 0 0 0 0 0 0 81
 1 156 1660 517 146 691 151 0 690 695 0 0 0 0 0 0 0 81 1 147 1493 538 144 0 0 14
3 691 696 0 0 0 0 0 0 0 82 1 694 9369841 0 0 0 0 0 0 0 81 1 143 1491 538 132 0 1
40 697 147 698 0 0 0 0 0 0 0 82 1 696 9369846 0 0 0 0 0 0 0 81 1 697 1489 538 12
4 0 138 699 143 700 0 0 0 0 0 0 0 82 1 698 9369842 0 0 0 0 0 0 0 81 1 138 1490 1
42 124 697 0 135 140 0 0 0 0 0 0 0 0 81 1 699 1487 538 133 0 135 701 697 702 0 0
 0 0 0 0 0 82 1 700 9369836 0 0 0 0 0 0 0 81 1 135 1488 142 133 699 0 130 138 0
 0 0 0 0 0 0 0 81 1 701 1485 538 128 0 130 703 699 704 0 0 0 0 0 0 0 82 1 702 93
69842 0 0 0 0 0 0 0 81 1 130 1486 142 128 701 0 126 135 0 0 0 0 0 0 0 0 81 1 703
 1483 538 119 0 126 705 701 706 0 0 0 0 0 0 0 82 1 704 9369836 0 0 0 0 0 0 0 81
 1 126 1484 142 119 703 0 122 130 0 0 0 0 0 0 0 0 81 1 705 1481 538 120 0 122 70
7 703 708 0 0 0 0 0 0 0 82 1 706 9372765 0 0 0 0 0 0 0 81 1 122 1482 142 120 705
 0 114 126 0 0 0 0 0 0 0 0 81 1 707 1479 538 112 0 114 709 705 710 0 0 0 0 0 0 0
 82 1 708 9372765 0 0 0 0 0 0 0 81 1 114 1480 142 112 707 0 110 122 0 0 0 0 0 0
 0 0 81 1 709 1477 538 108 0 110 0 707 711 0 0 0 0 0 0 0 82 1 710 9370094 0 0 0
 0 0 0 0 81 1 110 1478 142 108 709 0 0 114 0 0 0 0 0 0 0 0 82 1 711 9370088 0 0
 0 0 0 0 0 80 1 142 155 712 9000 0 0 0 0 3 5 0 0 0 FFFFFFFTFFFFFF1 0 0 0 0 0 0 0
 79 14 712 TF_Start_Point0 0 0 0 0 0 0 82 1 695 45 0 0 0 0 0 0 0 81 1 157 1663 1
55 152 690 0 151 162 713 0 0 0 0 0 0 0 81 1 688 1664 517 153 0 162 690 683 714 0
 0 0 0 0 0 0 82 1 693 44 0 0 0 0 0 0 0 81 1 162 1665 155 153 688 0 157 168 715 0
 0 0 0 0 0 0 82 1 714 46 0 0 0 0 0 0 0 81 1 168 1667 155 166 683 0 162 172 716 0
 0 0 0 0 0 0 82 1 715 704643080 0 0 0 0 0 0 0 81 1 172 1669 155 170 680 0 168 17
4 717 0 0 0 0 0 0 0 82 1 716 704643080 0 0 0 0 0 0 0 81 1 174 1671 155 163 684 0
 172 675 718 0 0 0 0 0 0 0 82 1 717 704643080 0 0 0 0 0 0 0 81 1 684 1670 517 16
3 0 174 680 178 719 0 0 0 0 0 0 0 82 1 718 704643080 0 0 0 0 0 0 0 81 1 178 1673
 517 176 675 0 684 182 720 0 0 0 0 0 0 0 82 1 719 47 0 0 0 0 0 0 0 81 1 182 1675
 517 179 671 0 178 186 721 0 0 0 0 0 0 0 82 1 720 34 0 0 0 0 0 0 0 81 1 186 1677
 517 184 667 0 182 190 722 0 0 0 0 0 0 0 82 1 721 33 0 0 0 0 0 0 0 81 1 190 1679
 517 188 663 0 186 194 723 0 0 0 0 0 0 0 82 1 722 32 0 0 0 0 0 0 0 81 1 194 1681
 517 192 659 0 190 198 724 0 0 0 0 0 0 0 82 1 723 31 0 0 0 0 0 0 0 81 1 198 1683
 517 180 656 0 194 652 725 0 0 0 0 0 0 0 82 1 724 30 0 0 0 0 0 0 0 82 1 725 35 0
 0 0 0 0 0 0 82 1 713 704643080 0 0 0 0 0 0 0 82 1 689 49 0 0 0 0 0 0 0 82 1 685
 48 0 0 0 0 0 0 0 82 1 679 704643079 0 0 0 0 0 0 0 82 1 676 704643079 0 0 0 0 0
 0 0 82 1 672 704643079 0 0 0 0 0 0 0 82 1 668 704643079 0 0 0 0 0 0 0 82 1 664
 704643079 0 0 0 0 0 0 0 81 1 202 1685 155 196 652 0 656 647 726 0 0 0 0 0 0 0 8
2 1 660 704643079 0 0 0 0 0 0 0 82 1 726 704643079 0 0 0 0 0 0 0 81 1 207 1687 5
17 205 647 0 652 211 727 0 0 0 0 0 0 0 82 1 655 29 0 0 0 0 0 0 0 81 1 211 1689 5
17 209 643 0 207 215 728 0 0 0 0 0 0 0 82 1 727 42 0 0 0 0 0 0 0 81 1 215 1691 5
17 213 639 0 211 219 729 0 0 0 0 0 0 0 82 1 728 41 0 0 0 0 0 0 0 81 1 219 1693 5
17 217 635 0 215 223 730 0 0 0 0 0 0 0 82 1 729 40 0 0 0 0 0 0 0 81 1 223 1695 5
17 221 631 0 219 227 731 0 0 0 0 0 0 0 82 1 730 39 0 0 0 0 0 0 0 81 1 227 1697 5
17 160 628 0 223 623 732 0 0 0 0 0 0 0 82 1 731 38 0 0 0 0 0 0 0 82 1 732 43 0 0
 0 0 0 0 0 82 1 651 704643079 0 0 0 0 0 0 0 82 1 648 704643079 0 0 0 0 0 0 0 82
 1 644 704643079 0 0 0 0 0 0 0 82 1 640 704643079 0 0 0 0 0 0 0 82 1 636 7046430
79 0 0 0 0 0 0 0 81 1 230 1699 155 225 623 0 628 233 733 0 0 0 0 0 0 0 82 1 632
 704643079 0 0 0 0 0 0 0 81 1 233 1701 155 200 626 0 230 241 734 0 0 0 0 0 0 0 8
2 1 733 704643079 0 0 0 0 0 0 0 81 1 626 1700 517 200 0 233 623 236 735 0 0 0 0
 0 0 0 81 1 241 1704 155 239 617 0 233 246 736 0 0 0 0 0 0 0 82 1 734 704643079
 0 0 0 0 0 0 0 81 1 246 1706 155 243 614 0 241 250 737 0 0 0 0 0 0 0 82 1 736 70
4643081 0 0 0 0 0 0 0 81 1 250 1708 155 238 618 0 246 252 738 0 0 0 0 0 0 0 82 1
 737 704643081 0 0 0 0 0 0 0 81 1 618 1707 517 238 0 250 614 524 739 0 0 0 0 0 0
 0 81 1 252 1710 155 244 524 0 250 518 740 0 0 0 0 0 0 0 82 1 738 704643081 0 0
 0 0 0 0 0 81 1 524 1709 517 244 0 252 618 255 741 0 0 0 0 0 0 0 82 1 740 704643
081 0 0 0 0 0 0 0 82 1 741 19 0 0 0 0 0 0 0 82 1 739 20 0 0 0 0 0 0 0 81 1 236 1
702 517 234 0 0 626 617 742 0 0 0 0 0 0 0 82 1 735 36 0 0 0 0 0 0 0 82 1 742 21
 0 0 0 0 0 0 0 82 1 627 37 0 0 0 0 0 0 0 82 1 622 18 0 0 0 0 0 0 0 82 1 619 17 0
 0 0 0 0 0 0 82 1 534 704643079 0 0 0 0 0 0 0 82 1 531 704643081 0 0 0 0 0 0 0 8
2 1 528 704643081 0 0 0 0 0 0 0 82 1 525 22 0 0 0 0 0 0 0 82 1 523 704643081 0 0
 0 0 0 0 0 79 10 521 TF_Boolean0 0 0 0 0 0 0 83 3 514 .682352941176471 .74901960
7843137 .749019607843137 0 0 0 0 0 0 0 82 1 513 704643080 0 0 0 0 0 0 0 83 3 508
 .682352941176471 .749019607843137 .749019607843137 0 0 0 0 0 0 0 82 1 507 70464
3080 0 0 0 0 0 0 0 83 3 498 .682352941176471 .749019607843137 .749019607843137 0
 0 0 0 0 0 0 82 1 497 704643080 0 0 0 0 0 0 0 82 1 486 -1 0 0 0 0 0 0 0 87 2 482
 -.016 -.035 1959434878635765e-33 0 1 0 0 0 0 0 0 0 0 82 1 483 1 0 0 0 0 0 0 0 8
2 1 472 -1 0 0 0 0 0 0 0 82 1 468 -1 0 0 0 0 0 0 0 82 1 462 -1 0 0 0 0 0 0 0 82
 1 456 -1 0 0 0 0 0 0 0 82 1 450 -1 0 0 0 0 0 0 0 82 1 444 -1 0 0 0 0 0 0 0 82 1
 438 -1 0 0 0 0 0 0 0 82 1 432 -1 0 0 0 0 0 0 0 82 1 426 -1 0 0 0 0 0 0 0 82 1 4
19 -1 0 0 0 0 0 0 0 82 1 411 -1 0 0 0 0 0 0 0 82 1 405 -1 0 0 0 0 0 0 0 82 1 401
 -1 0 0 0 0 0 0 0 82 1 390 -1 0 0 0 0 0 0 0 79 15 386 SDL/TYSA_COLOUR0 0 0 0 0 0
 0 83 3 371 .682352941176471 .749019607843137 .749019607843137 0 0 0 0 0 0 0 83
 3 360 .682352941176471 .749019607843137 .749019607843137 0 0 0 0 0 0 0 17 28 0
 27 53 25 26 32 176 0 314 -0 0 0 0 0 0 0 17 311 0 27 95 59 60 187 184 0 344 -0 0
 0 0 0 0 0 17 344 0 342 340 343 60 95 287 0 0 -0 0 0 0 0 0 0 17 62 0 337 187 338
 60 340 276 0 311 +0 0 0 0 0 0 0 17 313 0 27 39 47 48 195 192 0 327 -0 0 0 0 0 0
 0 17 327 0 325 319 326 48 39 283 0 0 -0 0 0 0 0 0 0 17 50 0 316 195 317 48 319
 297 0 313 +0 0 0 0 0 0 0 82 1 158 704643080 0 0 0 0 0 0 0 74 4 CI16 index_map_o
ffset0 0 1 dCCZ20 14 8 0 0 2 588 140 506 499 475 396 359 0 0 0 0 0 0 0 0 0 0 0 0
 0 0 0 0 0 0 0 80 2 12 743 744 8004 0 0 0 0 3 5 0 0 0 FFTFFFFFFFFFFF2 3 0 0 0 0
 0 0 0 83 1 13 78e2 0 0 0 0 0 0 0 79 16 744 SDL/TYSA_DENSITY0 0 0 0 0 0 0 1 0 
