%
M48
M72
T01C0.0157
T02C0.0236
T03C0.0787
%
T01
X3953Y3351
X1962Y4229
X1588Y4229
X1214Y4229
X859Y4229
X505Y4229
X505Y4604
X859Y4604
X1214Y4604
X1588Y4604
X1962Y4604
X1942Y4978
X1588Y4978
X1214Y4978
X859Y4978
X505Y4978
X4690Y6235
X5543Y6371
X6155Y6560
X9480Y6458
X9834Y6616
X9834Y6281
X9480Y6104
X9834Y5946
X10317Y5541
X10691Y5403
X11045Y5285
X10494Y5049
X10848Y4911
X11203Y4793
X10848Y4478
X10494Y4576
X11203Y4380
X10848Y3986
X10514Y4124
X10514Y3769
X10789Y3474
X10533Y3218
X10750Y2884
X11025Y2628
X10435Y2667
X9982Y2549
X9707Y2254
X9411Y2529
X9136Y2254
X8840Y2549
X8368Y2549
X8033Y2667
X7679Y2667
X7640Y3041
X7974Y3041
X8329Y3041
X8584Y2254
X10277Y2254
X10750Y2254
X11045Y3159
X11183Y3868
X10140Y5187
X9785Y5324
T02
X642Y513
X1232Y513
X1823Y513
X1823Y1104
X1232Y1104
X642Y1104
X2216Y1891
X2807Y1891
X5169Y1694
X5760Y1694
X5760Y1104
X5169Y1104
X5169Y513
X4579Y513
X3988Y513
X3397Y513
X5760Y513
X6350Y513
X6941Y513
X7531Y513
X8122Y513
X8712Y513
X9303Y513
X9894Y513
X10484Y513
X11075Y513
X11665Y513
X12256Y513
X12846Y513
X13437Y513
X14027Y513
X14027Y1104
X13437Y1104
X12846Y1104
X12846Y1694
X13437Y1694
X14027Y1694
X8988Y3781
X8516Y3781
X8516Y4194
X8988Y4194
X8043Y4194
X7492Y4234
X7492Y4667
X8043Y4667
X7492Y5100
X6980Y5100
X6980Y4667
X8890Y6242
X8437Y6340
X8004Y6340
X8004Y6714
X8437Y6714
X8890Y6714
X4303Y7443
X3732Y7443
X3161Y7443
X2571Y7443
X1960Y7443
X1350Y7443
X760Y7443
T03
X13634Y5021
X13634Y2856
M30
