G75*
G70*
%OFA0B0*%
%FSLAX24Y24*%
%IPPOS*%
%LPD*%
%AMOC8*
5,1,8,0,0,1.08239X$1,22.5*
%
%ADD10C,0.0000*%
%ADD11R,0.1969X0.2047*%
%ADD12C,0.0277*%
%ADD13C,0.0177*%
%ADD14C,0.0197*%
%ADD15C,0.0356*%
%ADD16R,0.1181X0.1181*%
%ADD17C,0.0150*%
%ADD18C,0.1181*%
%ADD19C,0.0181*%
D10*
X000228Y000100D02*
X000228Y007777D01*
X014795Y007777D01*
X014795Y000100D01*
X000228Y000100D01*
D11*
X001321Y004155D03*
X005592Y004155D03*
D12*
X003953Y003351D03*
X001962Y004229D03*
X001588Y004229D03*
X001214Y004229D03*
X000859Y004229D03*
X000505Y004229D03*
X000505Y004604D03*
X000859Y004604D03*
X001214Y004604D03*
X001588Y004604D03*
X001962Y004604D03*
X001942Y004978D03*
X001588Y004978D03*
X001214Y004978D03*
X000859Y004978D03*
X000505Y004978D03*
X004690Y006235D03*
X005543Y006371D03*
X006155Y006560D03*
X009480Y006458D03*
X009834Y006616D03*
X009834Y006281D03*
X009480Y006104D03*
X009834Y005946D03*
X010317Y005541D03*
X010691Y005403D03*
X011045Y005285D03*
X010494Y005049D03*
X010848Y004911D03*
X011203Y004793D03*
X010848Y004478D03*
X010494Y004576D03*
X011203Y004380D03*
X010848Y003986D03*
X010514Y004124D03*
X010514Y003769D03*
X010789Y003474D03*
X010533Y003218D03*
X010750Y002884D03*
X011025Y002628D03*
X010435Y002667D03*
X009982Y002549D03*
X009707Y002254D03*
X009411Y002529D03*
X009136Y002254D03*
X008840Y002549D03*
X008368Y002549D03*
X008033Y002667D03*
X007679Y002667D03*
X007640Y003041D03*
X007974Y003041D03*
X008329Y003041D03*
X008584Y002254D03*
X010277Y002254D03*
X010750Y002254D03*
X011045Y003159D03*
X011183Y003868D03*
X010140Y005187D03*
X009785Y005324D03*
D13*
X006155Y006560D02*
X006039Y006677D01*
X005172Y006677D01*
X004690Y006235D01*
X005334Y006371D02*
X003953Y004990D01*
X003953Y003351D01*
X005334Y006371D02*
X005543Y006371D01*
D14*
X005840Y006351D02*
X005944Y006351D01*
X005903Y006392D02*
X005987Y006308D01*
X006096Y006263D01*
X006214Y006263D01*
X006324Y006308D01*
X006407Y006392D01*
X006453Y006501D01*
X006453Y006619D01*
X006407Y006728D01*
X006324Y006812D01*
X006214Y006857D01*
X006207Y006857D01*
X006178Y006886D01*
X006088Y006924D01*
X005177Y006924D01*
X005133Y006926D01*
X005128Y006924D01*
X005122Y006924D01*
X005082Y006907D01*
X005041Y006892D01*
X005037Y006888D01*
X005032Y006886D01*
X005001Y006855D01*
X004649Y006532D01*
X004631Y006532D01*
X004522Y006487D01*
X004438Y006403D01*
X004393Y006294D01*
X004393Y006176D01*
X004438Y006067D01*
X004522Y005983D01*
X004575Y005961D01*
X003813Y005200D01*
X003744Y005130D01*
X003706Y005039D01*
X003706Y003524D01*
X003701Y003520D01*
X003656Y003410D01*
X003656Y003292D01*
X003701Y003183D01*
X003785Y003099D01*
X003894Y003054D01*
X004012Y003054D01*
X004121Y003099D01*
X004205Y003183D01*
X004250Y003292D01*
X004250Y003410D01*
X004205Y003520D01*
X004200Y003524D01*
X004200Y004888D01*
X004450Y005138D01*
X004450Y003066D01*
X004542Y002973D01*
X006434Y002973D01*
X006936Y002471D01*
X007146Y002260D01*
X007422Y002146D01*
X008048Y002146D01*
X008209Y001985D01*
X008485Y001871D01*
X010751Y001871D01*
X011026Y001985D01*
X011184Y002142D01*
X011395Y002353D01*
X011509Y002628D01*
X011509Y004837D01*
X011510Y004841D01*
X011509Y004986D01*
X011509Y005131D01*
X011507Y005135D01*
X011507Y005139D01*
X011450Y005272D01*
X011395Y005406D01*
X011392Y005409D01*
X011390Y005413D01*
X011286Y005514D01*
X011184Y005617D01*
X011180Y005619D01*
X010623Y006163D01*
X010623Y006489D01*
X010509Y006764D01*
X010298Y006975D01*
X010023Y007089D01*
X009725Y007089D01*
X009450Y006975D01*
X009239Y006764D01*
X009125Y006489D01*
X009125Y005993D01*
X009123Y005989D01*
X009125Y005844D01*
X009125Y005699D01*
X009127Y005695D01*
X009127Y005691D01*
X009183Y005558D01*
X009239Y005424D01*
X009242Y005421D01*
X009244Y005417D01*
X009347Y005315D01*
X009450Y005213D01*
X009454Y005211D01*
X010011Y004667D01*
X010011Y003369D01*
X008944Y003369D01*
X008782Y003530D01*
X008507Y003644D01*
X007881Y003644D01*
X006853Y004672D01*
X006735Y004721D01*
X006735Y005244D01*
X006642Y005337D01*
X004649Y005337D01*
X005414Y006102D01*
X005484Y006074D01*
X005602Y006074D01*
X005711Y006119D01*
X005795Y006203D01*
X005840Y006312D01*
X005840Y006430D01*
X005888Y006430D01*
X005903Y006392D01*
X005748Y006156D02*
X009125Y006156D01*
X009125Y006351D02*
X006367Y006351D01*
X006453Y006547D02*
X009149Y006547D01*
X009230Y006742D02*
X006394Y006742D01*
X005273Y005961D02*
X009124Y005961D01*
X009125Y005765D02*
X005077Y005765D01*
X004882Y005570D02*
X009178Y005570D01*
X009287Y005374D02*
X004686Y005374D01*
X004183Y005570D02*
X000427Y005570D01*
X000427Y005765D02*
X004379Y005765D01*
X004574Y005961D02*
X000427Y005961D01*
X000427Y006156D02*
X004401Y006156D01*
X004417Y006351D02*
X000427Y006351D01*
X000427Y006547D02*
X004665Y006547D01*
X004877Y006742D02*
X000427Y006742D01*
X000427Y006937D02*
X009412Y006937D01*
X010336Y006937D02*
X014539Y006937D01*
X014539Y007133D02*
X000427Y007133D01*
X000427Y007328D02*
X014539Y007328D01*
X014539Y007523D02*
X000427Y007523D01*
X000427Y007541D02*
X014539Y007541D01*
X014539Y000376D01*
X000427Y000376D01*
X000427Y002973D01*
X002371Y002973D01*
X002463Y003066D01*
X002463Y005244D01*
X002371Y005337D01*
X000427Y005337D01*
X000427Y007541D01*
X000427Y005374D02*
X003988Y005374D01*
X003793Y005179D02*
X002463Y005179D01*
X002463Y004984D02*
X003706Y004984D01*
X003706Y004788D02*
X002463Y004788D01*
X002463Y004593D02*
X003706Y004593D01*
X003706Y004398D02*
X002463Y004398D01*
X002463Y004202D02*
X003706Y004202D01*
X003706Y004007D02*
X002463Y004007D01*
X002463Y003812D02*
X003706Y003812D01*
X003706Y003616D02*
X002463Y003616D01*
X002463Y003421D02*
X003660Y003421D01*
X003683Y003226D02*
X002463Y003226D01*
X002428Y003030D02*
X004485Y003030D01*
X004450Y003226D02*
X004223Y003226D01*
X004246Y003421D02*
X004450Y003421D01*
X004450Y003616D02*
X004200Y003616D01*
X004200Y003812D02*
X004450Y003812D01*
X004450Y004007D02*
X004200Y004007D01*
X004200Y004202D02*
X004450Y004202D01*
X004450Y004398D02*
X004200Y004398D01*
X004200Y004593D02*
X004450Y004593D01*
X004450Y004788D02*
X004200Y004788D01*
X004296Y004984D02*
X004450Y004984D01*
X006735Y004984D02*
X009686Y004984D01*
X009886Y004788D02*
X006735Y004788D01*
X006932Y004593D02*
X010011Y004593D01*
X010011Y004398D02*
X007127Y004398D01*
X007323Y004202D02*
X010011Y004202D01*
X010011Y004007D02*
X007518Y004007D01*
X007714Y003812D02*
X010011Y003812D01*
X010011Y003616D02*
X008575Y003616D01*
X008892Y003421D02*
X010011Y003421D01*
X011509Y003421D02*
X014539Y003421D01*
X014539Y003616D02*
X011509Y003616D01*
X011509Y003812D02*
X014539Y003812D01*
X014539Y004007D02*
X011509Y004007D01*
X011509Y004202D02*
X014539Y004202D01*
X014383Y004365D02*
X014290Y004272D01*
X012978Y004272D01*
X012885Y004365D01*
X012885Y005677D01*
X012978Y005770D01*
X014290Y005770D01*
X014383Y005677D01*
X014383Y004365D01*
X014383Y004398D02*
X014539Y004398D01*
X014539Y004593D02*
X014383Y004593D01*
X014383Y004788D02*
X014539Y004788D01*
X014539Y004984D02*
X014383Y004984D01*
X014383Y005179D02*
X014539Y005179D01*
X014539Y005374D02*
X014383Y005374D01*
X014383Y005570D02*
X014539Y005570D01*
X014539Y005765D02*
X014295Y005765D01*
X014539Y005961D02*
X010830Y005961D01*
X010630Y006156D02*
X014539Y006156D01*
X014539Y006351D02*
X010623Y006351D01*
X010599Y006547D02*
X014539Y006547D01*
X014539Y006742D02*
X010518Y006742D01*
X011030Y005765D02*
X012972Y005765D01*
X012885Y005570D02*
X011231Y005570D01*
X011408Y005374D02*
X012885Y005374D01*
X012885Y005179D02*
X011490Y005179D01*
X011509Y004984D02*
X012885Y004984D01*
X012885Y004788D02*
X011509Y004788D01*
X011509Y004593D02*
X012885Y004593D01*
X012885Y004398D02*
X011509Y004398D01*
X009487Y005179D02*
X006735Y005179D01*
X007640Y003041D02*
X007600Y002895D01*
X007571Y002895D01*
X006767Y002640D02*
X000427Y002640D01*
X000427Y002835D02*
X006572Y002835D01*
X006963Y002444D02*
X000427Y002444D01*
X000427Y002249D02*
X007174Y002249D01*
X008141Y002054D02*
X000427Y002054D01*
X000427Y001858D02*
X014539Y001858D01*
X014539Y002054D02*
X011095Y002054D01*
X011291Y002249D02*
X014539Y002249D01*
X014539Y002444D02*
X011432Y002444D01*
X011509Y002640D02*
X014539Y002640D01*
X014539Y002835D02*
X011509Y002835D01*
X011509Y003030D02*
X014539Y003030D01*
X014539Y003226D02*
X011509Y003226D01*
X014539Y001663D02*
X000427Y001663D01*
X000427Y001467D02*
X014539Y001467D01*
X014539Y001272D02*
X000427Y001272D01*
X000427Y001077D02*
X014539Y001077D01*
X014539Y000881D02*
X000427Y000881D01*
X000427Y000686D02*
X014539Y000686D01*
X014539Y000491D02*
X000427Y000491D01*
D15*
X000642Y000513D03*
X001232Y000513D03*
X001823Y000513D03*
X001823Y001104D03*
X001232Y001104D03*
X000642Y001104D03*
X002216Y001891D03*
X002807Y001891D03*
X005169Y001694D03*
X005760Y001694D03*
X005760Y001104D03*
X005169Y001104D03*
X005169Y000513D03*
X004579Y000513D03*
X003988Y000513D03*
X003397Y000513D03*
X005760Y000513D03*
X006350Y000513D03*
X006941Y000513D03*
X007531Y000513D03*
X008122Y000513D03*
X008712Y000513D03*
X009303Y000513D03*
X009894Y000513D03*
X010484Y000513D03*
X011075Y000513D03*
X011665Y000513D03*
X012256Y000513D03*
X012846Y000513D03*
X013437Y000513D03*
X014027Y000513D03*
X014027Y001104D03*
X013437Y001104D03*
X012846Y001104D03*
X012846Y001694D03*
X013437Y001694D03*
X014027Y001694D03*
X008988Y003781D03*
X008516Y003781D03*
X008516Y004194D03*
X008988Y004194D03*
X008043Y004194D03*
X007492Y004234D03*
X007492Y004667D03*
X008043Y004667D03*
X007492Y005100D03*
X006980Y005100D03*
X006980Y004667D03*
X008890Y006242D03*
X008437Y006340D03*
X008004Y006340D03*
X008004Y006714D03*
X008437Y006714D03*
X008890Y006714D03*
X004303Y007443D03*
X003732Y007443D03*
X003161Y007443D03*
X002571Y007443D03*
X001960Y007443D03*
X001350Y007443D03*
X000760Y007443D03*
D16*
X013634Y005021D03*
X013634Y002856D03*
D17*
X007640Y003041D02*
X006712Y003930D01*
X006712Y004155D01*
X005592Y004155D01*
D18*
X005760Y004037D02*
X006429Y004037D01*
X007571Y002895D01*
X008358Y002895D01*
X008634Y002620D01*
X010602Y002620D01*
X010760Y002777D01*
X010760Y004982D01*
X009874Y005848D01*
X009874Y006340D01*
D19*
X001321Y004155D02*
X001214Y004155D01*
X001214Y004229D01*
M02*
